{"glyphs":{"0":{"ha":817,"x_min":83,"x_max":733,"o":"m 408 -14 q 226 53 299 -14 q 119 235 154 121 q 83 486 83 349 q 119 738 83 625 q 226 919 154 851 q 408 986 299 986 q 591 919 519 986 q 698 738 663 851 q 733 486 733 625 q 698 235 733 349 q 591 53 663 121 q 408 -14 519 -14 m 408 44 q 556 101 497 44 q 645 258 615 158 q 675 486 675 358 q 645 715 675 615 q 556 872 615 815 q 408 928 497 928 q 260 872 319 928 q 172 715 201 815 q 142 486 142 615 q 172 258 142 358 q 260 101 201 158 q 408 44 319 44 z "},"1":{"ha":449,"x_min":7,"x_max":310,"o":"m 281 0 q 260 8 268 0 q 251 28 251 17 l 251 908 l 265 900 l 49 771 q 38 768 44 768 q 16 778 25 768 q 7 799 7 789 q 22 822 7 811 l 265 968 q 289 972 275 975 q 304 963 299 971 q 310 944 310 956 l 310 28 q 301 8 310 17 q 281 0 293 0 z "},"2":{"ha":801,"x_min":122,"x_max":732,"o":"m 704 56 q 724 47 715 56 q 732 28 732 39 q 724 8 732 15 q 704 0 715 0 l 168 0 q 144 6 156 0 q 133 29 133 13 q 140 47 133 38 l 467 411 q 593 572 551 501 q 635 713 635 642 q 608 831 635 782 q 527 905 581 879 q 396 931 474 931 q 265 899 325 931 q 179 789 206 867 q 171 774 178 782 q 153 767 164 767 q 133 774 143 767 q 122 789 122 781 q 124 800 122 794 q 129 814 126 806 q 237 943 163 900 q 400 986 311 986 q 562 952 496 986 q 662 858 628 918 q 696 718 696 797 q 679 622 696 671 q 623 513 663 572 q 513 378 583 454 l 214 39 l 201 56 l 704 56 z "},"3":{"ha":721,"x_min":69,"x_max":640,"o":"m 113 125 q 124 123 118 125 q 138 111 129 121 q 211 61 168 78 q 308 44 254 44 q 447 78 385 44 q 545 171 508 111 q 582 307 582 231 q 542 451 582 396 q 440 531 501 506 q 315 557 379 557 q 293 556 306 557 q 270 554 281 556 q 258 553 260 553 q 238 561 246 553 q 231 583 231 569 q 232 594 231 589 q 238 603 233 599 l 536 936 l 544 917 l 97 917 q 78 925 86 917 q 69 944 69 933 q 78 965 69 957 q 97 972 86 972 l 578 972 q 601 960 596 972 q 607 943 607 949 q 605 933 607 938 q 599 924 603 928 l 304 593 l 276 601 q 299 610 276 606 q 336 614 322 614 q 480 581 410 614 q 595 479 550 547 q 640 307 640 411 q 594 139 640 211 q 473 26 549 67 q 308 -14 397 -14 q 192 8 249 -14 q 92 75 135 29 q 85 84 88 79 q 83 94 83 89 q 92 115 83 106 q 113 125 100 125 z "},"4":{"ha":701,"x_min":21,"x_max":661,"o":"m 500 0 q 480 8 488 0 q 472 28 472 17 l 472 896 l 488 885 l 90 350 l 86 365 l 633 365 q 653 358 644 365 q 661 339 661 350 q 653 320 661 328 q 633 313 644 313 l 49 313 q 28 322 36 313 q 21 342 21 332 q 28 360 21 353 l 476 961 q 491 971 483 969 q 500 972 499 972 q 520 964 513 972 q 528 944 528 956 l 528 28 q 519 8 528 17 q 500 0 511 0 z "},"5":{"ha":749,"x_min":75,"x_max":651,"o":"m 307 1 q 190 21 247 1 q 86 79 133 40 q 78 89 81 83 q 75 100 75 94 q 83 121 75 110 q 103 132 92 132 q 122 124 114 132 q 210 74 163 90 q 307 57 258 57 q 460 91 394 57 q 560 188 525 125 q 596 332 596 250 q 563 466 596 408 q 469 556 531 524 q 321 589 407 589 q 222 573 268 589 q 147 541 176 557 q 108 525 117 525 q 93 529 101 525 q 81 541 85 533 q 79 558 76 549 l 144 949 q 153 964 146 956 q 175 972 161 972 l 599 972 q 618 964 610 972 q 626 943 626 956 q 618 922 626 931 q 599 914 610 914 l 186 914 l 199 926 l 135 572 l 107 579 q 165 608 129 593 q 245 633 200 622 q 342 643 290 643 q 500 604 431 643 q 610 497 569 565 q 651 336 651 428 q 627 199 651 261 q 558 94 603 138 q 449 26 513 50 q 307 1 386 1 z "},"6":{"ha":740,"x_min":83,"x_max":699,"o":"m 400 -14 q 256 15 317 -14 q 158 91 196 43 q 101 199 119 139 q 83 322 83 260 q 103 476 83 396 q 159 638 122 557 q 248 790 196 718 q 366 918 300 861 q 508 1007 432 975 q 521 1010 517 1010 q 542 1002 533 1010 q 551 978 551 994 q 547 963 551 969 q 532 953 542 957 q 409 873 469 925 q 297 753 349 821 q 210 611 246 686 q 160 461 174 536 l 132 436 q 202 528 158 489 q 301 588 246 567 q 415 610 356 610 q 534 583 482 610 q 623 510 586 556 q 679 409 660 465 q 699 293 699 353 q 660 144 699 214 q 555 30 622 74 q 400 -14 488 -14 m 397 42 q 523 74 468 42 q 609 162 578 106 q 640 293 640 218 q 615 419 640 360 q 537 515 589 478 q 406 553 485 553 q 262 516 321 553 q 172 419 203 479 q 140 288 140 358 q 170 169 140 225 q 258 77 200 113 q 397 42 315 42 z "},"7":{"ha":696,"x_min":83,"x_max":654,"o":"m 236 -3 q 217 4 226 -3 q 207 22 207 11 q 210 36 207 28 l 588 929 l 604 917 l 111 917 q 92 924 100 917 q 83 944 83 932 q 92 965 83 957 q 111 972 100 972 l 631 972 q 650 965 646 972 q 654 947 654 958 q 651 933 654 939 l 264 15 q 253 2 261 7 q 236 -3 246 -3 z "},"8":{"ha":774,"x_min":97,"x_max":676,"o":"m 508 488 l 504 493 q 589 442 550 476 q 652 358 628 407 q 676 249 676 310 q 638 117 676 176 q 534 22 600 57 q 386 -14 468 -14 q 239 22 304 -14 q 135 117 174 57 q 97 249 97 176 q 121 358 97 310 q 183 440 144 406 q 267 492 222 474 l 264 486 q 194 538 226 504 q 140 616 161 571 q 119 714 119 661 q 155 846 119 788 q 251 938 190 904 q 386 972 313 972 q 520 938 460 972 q 616 846 581 904 q 651 714 651 788 q 631 617 651 661 q 578 539 611 572 q 508 488 546 506 m 178 714 q 207 607 178 653 q 284 535 236 561 q 386 510 332 510 q 488 535 440 510 q 564 607 535 561 q 593 714 593 653 q 535 860 593 804 q 386 917 478 917 q 235 860 293 917 q 178 714 178 804 m 386 42 q 554 100 490 42 q 618 249 618 158 q 586 358 618 310 q 501 433 554 406 q 386 460 449 460 q 272 433 325 460 q 188 358 219 406 q 156 249 156 310 q 219 100 156 158 q 386 42 282 42 z "},"9":{"ha":771,"x_min":83,"x_max":699,"o":"m 382 986 q 526 958 465 986 q 624 881 586 929 q 681 773 663 833 q 699 650 699 713 q 679 498 699 576 q 623 342 660 419 q 534 197 586 265 q 416 73 482 128 q 274 -14 350 18 q 261 -17 265 -17 q 240 -6 249 -17 q 231 15 231 4 q 235 30 231 24 q 250 40 240 36 q 413 151 335 78 q 547 318 490 224 q 622 511 604 413 l 650 536 q 580 445 624 483 q 482 386 536 407 q 367 365 428 365 q 248 392 300 365 q 159 463 196 418 q 103 564 122 508 q 83 679 83 619 q 122 829 83 760 q 227 942 160 899 q 382 986 294 986 m 385 931 q 259 899 314 931 q 173 811 204 868 q 142 679 142 754 q 167 555 142 614 q 246 459 193 496 q 376 422 299 422 q 520 458 461 422 q 610 554 579 494 q 642 685 642 614 q 612 804 642 749 q 525 895 582 860 q 385 931 468 931 z "},"A":{"ha":901,"x_min":47,"x_max":853,"o":"m 454 901 l 103 18 q 93 5 100 10 q 78 0 86 0 q 57 7 64 0 q 49 24 50 14 q 50 38 47 29 l 424 957 q 434 972 428 968 q 450 975 440 975 q 468 970 461 975 q 478 957 475 965 l 851 38 q 853 26 853 33 q 844 7 853 14 q 824 0 836 0 q 806 5 814 0 q 796 18 799 10 l 433 913 l 454 901 m 197 301 l 217 357 l 667 357 l 681 301 l 197 301 z "},"Á":{"ha":901,"x_min":47,"x_max":853,"o":"m 454 901 l 103 18 q 93 5 100 10 q 78 0 86 0 q 57 7 64 0 q 49 24 50 14 q 50 38 47 29 l 424 957 q 434 972 428 968 q 450 975 440 975 q 468 970 461 975 q 478 957 475 965 l 851 38 q 853 26 853 33 q 844 7 853 14 q 824 0 836 0 q 806 5 814 0 q 796 18 799 10 l 433 913 l 454 901 m 197 301 l 217 357 l 667 357 l 681 301 l 197 301 m 457 1039 q 444 1044 447 1039 q 440 1056 440 1050 q 444 1067 440 1063 q 453 1076 447 1072 l 578 1169 q 591 1177 583 1174 q 608 1181 599 1181 q 633 1170 625 1181 q 640 1147 640 1160 q 635 1127 640 1135 q 621 1114 631 1119 l 486 1049 q 473 1042 481 1046 q 457 1039 465 1039 z "},"Ă":{"ha":901,"x_min":47,"x_max":853,"o":"m 454 901 l 103 18 q 93 5 100 10 q 78 0 86 0 q 57 7 64 0 q 49 24 50 14 q 50 38 47 29 l 424 957 q 434 972 428 968 q 450 975 440 975 q 468 970 461 975 q 478 957 475 965 l 851 38 q 853 26 853 33 q 844 7 853 14 q 824 0 836 0 q 806 5 814 0 q 796 18 799 10 l 433 913 l 454 901 m 197 301 l 217 357 l 667 357 l 681 301 l 197 301 m 451 1083 q 335 1121 382 1083 q 271 1226 288 1158 q 273 1249 268 1240 q 292 1257 278 1257 q 310 1251 306 1257 q 319 1233 314 1246 q 372 1162 339 1186 q 451 1138 404 1138 q 582 1233 544 1138 q 592 1250 586 1244 q 610 1256 599 1256 q 630 1249 625 1256 q 632 1226 635 1242 q 568 1121 615 1158 q 451 1083 521 1083 z "},"Ắ":{"ha":901,"x_min":47,"x_max":853,"o":"m 454 901 l 103 18 q 93 5 100 10 q 78 0 86 0 q 57 7 64 0 q 49 24 50 14 q 50 38 47 29 l 424 957 q 434 972 428 968 q 450 975 440 975 q 468 970 461 975 q 478 957 475 965 l 851 38 q 853 26 853 33 q 844 7 853 14 q 824 0 836 0 q 806 5 814 0 q 796 18 799 10 l 433 913 l 454 901 m 197 301 l 217 357 l 667 357 l 681 301 l 197 301 m 451 1083 q 335 1121 382 1083 q 271 1226 288 1158 q 273 1249 268 1240 q 292 1257 278 1257 q 310 1251 306 1257 q 319 1233 314 1246 q 372 1162 339 1186 q 451 1138 404 1138 q 582 1233 544 1138 q 592 1250 586 1244 q 610 1256 599 1256 q 630 1249 625 1256 q 632 1226 635 1242 q 568 1121 615 1158 q 451 1083 521 1083 m 457 1322 q 444 1328 447 1322 q 440 1339 440 1333 q 444 1351 440 1346 q 453 1360 447 1356 l 578 1453 q 591 1460 583 1457 q 608 1464 599 1464 q 633 1453 625 1464 q 640 1431 640 1443 q 635 1410 640 1418 q 621 1397 631 1403 l 486 1332 q 473 1326 481 1329 q 457 1322 465 1322 z "},"Ặ":{"ha":901,"x_min":47,"x_max":853,"o":"m 454 901 l 103 18 q 93 5 100 10 q 78 0 86 0 q 57 7 64 0 q 49 24 50 14 q 50 38 47 29 l 424 957 q 434 972 428 968 q 450 975 440 975 q 468 970 461 975 q 478 957 475 965 l 851 38 q 853 26 853 33 q 844 7 853 14 q 824 0 836 0 q 806 5 814 0 q 796 18 799 10 l 433 913 l 454 901 m 197 301 l 217 357 l 667 357 l 681 301 l 197 301 m 451 -190 q 416 -176 429 -190 q 403 -140 403 -162 l 403 -129 q 417 -93 403 -107 q 453 -79 431 -79 q 485 -93 472 -79 q 499 -129 499 -107 l 499 -140 q 485 -176 499 -162 q 451 -190 472 -190 m 451 1083 q 335 1121 382 1083 q 271 1226 288 1158 q 273 1249 268 1240 q 292 1257 278 1257 q 310 1251 306 1257 q 319 1233 314 1246 q 372 1162 339 1186 q 451 1138 404 1138 q 582 1233 544 1138 q 592 1250 586 1244 q 610 1256 599 1256 q 630 1249 625 1256 q 632 1226 635 1242 q 568 1121 615 1158 q 451 1083 521 1083 z "},"Ằ":{"ha":901,"x_min":47,"x_max":853,"o":"m 454 901 l 103 18 q 93 5 100 10 q 78 0 86 0 q 57 7 64 0 q 49 24 50 14 q 50 38 47 29 l 424 957 q 434 972 428 968 q 450 975 440 975 q 468 970 461 975 q 478 957 475 965 l 851 38 q 853 26 853 33 q 844 7 853 14 q 824 0 836 0 q 806 5 814 0 q 796 18 799 10 l 433 913 l 454 901 m 197 301 l 217 357 l 667 357 l 681 301 l 197 301 m 451 1083 q 335 1121 382 1083 q 271 1226 288 1158 q 273 1249 268 1240 q 292 1257 278 1257 q 310 1251 306 1257 q 319 1233 314 1246 q 372 1162 339 1186 q 451 1138 404 1138 q 582 1233 544 1138 q 592 1250 586 1244 q 610 1256 599 1256 q 630 1249 625 1256 q 632 1226 635 1242 q 568 1121 615 1158 q 451 1083 521 1083 m 451 1322 q 436 1326 443 1322 q 422 1332 429 1329 l 288 1397 q 268 1431 268 1408 q 276 1453 268 1443 q 300 1464 283 1464 q 317 1460 310 1464 q 331 1453 325 1457 l 456 1360 q 465 1351 461 1356 q 468 1339 468 1346 q 465 1328 468 1333 q 451 1322 461 1322 z "},"Ẳ":{"ha":901,"x_min":47,"x_max":853,"o":"m 454 901 l 103 18 q 93 5 100 10 q 78 0 86 0 q 57 7 64 0 q 49 24 50 14 q 50 38 47 29 l 424 957 q 434 972 428 968 q 450 975 440 975 q 468 970 461 975 q 478 957 475 965 l 851 38 q 853 26 853 33 q 844 7 853 14 q 824 0 836 0 q 806 5 814 0 q 796 18 799 10 l 433 913 l 454 901 m 197 301 l 217 357 l 667 357 l 681 301 l 197 301 m 451 1083 q 335 1121 382 1083 q 271 1226 288 1158 q 273 1249 268 1240 q 292 1257 278 1257 q 310 1251 306 1257 q 319 1233 314 1246 q 372 1162 339 1186 q 451 1138 404 1138 q 582 1233 544 1138 q 592 1250 586 1244 q 610 1256 599 1256 q 630 1249 625 1256 q 632 1226 635 1242 q 568 1121 615 1158 q 451 1083 521 1083 m 354 1525 q 400 1557 374 1544 q 456 1569 426 1569 q 517 1553 494 1569 q 549 1515 539 1538 q 558 1474 558 1493 q 544 1429 558 1449 q 506 1386 529 1410 q 497 1374 500 1381 q 493 1354 494 1367 q 485 1340 492 1344 q 469 1335 479 1335 q 453 1342 458 1335 q 447 1357 447 1349 q 450 1383 447 1368 q 467 1413 453 1399 q 498 1444 486 1432 q 510 1475 510 1457 q 494 1507 510 1494 q 458 1519 479 1519 q 422 1511 439 1519 q 393 1493 406 1503 q 370 1482 382 1483 q 350 1490 358 1481 q 344 1506 344 1497 q 354 1525 344 1515 z "},"Ẵ":{"ha":901,"x_min":47,"x_max":853,"o":"m 454 901 l 103 18 q 93 5 100 10 q 78 0 86 0 q 57 7 64 0 q 49 24 50 14 q 50 38 47 29 l 424 957 q 434 972 428 968 q 450 975 440 975 q 468 970 461 975 q 478 957 475 965 l 851 38 q 853 26 853 33 q 844 7 853 14 q 824 0 836 0 q 806 5 814 0 q 796 18 799 10 l 433 913 l 454 901 m 197 301 l 217 357 l 667 357 l 681 301 l 197 301 m 451 1083 q 335 1121 382 1083 q 271 1226 288 1158 q 273 1249 268 1240 q 292 1257 278 1257 q 310 1251 306 1257 q 319 1233 314 1246 q 372 1162 339 1186 q 451 1138 404 1138 q 582 1233 544 1138 q 592 1250 586 1244 q 610 1256 599 1256 q 630 1249 625 1256 q 632 1226 635 1242 q 568 1121 615 1158 q 451 1083 521 1083 m 275 1369 q 257 1382 261 1369 q 258 1418 253 1394 q 303 1483 271 1464 q 368 1503 335 1503 q 431 1483 397 1503 q 496 1443 464 1463 q 551 1424 528 1424 q 585 1441 572 1424 q 603 1486 599 1458 q 610 1504 604 1497 q 628 1511 617 1511 q 648 1498 644 1511 q 647 1464 651 1485 q 624 1410 640 1431 q 587 1382 608 1390 q 540 1374 565 1374 q 481 1393 514 1374 q 417 1431 449 1413 q 363 1450 386 1450 q 326 1435 342 1450 q 300 1389 310 1421 q 290 1374 297 1379 q 275 1369 282 1369 z "},"Ǎ":{"ha":901,"x_min":47,"x_max":853,"o":"m 454 901 l 103 18 q 93 5 100 10 q 78 0 86 0 q 57 7 64 0 q 49 24 50 14 q 50 38 47 29 l 424 957 q 434 972 428 968 q 450 975 440 975 q 468 970 461 975 q 478 957 475 965 l 851 38 q 853 26 853 33 q 844 7 853 14 q 824 0 836 0 q 806 5 814 0 q 796 18 799 10 l 433 913 l 454 901 m 197 301 l 217 357 l 667 357 l 681 301 l 197 301 m 443 1104 l 568 1210 q 582 1220 575 1217 q 594 1224 589 1224 q 606 1219 601 1224 q 611 1207 611 1214 q 609 1199 611 1203 q 603 1190 607 1194 l 490 1071 q 476 1058 485 1061 q 457 1054 468 1054 l 443 1054 q 424 1058 432 1054 q 410 1071 417 1061 l 297 1189 q 291 1197 293 1193 q 289 1206 289 1201 q 294 1217 289 1213 q 306 1222 299 1222 q 332 1208 315 1222 l 458 1110 l 443 1104 z "},"Â":{"ha":901,"x_min":47,"x_max":853,"o":"m 454 901 l 103 18 q 93 5 100 10 q 78 0 86 0 q 57 7 64 0 q 49 24 50 14 q 50 38 47 29 l 424 957 q 434 972 428 968 q 450 975 440 975 q 468 970 461 975 q 478 957 475 965 l 851 38 q 853 26 853 33 q 844 7 853 14 q 824 0 836 0 q 806 5 814 0 q 796 18 799 10 l 433 913 l 454 901 m 197 301 l 217 357 l 667 357 l 681 301 l 197 301 m 457 1186 l 332 1081 q 319 1071 325 1075 q 306 1067 313 1067 q 294 1072 299 1067 q 289 1083 289 1078 q 291 1092 289 1088 q 297 1100 293 1096 l 410 1219 q 425 1232 418 1228 q 443 1236 432 1236 l 457 1236 q 475 1232 468 1236 q 490 1219 482 1228 l 603 1101 q 609 1093 607 1097 q 611 1085 611 1089 q 606 1074 611 1079 q 594 1068 601 1068 q 582 1072 589 1068 q 568 1082 575 1076 l 442 1181 l 457 1186 z "},"Ấ":{"ha":901,"x_min":47,"x_max":853,"o":"m 454 901 l 103 18 q 93 5 100 10 q 78 0 86 0 q 57 7 64 0 q 49 24 50 14 q 50 38 47 29 l 424 957 q 434 972 428 968 q 450 975 440 975 q 468 970 461 975 q 478 957 475 965 l 851 38 q 853 26 853 33 q 844 7 853 14 q 824 0 836 0 q 806 5 814 0 q 796 18 799 10 l 433 913 l 454 901 m 197 301 l 217 357 l 667 357 l 681 301 l 197 301 m 457 1186 l 332 1081 q 319 1071 325 1075 q 306 1067 313 1067 q 294 1072 299 1067 q 289 1083 289 1078 q 291 1092 289 1088 q 297 1100 293 1096 l 410 1219 q 425 1232 418 1228 q 443 1236 432 1236 l 457 1236 q 475 1232 468 1236 q 490 1219 482 1228 l 603 1101 q 609 1093 607 1097 q 611 1085 611 1089 q 606 1074 611 1079 q 594 1068 601 1068 q 582 1072 589 1068 q 568 1082 575 1076 l 442 1181 l 457 1186 m 619 1150 q 606 1156 610 1150 q 603 1167 603 1161 q 606 1178 603 1174 q 615 1188 610 1183 l 740 1281 q 753 1288 746 1285 q 771 1292 761 1292 q 795 1281 788 1292 q 803 1258 803 1271 q 798 1238 803 1246 q 783 1225 793 1231 l 649 1160 q 635 1153 643 1157 q 619 1150 628 1150 z "},"Ậ":{"ha":901,"x_min":47,"x_max":853,"o":"m 454 901 l 103 18 q 93 5 100 10 q 78 0 86 0 q 57 7 64 0 q 49 24 50 14 q 50 38 47 29 l 424 957 q 434 972 428 968 q 450 975 440 975 q 468 970 461 975 q 478 957 475 965 l 851 38 q 853 26 853 33 q 844 7 853 14 q 824 0 836 0 q 806 5 814 0 q 796 18 799 10 l 433 913 l 454 901 m 197 301 l 217 357 l 667 357 l 681 301 l 197 301 m 451 -190 q 416 -176 429 -190 q 403 -140 403 -162 l 403 -129 q 417 -93 403 -107 q 453 -79 431 -79 q 485 -93 472 -79 q 499 -129 499 -107 l 499 -140 q 485 -176 499 -162 q 451 -190 472 -190 m 457 1186 l 332 1081 q 319 1071 325 1075 q 306 1067 313 1067 q 294 1072 299 1067 q 289 1083 289 1078 q 291 1092 289 1088 q 297 1100 293 1096 l 410 1219 q 425 1232 418 1228 q 443 1236 432 1236 l 457 1236 q 475 1232 468 1236 q 490 1219 482 1228 l 603 1101 q 609 1093 607 1097 q 611 1085 611 1089 q 606 1074 611 1079 q 594 1068 601 1068 q 582 1072 589 1068 q 568 1082 575 1076 l 442 1181 l 457 1186 z "},"Ầ":{"ha":901,"x_min":47,"x_max":853,"o":"m 454 901 l 103 18 q 93 5 100 10 q 78 0 86 0 q 57 7 64 0 q 49 24 50 14 q 50 38 47 29 l 424 957 q 434 972 428 968 q 450 975 440 975 q 468 970 461 975 q 478 957 475 965 l 851 38 q 853 26 853 33 q 844 7 853 14 q 824 0 836 0 q 806 5 814 0 q 796 18 799 10 l 433 913 l 454 901 m 197 301 l 217 357 l 667 357 l 681 301 l 197 301 m 457 1186 l 332 1081 q 319 1071 325 1075 q 306 1067 313 1067 q 294 1072 299 1067 q 289 1083 289 1078 q 291 1092 289 1088 q 297 1100 293 1096 l 410 1219 q 425 1232 418 1228 q 443 1236 432 1236 l 457 1236 q 475 1232 468 1236 q 490 1219 482 1228 l 603 1101 q 609 1093 607 1097 q 611 1085 611 1089 q 606 1074 611 1079 q 594 1068 601 1068 q 582 1072 589 1068 q 568 1082 575 1076 l 442 1181 l 457 1186 m 607 1211 q 592 1215 599 1211 q 578 1221 585 1218 l 443 1286 q 424 1319 424 1297 q 431 1342 424 1332 q 456 1353 439 1353 q 473 1349 465 1353 q 486 1342 481 1346 l 611 1249 q 620 1240 617 1244 q 624 1228 624 1235 q 620 1217 624 1222 q 607 1211 617 1211 z "},"Ẩ":{"ha":901,"x_min":47,"x_max":853,"o":"m 454 901 l 103 18 q 93 5 100 10 q 78 0 86 0 q 57 7 64 0 q 49 24 50 14 q 50 38 47 29 l 424 957 q 434 972 428 968 q 450 975 440 975 q 468 970 461 975 q 478 957 475 965 l 851 38 q 853 26 853 33 q 844 7 853 14 q 824 0 836 0 q 806 5 814 0 q 796 18 799 10 l 433 913 l 454 901 m 197 301 l 217 357 l 667 357 l 681 301 l 197 301 m 457 1186 l 332 1081 q 319 1071 325 1075 q 306 1067 313 1067 q 294 1072 299 1067 q 289 1083 289 1078 q 291 1092 289 1088 q 297 1100 293 1096 l 410 1219 q 425 1232 418 1228 q 443 1236 432 1236 l 457 1236 q 475 1232 468 1236 q 490 1219 482 1228 l 603 1101 q 609 1093 607 1097 q 611 1085 611 1089 q 606 1074 611 1079 q 594 1068 601 1068 q 582 1072 589 1068 q 568 1082 575 1076 l 442 1181 l 457 1186 m 556 1301 q 601 1333 575 1321 q 657 1346 628 1346 q 718 1330 696 1346 q 750 1292 740 1314 q 760 1250 760 1269 q 745 1206 760 1225 q 707 1163 731 1186 q 699 1150 701 1157 q 694 1131 696 1143 q 687 1116 693 1121 q 671 1111 681 1111 q 654 1118 660 1111 q 649 1133 649 1125 q 651 1160 649 1144 q 668 1189 654 1175 q 699 1221 688 1208 q 711 1251 711 1233 q 696 1283 711 1271 q 660 1296 681 1296 q 624 1288 640 1296 q 594 1269 607 1279 q 572 1258 583 1260 q 551 1267 560 1257 q 546 1283 546 1274 q 556 1301 546 1292 z "},"Ẫ":{"ha":901,"x_min":47,"x_max":853,"o":"m 454 901 l 103 18 q 93 5 100 10 q 78 0 86 0 q 57 7 64 0 q 49 24 50 14 q 50 38 47 29 l 424 957 q 434 972 428 968 q 450 975 440 975 q 468 970 461 975 q 478 957 475 965 l 851 38 q 853 26 853 33 q 844 7 853 14 q 824 0 836 0 q 806 5 814 0 q 796 18 799 10 l 433 913 l 454 901 m 197 301 l 217 357 l 667 357 l 681 301 l 197 301 m 457 1132 l 332 1026 q 319 1017 325 1021 q 306 1013 313 1013 q 294 1018 299 1013 q 289 1029 289 1024 q 291 1038 289 1033 q 297 1046 293 1042 l 410 1165 q 425 1178 418 1174 q 443 1182 432 1182 l 457 1182 q 475 1178 468 1182 q 490 1165 482 1174 l 603 1047 q 609 1039 607 1043 q 611 1031 611 1035 q 606 1019 611 1025 q 594 1014 601 1014 q 582 1018 589 1014 q 568 1028 575 1022 l 442 1126 l 457 1132 m 275 1188 q 257 1200 261 1188 q 258 1236 253 1213 q 303 1301 271 1282 q 368 1321 335 1321 q 431 1301 397 1321 q 496 1261 464 1281 q 551 1242 528 1242 q 585 1259 572 1242 q 603 1304 599 1276 q 610 1322 604 1315 q 628 1329 617 1329 q 648 1316 644 1329 q 647 1282 651 1303 q 624 1228 640 1249 q 587 1200 608 1208 q 540 1192 565 1192 q 481 1211 514 1192 q 417 1249 449 1231 q 363 1268 386 1268 q 326 1253 342 1268 q 300 1207 310 1239 q 290 1192 297 1197 q 275 1188 282 1188 z "},"Ȁ":{"ha":901,"x_min":47,"x_max":853,"o":"m 454 901 l 103 18 q 93 5 100 10 q 78 0 86 0 q 57 7 64 0 q 49 24 50 14 q 50 38 47 29 l 424 957 q 434 972 428 968 q 450 975 440 975 q 468 970 461 975 q 478 957 475 965 l 851 38 q 853 26 853 33 q 844 7 853 14 q 824 0 836 0 q 806 5 814 0 q 796 18 799 10 l 433 913 l 454 901 m 197 301 l 217 357 l 667 357 l 681 301 l 197 301 m 407 1050 q 392 1053 399 1050 q 378 1060 385 1057 l 243 1125 q 224 1158 224 1136 q 231 1181 224 1171 q 256 1192 239 1192 q 273 1188 265 1192 q 286 1181 281 1185 l 411 1088 q 420 1078 417 1083 q 424 1067 424 1074 q 420 1056 424 1061 q 407 1050 417 1050 m 622 1044 q 607 1048 614 1044 q 593 1054 600 1051 l 458 1119 q 439 1153 439 1131 q 447 1176 439 1165 q 471 1186 454 1186 q 488 1183 481 1186 q 501 1175 496 1179 l 626 1082 q 635 1073 632 1078 q 639 1061 639 1068 q 635 1050 639 1056 q 622 1044 632 1044 z "},"Ä":{"ha":901,"x_min":47,"x_max":853,"o":"m 454 901 l 103 18 q 93 5 100 10 q 78 0 86 0 q 57 7 64 0 q 49 24 50 14 q 50 38 47 29 l 424 957 q 434 972 428 968 q 450 975 440 975 q 468 970 461 975 q 478 957 475 965 l 851 38 q 853 26 853 33 q 844 7 853 14 q 824 0 836 0 q 806 5 814 0 q 796 18 799 10 l 433 913 l 454 901 m 197 301 l 217 357 l 667 357 l 681 301 l 197 301 m 565 1083 q 530 1097 543 1083 q 517 1133 517 1111 l 517 1144 q 531 1181 517 1167 q 567 1194 544 1194 q 599 1181 586 1194 q 613 1144 613 1167 l 613 1133 q 599 1097 613 1111 q 565 1083 586 1083 m 339 1083 q 303 1097 317 1083 q 290 1133 290 1111 l 290 1144 q 304 1181 290 1167 q 340 1194 318 1194 q 373 1181 360 1194 q 386 1144 386 1167 l 386 1133 q 373 1097 386 1111 q 339 1083 360 1083 z "},"Ạ":{"ha":901,"x_min":47,"x_max":853,"o":"m 454 901 l 103 18 q 93 5 100 10 q 78 0 86 0 q 57 7 64 0 q 49 24 50 14 q 50 38 47 29 l 424 957 q 434 972 428 968 q 450 975 440 975 q 468 970 461 975 q 478 957 475 965 l 851 38 q 853 26 853 33 q 844 7 853 14 q 824 0 836 0 q 806 5 814 0 q 796 18 799 10 l 433 913 l 454 901 m 197 301 l 217 357 l 667 357 l 681 301 l 197 301 m 451 -190 q 416 -176 429 -190 q 403 -140 403 -162 l 403 -129 q 417 -93 403 -107 q 453 -79 431 -79 q 485 -93 472 -79 q 499 -129 499 -107 l 499 -140 q 485 -176 499 -162 q 451 -190 472 -190 z "},"À":{"ha":901,"x_min":47,"x_max":853,"o":"m 454 901 l 103 18 q 93 5 100 10 q 78 0 86 0 q 57 7 64 0 q 49 24 50 14 q 50 38 47 29 l 424 957 q 434 972 428 968 q 450 975 440 975 q 468 970 461 975 q 478 957 475 965 l 851 38 q 853 26 853 33 q 844 7 853 14 q 824 0 836 0 q 806 5 814 0 q 796 18 799 10 l 433 913 l 454 901 m 197 301 l 217 357 l 667 357 l 681 301 l 197 301 m 451 1039 q 436 1042 443 1039 q 422 1049 429 1046 l 288 1114 q 268 1147 268 1125 q 276 1170 268 1160 q 300 1181 283 1181 q 317 1177 310 1181 q 331 1169 325 1174 l 456 1076 q 465 1067 461 1072 q 468 1056 468 1063 q 465 1044 468 1050 q 451 1039 461 1039 z "},"Ả":{"ha":901,"x_min":47,"x_max":853,"o":"m 454 901 l 103 18 q 93 5 100 10 q 78 0 86 0 q 57 7 64 0 q 49 24 50 14 q 50 38 47 29 l 424 957 q 434 972 428 968 q 450 975 440 975 q 468 970 461 975 q 478 957 475 965 l 851 38 q 853 26 853 33 q 844 7 853 14 q 824 0 836 0 q 806 5 814 0 q 796 18 799 10 l 433 913 l 454 901 m 197 301 l 217 357 l 667 357 l 681 301 l 197 301 m 354 1242 q 400 1274 374 1261 q 456 1286 426 1286 q 517 1270 494 1286 q 549 1232 539 1254 q 558 1190 558 1210 q 544 1146 558 1165 q 506 1103 529 1126 q 497 1090 500 1097 q 493 1071 494 1083 q 485 1056 492 1061 q 469 1051 479 1051 q 453 1058 458 1051 q 447 1074 447 1065 q 450 1100 447 1085 q 467 1129 453 1115 q 498 1161 486 1149 q 510 1192 510 1174 q 494 1224 510 1211 q 458 1236 479 1236 q 422 1228 439 1236 q 393 1210 406 1219 q 370 1199 382 1200 q 350 1207 358 1197 q 344 1223 344 1214 q 354 1242 344 1232 z "},"Ȃ":{"ha":901,"x_min":47,"x_max":853,"o":"m 454 901 l 103 18 q 93 5 100 10 q 78 0 86 0 q 57 7 64 0 q 49 24 50 14 q 50 38 47 29 l 424 957 q 434 972 428 968 q 450 975 440 975 q 468 970 461 975 q 478 957 475 965 l 851 38 q 853 26 853 33 q 844 7 853 14 q 824 0 836 0 q 806 5 814 0 q 796 18 799 10 l 433 913 l 454 901 m 197 301 l 217 357 l 667 357 l 681 301 l 197 301 m 449 1172 q 533 1153 496 1172 q 594 1101 571 1133 q 617 1033 617 1069 q 609 1016 617 1024 q 590 1008 601 1008 q 570 1016 576 1008 q 561 1036 564 1024 q 522 1098 554 1076 q 449 1119 490 1119 q 375 1098 407 1119 q 336 1036 343 1076 q 328 1016 335 1024 q 307 1008 321 1008 q 288 1016 296 1008 q 281 1033 281 1024 q 303 1101 281 1069 q 365 1153 326 1133 q 449 1172 403 1172 z "},"Ā":{"ha":901,"x_min":47,"x_max":853,"o":"m 454 901 l 103 18 q 93 5 100 10 q 78 0 86 0 q 57 7 64 0 q 49 24 50 14 q 50 38 47 29 l 424 957 q 434 972 428 968 q 450 975 440 975 q 468 970 461 975 q 478 957 475 965 l 851 38 q 853 26 853 33 q 844 7 853 14 q 824 0 836 0 q 806 5 814 0 q 796 18 799 10 l 433 913 l 454 901 m 197 301 l 217 357 l 667 357 l 681 301 l 197 301 m 276 1111 q 246 1136 246 1111 q 276 1164 246 1164 l 638 1164 q 668 1136 668 1164 q 638 1111 668 1111 l 276 1111 z "},"Ą":{"ha":901,"x_min":47,"x_max":897,"o":"m 797 -257 q 713 -222 751 -257 q 675 -129 675 -187 q 685 -71 675 -97 q 713 -24 696 -44 q 751 11 731 -3 q 794 32 772 25 l 808 28 l 796 18 l 433 913 l 454 901 l 103 18 q 93 5 100 10 q 78 0 86 0 q 57 7 64 0 q 49 24 50 14 q 50 38 47 29 l 424 957 q 434 972 428 968 q 450 975 440 975 q 468 970 461 975 q 478 957 475 965 l 851 38 q 854 25 854 29 q 847 8 854 13 q 826 0 839 3 q 758 -42 789 -7 q 728 -118 728 -78 q 751 -183 728 -160 q 804 -206 775 -206 q 849 -189 839 -206 q 860 -175 854 -181 q 875 -169 865 -169 q 891 -176 885 -169 q 897 -189 897 -182 q 883 -223 897 -207 q 845 -248 868 -239 q 797 -257 822 -257 m 197 301 l 217 357 l 667 357 l 681 301 l 197 301 z "},"Å":{"ha":901,"x_min":47,"x_max":853,"o":"m 451 932 q 384 949 415 932 q 334 997 353 967 q 315 1063 315 1026 q 334 1128 315 1099 q 384 1176 353 1158 q 451 1193 415 1193 q 519 1176 488 1193 q 569 1128 550 1158 q 588 1063 588 1099 q 569 997 588 1026 q 519 949 550 967 q 451 932 488 932 m 451 976 q 513 1002 488 976 q 538 1063 538 1028 q 513 1124 538 1099 q 451 1149 488 1149 q 391 1124 417 1149 q 365 1063 365 1099 q 391 1002 365 1028 q 451 976 417 976 m 454 901 l 103 18 q 93 5 100 10 q 78 0 86 0 q 57 7 64 0 q 49 24 50 14 q 50 38 47 29 l 424 957 q 434 972 428 968 q 450 975 440 975 q 468 970 461 975 q 478 957 475 965 l 851 38 q 853 26 853 33 q 844 7 853 14 q 824 0 836 0 q 806 5 814 0 q 796 18 799 10 l 433 913 l 454 901 m 197 301 l 217 357 l 667 357 l 681 301 l 197 301 z "},"Ǻ":{"ha":901,"x_min":47,"x_max":853,"o":"m 451 932 q 384 949 415 932 q 334 997 353 967 q 315 1063 315 1026 q 334 1128 315 1099 q 384 1176 353 1158 q 451 1193 415 1193 q 519 1176 488 1193 q 569 1128 550 1158 q 588 1063 588 1099 q 569 997 588 1026 q 519 949 550 967 q 451 932 488 932 m 451 976 q 513 1002 488 976 q 538 1063 538 1028 q 513 1124 538 1099 q 451 1149 488 1149 q 391 1124 417 1149 q 365 1063 365 1099 q 391 1002 365 1028 q 451 976 417 976 m 454 901 l 103 18 q 93 5 100 10 q 78 0 86 0 q 57 7 64 0 q 49 24 50 14 q 50 38 47 29 l 424 957 q 434 972 428 968 q 450 975 440 975 q 468 970 461 975 q 478 957 475 965 l 851 38 q 853 26 853 33 q 844 7 853 14 q 824 0 836 0 q 806 5 814 0 q 796 18 799 10 l 433 913 l 454 901 m 197 301 l 217 357 l 667 357 l 681 301 l 197 301 m 457 1260 q 444 1265 447 1260 q 440 1276 440 1271 q 444 1288 440 1283 q 453 1297 447 1293 l 578 1390 q 591 1398 583 1394 q 608 1401 599 1401 q 633 1391 625 1401 q 640 1368 640 1381 q 635 1348 640 1356 q 621 1335 631 1340 l 486 1269 q 473 1263 481 1267 q 457 1260 465 1260 z "},"Ã":{"ha":901,"x_min":47,"x_max":853,"o":"m 454 901 l 103 18 q 93 5 100 10 q 78 0 86 0 q 57 7 64 0 q 49 24 50 14 q 50 38 47 29 l 424 957 q 434 972 428 968 q 450 975 440 975 q 468 970 461 975 q 478 957 475 965 l 851 38 q 853 26 853 33 q 844 7 853 14 q 824 0 836 0 q 806 5 814 0 q 796 18 799 10 l 433 913 l 454 901 m 197 301 l 217 357 l 667 357 l 681 301 l 197 301 m 275 1086 q 257 1099 261 1086 q 258 1135 253 1111 q 303 1200 271 1181 q 368 1219 335 1219 q 431 1199 397 1219 q 496 1160 464 1179 q 551 1140 528 1140 q 585 1158 572 1140 q 603 1203 599 1175 q 610 1221 604 1214 q 628 1228 617 1228 q 648 1215 644 1228 q 647 1181 651 1201 q 624 1127 640 1147 q 587 1099 608 1107 q 540 1090 565 1090 q 481 1110 514 1090 q 417 1148 449 1129 q 363 1167 386 1167 q 326 1152 342 1167 q 300 1106 310 1138 q 290 1091 297 1096 q 275 1086 282 1086 z "},"Æ":{"ha":1293,"x_min":13,"x_max":1224,"o":"m 233 301 l 682 301 l 658 279 l 658 919 l 676 889 l 63 11 q 39 -1 54 -1 q 21 7 29 -1 q 13 28 13 15 q 17 43 13 38 l 658 960 q 670 969 664 967 q 683 972 676 972 l 1196 972 q 1215 964 1207 972 q 1224 944 1224 956 q 1215 924 1224 932 q 1196 917 1207 917 l 704 917 l 714 931 l 714 515 l 706 529 l 1133 529 q 1153 521 1144 529 q 1161 501 1161 513 q 1153 481 1161 489 q 1133 474 1144 474 l 703 474 l 714 486 l 714 42 l 706 56 l 1196 56 q 1215 47 1207 56 q 1224 28 1224 39 q 1215 8 1224 15 q 1196 0 1207 0 l 686 0 q 667 8 675 0 q 658 28 658 17 l 658 265 l 682 246 l 179 246 l 233 301 z "},"Ǽ":{"ha":1293,"x_min":13,"x_max":1224,"o":"m 233 301 l 682 301 l 658 279 l 658 919 l 676 889 l 63 11 q 39 -1 54 -1 q 21 7 29 -1 q 13 28 13 15 q 17 43 13 38 l 658 960 q 670 969 664 967 q 683 972 676 972 l 1196 972 q 1215 964 1207 972 q 1224 944 1224 956 q 1215 924 1224 932 q 1196 917 1207 917 l 704 917 l 714 931 l 714 515 l 706 529 l 1133 529 q 1153 521 1144 529 q 1161 501 1161 513 q 1153 481 1161 489 q 1133 474 1144 474 l 703 474 l 714 486 l 714 42 l 706 56 l 1196 56 q 1215 47 1207 56 q 1224 28 1224 39 q 1215 8 1224 15 q 1196 0 1207 0 l 686 0 q 667 8 675 0 q 658 28 658 17 l 658 265 l 682 246 l 179 246 l 233 301 m 885 1039 q 872 1044 875 1039 q 868 1056 868 1050 q 872 1067 868 1063 q 881 1076 875 1072 l 1006 1169 q 1019 1177 1011 1174 q 1036 1181 1026 1181 q 1060 1170 1053 1181 q 1068 1147 1068 1160 q 1063 1127 1068 1135 q 1049 1114 1058 1119 l 914 1049 q 901 1042 908 1046 q 885 1039 893 1039 z "},"B":{"ha":903,"x_min":139,"x_max":833,"o":"m 540 972 q 718 908 651 972 q 785 736 785 844 q 762 626 785 679 q 694 538 739 572 q 585 497 650 503 l 575 514 q 676 498 629 514 q 758 450 724 482 q 813 372 793 418 q 833 263 833 325 q 811 147 833 196 q 750 65 789 97 q 660 16 711 32 q 550 0 608 0 l 167 0 q 147 8 156 0 q 139 28 139 17 l 139 944 q 147 964 139 956 q 167 972 156 972 l 540 972 m 533 917 l 182 917 l 197 943 l 197 503 l 183 526 l 533 526 q 671 581 615 528 q 726 738 726 633 q 676 867 726 818 q 533 917 626 917 m 543 469 l 192 469 l 197 478 l 197 44 l 190 56 l 543 56 q 708 105 642 56 q 775 263 775 154 q 744 381 775 335 q 661 448 714 426 q 543 469 608 469 z "},"C":{"ha":919,"x_min":69,"x_max":872,"o":"m 858 892 q 871 873 869 883 q 865 851 872 863 q 848 841 858 842 q 828 846 838 840 q 701 910 769 886 q 554 933 632 933 q 388 901 465 933 q 253 808 311 868 q 161 667 194 749 q 128 486 128 585 q 161 306 128 388 q 253 164 194 224 q 388 72 311 104 q 554 39 465 39 q 700 63 632 39 q 826 125 768 86 q 847 131 836 132 q 865 119 858 129 q 871 99 872 110 q 860 81 869 88 q 776 35 826 57 q 668 -1 725 13 q 554 -14 611 -14 q 367 24 454 -14 q 213 128 279 61 q 108 287 146 196 q 69 486 69 378 q 108 685 69 594 q 213 844 146 776 q 367 949 279 911 q 554 986 454 986 q 717 961 639 986 q 858 892 796 936 z "},"Ć":{"ha":919,"x_min":69,"x_max":872,"o":"m 858 892 q 871 873 869 883 q 865 851 872 863 q 848 841 858 842 q 828 846 838 840 q 701 910 769 886 q 554 933 632 933 q 388 901 465 933 q 253 808 311 868 q 161 667 194 749 q 128 486 128 585 q 161 306 128 388 q 253 164 194 224 q 388 72 311 104 q 554 39 465 39 q 700 63 632 39 q 826 125 768 86 q 847 131 836 132 q 865 119 858 129 q 871 99 872 110 q 860 81 869 88 q 776 35 826 57 q 668 -1 725 13 q 554 -14 611 -14 q 367 24 454 -14 q 213 128 279 61 q 108 287 146 196 q 69 486 69 378 q 108 685 69 594 q 213 844 146 776 q 367 949 279 911 q 554 986 454 986 q 717 961 639 986 q 858 892 796 936 m 560 1039 q 547 1044 550 1039 q 543 1056 543 1050 q 547 1067 543 1063 q 556 1076 550 1072 l 681 1169 q 694 1177 686 1174 q 711 1181 701 1181 q 735 1170 728 1181 q 743 1147 743 1160 q 738 1127 743 1135 q 724 1114 733 1119 l 589 1049 q 576 1042 583 1046 q 560 1039 568 1039 z "},"Č":{"ha":919,"x_min":69,"x_max":872,"o":"m 858 892 q 871 873 869 883 q 865 851 872 863 q 848 841 858 842 q 828 846 838 840 q 701 910 769 886 q 554 933 632 933 q 388 901 465 933 q 253 808 311 868 q 161 667 194 749 q 128 486 128 585 q 161 306 128 388 q 253 164 194 224 q 388 72 311 104 q 554 39 465 39 q 700 63 632 39 q 826 125 768 86 q 847 131 836 132 q 865 119 858 129 q 871 99 872 110 q 860 81 869 88 q 776 35 826 57 q 668 -1 725 13 q 554 -14 611 -14 q 367 24 454 -14 q 213 128 279 61 q 108 287 146 196 q 69 486 69 378 q 108 685 69 594 q 213 844 146 776 q 367 949 279 911 q 554 986 454 986 q 717 961 639 986 q 858 892 796 936 m 546 1104 l 671 1210 q 685 1220 678 1217 q 697 1224 692 1224 q 709 1219 704 1224 q 714 1207 714 1214 q 712 1199 714 1203 q 706 1190 710 1194 l 593 1071 q 579 1058 588 1061 q 560 1054 571 1054 l 546 1054 q 527 1058 535 1054 q 513 1071 519 1061 l 400 1189 q 394 1197 396 1193 q 392 1206 392 1201 q 397 1217 392 1213 q 408 1222 401 1222 q 435 1208 418 1222 l 561 1110 l 546 1104 z "},"Ç":{"ha":919,"x_min":69,"x_max":872,"o":"m 858 892 q 871 873 869 883 q 865 851 872 863 q 848 841 858 842 q 828 846 838 840 q 701 910 769 886 q 554 933 632 933 q 388 901 465 933 q 253 808 311 868 q 161 667 194 749 q 128 486 128 585 q 161 306 128 388 q 253 164 194 224 q 388 72 311 104 q 554 39 465 39 q 700 63 632 39 q 826 125 768 86 q 847 131 836 132 q 865 119 858 129 q 871 99 872 110 q 860 81 869 88 q 776 35 826 57 q 668 -1 725 13 q 554 -14 611 -14 q 367 24 454 -14 q 213 128 279 61 q 108 287 146 196 q 69 486 69 378 q 108 685 69 594 q 213 844 146 776 q 367 949 279 911 q 554 986 454 986 q 717 961 639 986 q 858 892 796 936 z "},"Ḉ":{"ha":919,"x_min":69,"x_max":872,"o":"m 858 892 q 871 873 869 883 q 865 851 872 863 q 848 841 858 842 q 828 846 838 840 q 701 910 769 886 q 554 933 632 933 q 388 901 465 933 q 253 808 311 868 q 161 667 194 749 q 128 486 128 585 q 161 306 128 388 q 253 164 194 224 q 388 72 311 104 q 554 39 465 39 q 700 63 632 39 q 826 125 768 86 q 847 131 836 132 q 865 119 858 129 q 871 99 872 110 q 860 81 869 88 q 776 35 826 57 q 668 -1 725 13 q 554 -14 611 -14 q 367 24 454 -14 q 213 128 279 61 q 108 287 146 196 q 69 486 69 378 q 108 685 69 594 q 213 844 146 776 q 367 949 279 911 q 554 986 454 986 q 717 961 639 986 q 858 892 796 936 m 560 1039 q 547 1044 550 1039 q 543 1056 543 1050 q 547 1067 543 1063 q 556 1076 550 1072 l 681 1169 q 694 1177 686 1174 q 711 1181 701 1181 q 735 1170 728 1181 q 743 1147 743 1160 q 738 1127 743 1135 q 724 1114 733 1119 l 589 1049 q 576 1042 583 1046 q 560 1039 568 1039 z "},"Ĉ":{"ha":919,"x_min":69,"x_max":872,"o":"m 858 892 q 871 873 869 883 q 865 851 872 863 q 848 841 858 842 q 828 846 838 840 q 701 910 769 886 q 554 933 632 933 q 388 901 465 933 q 253 808 311 868 q 161 667 194 749 q 128 486 128 585 q 161 306 128 388 q 253 164 194 224 q 388 72 311 104 q 554 39 465 39 q 700 63 632 39 q 826 125 768 86 q 847 131 836 132 q 865 119 858 129 q 871 99 872 110 q 860 81 869 88 q 776 35 826 57 q 668 -1 725 13 q 554 -14 611 -14 q 367 24 454 -14 q 213 128 279 61 q 108 287 146 196 q 69 486 69 378 q 108 685 69 594 q 213 844 146 776 q 367 949 279 911 q 554 986 454 986 q 717 961 639 986 q 858 892 796 936 m 560 1186 l 435 1081 q 422 1071 428 1075 q 408 1067 415 1067 q 397 1072 401 1067 q 392 1083 392 1078 q 394 1092 392 1088 q 400 1100 396 1096 l 513 1219 q 528 1232 521 1228 q 546 1236 535 1236 l 560 1236 q 578 1232 571 1236 q 593 1219 585 1228 l 706 1101 q 712 1093 710 1097 q 714 1085 714 1089 q 709 1074 714 1079 q 697 1068 704 1068 q 685 1072 692 1068 q 671 1082 678 1076 l 544 1181 l 560 1186 z "},"Ċ":{"ha":919,"x_min":69,"x_max":872,"o":"m 858 892 q 871 873 869 883 q 865 851 872 863 q 848 841 858 842 q 828 846 838 840 q 701 910 769 886 q 554 933 632 933 q 388 901 465 933 q 253 808 311 868 q 161 667 194 749 q 128 486 128 585 q 161 306 128 388 q 253 164 194 224 q 388 72 311 104 q 554 39 465 39 q 700 63 632 39 q 826 125 768 86 q 847 131 836 132 q 865 119 858 129 q 871 99 872 110 q 860 81 869 88 q 776 35 826 57 q 668 -1 725 13 q 554 -14 611 -14 q 367 24 454 -14 q 213 128 279 61 q 108 287 146 196 q 69 486 69 378 q 108 685 69 594 q 213 844 146 776 q 367 949 279 911 q 554 986 454 986 q 717 961 639 986 q 858 892 796 936 m 528 1083 q 492 1097 506 1083 q 479 1133 479 1111 l 479 1144 q 493 1181 479 1167 q 529 1194 507 1194 q 562 1181 549 1194 q 575 1144 575 1167 l 575 1133 q 562 1097 575 1111 q 528 1083 549 1083 z "},"D":{"ha":1000,"x_min":139,"x_max":931,"o":"m 528 972 q 708 933 632 972 q 834 824 785 893 q 907 668 883 756 q 931 486 931 581 q 888 242 931 353 q 757 66 846 132 q 528 0 668 0 l 167 0 q 147 8 156 0 q 139 28 139 17 l 139 944 q 147 964 139 956 q 167 972 156 972 l 528 972 m 514 56 q 720 113 642 56 q 835 269 799 171 q 872 486 872 367 q 852 649 872 571 q 789 787 832 726 q 678 882 746 847 q 514 917 610 917 l 189 917 l 197 928 l 197 43 l 189 56 l 514 56 z "},"Ǆ":{"ha":1893,"x_min":139,"x_max":1824,"o":"m 528 972 q 708 933 632 972 q 834 824 785 893 q 907 668 883 756 q 931 486 931 581 q 888 242 931 353 q 757 66 846 132 q 528 0 668 0 l 167 0 q 147 8 156 0 q 139 28 139 17 l 139 944 q 147 964 139 956 q 167 972 156 972 l 528 972 m 514 56 q 720 113 642 56 q 835 269 799 171 q 872 486 872 367 q 852 649 872 571 q 789 787 832 726 q 678 882 746 847 q 514 917 610 917 l 189 917 l 197 928 l 197 43 l 189 56 l 514 56 z "},"Ð":{"ha":1000,"x_min":33,"x_max":931,"o":"m 528 972 q 708 933 632 972 q 834 824 785 893 q 907 668 883 756 q 931 486 931 581 q 888 242 931 353 q 757 66 846 132 q 528 0 668 0 l 167 0 q 147 8 156 0 q 139 28 139 17 l 139 944 q 147 964 139 956 q 167 972 156 972 l 528 972 m 514 56 q 720 113 642 56 q 835 269 799 171 q 872 486 872 367 q 852 649 872 571 q 789 787 832 726 q 678 882 746 847 q 514 917 610 917 l 189 917 l 197 928 l 197 43 l 189 56 l 514 56 m 61 461 q 40 467 47 461 q 33 488 33 474 q 40 507 33 500 q 61 514 47 514 l 283 514 q 304 507 297 514 q 311 486 311 500 q 304 467 311 474 q 283 461 297 461 l 61 461 z "},"Ď":{"ha":1000,"x_min":139,"x_max":931,"o":"m 528 972 q 708 933 632 972 q 834 824 785 893 q 907 668 883 756 q 931 486 931 581 q 888 242 931 353 q 757 66 846 132 q 528 0 668 0 l 167 0 q 147 8 156 0 q 139 28 139 17 l 139 944 q 147 964 139 956 q 167 972 156 972 l 528 972 m 514 56 q 720 113 642 56 q 835 269 799 171 q 872 486 872 367 q 852 649 872 571 q 789 787 832 726 q 678 882 746 847 q 514 917 610 917 l 189 917 l 197 928 l 197 43 l 189 56 l 514 56 m 426 1104 l 551 1210 q 565 1220 558 1217 q 578 1224 572 1224 q 590 1219 585 1224 q 594 1207 594 1214 q 592 1199 594 1203 q 586 1190 590 1194 l 474 1071 q 460 1058 468 1061 q 440 1054 451 1054 l 426 1054 q 408 1058 415 1054 q 393 1071 400 1061 l 281 1189 q 274 1197 276 1193 q 272 1206 272 1201 q 277 1217 272 1213 q 289 1222 282 1222 q 315 1208 299 1222 l 442 1110 l 426 1104 z "},"Đ":{"ha":1000,"x_min":33,"x_max":931,"o":"m 528 972 q 708 933 632 972 q 834 824 785 893 q 907 668 883 756 q 931 486 931 581 q 888 242 931 353 q 757 66 846 132 q 528 0 668 0 l 167 0 q 147 8 156 0 q 139 28 139 17 l 139 944 q 147 964 139 956 q 167 972 156 972 l 528 972 m 514 56 q 720 113 642 56 q 835 269 799 171 q 872 486 872 367 q 852 649 872 571 q 789 787 832 726 q 678 882 746 847 q 514 917 610 917 l 189 917 l 197 928 l 197 43 l 189 56 l 514 56 m 61 461 q 40 467 47 461 q 33 488 33 474 q 40 507 33 500 q 61 514 47 514 l 283 514 q 304 507 297 514 q 311 486 311 500 q 304 467 311 474 q 283 461 297 461 l 61 461 z "},"Ḍ":{"ha":1000,"x_min":139,"x_max":931,"o":"m 528 972 q 708 933 632 972 q 834 824 785 893 q 907 668 883 756 q 931 486 931 581 q 888 242 931 353 q 757 66 846 132 q 528 0 668 0 l 167 0 q 147 8 156 0 q 139 28 139 17 l 139 944 q 147 964 139 956 q 167 972 156 972 l 528 972 m 514 56 q 720 113 642 56 q 835 269 799 171 q 872 486 872 367 q 852 649 872 571 q 789 787 832 726 q 678 882 746 847 q 514 917 610 917 l 189 917 l 197 928 l 197 43 l 189 56 l 514 56 m 444 -190 q 409 -176 422 -190 q 396 -140 396 -162 l 396 -129 q 410 -93 396 -107 q 446 -79 424 -79 q 478 -93 465 -79 q 492 -129 492 -107 l 492 -140 q 478 -176 492 -162 q 444 -190 465 -190 z "},"Ḏ":{"ha":1000,"x_min":139,"x_max":931,"o":"m 528 972 q 708 933 632 972 q 834 824 785 893 q 907 668 883 756 q 931 486 931 581 q 888 242 931 353 q 757 66 846 132 q 528 0 668 0 l 167 0 q 147 8 156 0 q 139 28 139 17 l 139 944 q 147 964 139 956 q 167 972 156 972 l 528 972 m 514 56 q 720 113 642 56 q 835 269 799 171 q 872 486 872 367 q 852 649 872 571 q 789 787 832 726 q 678 882 746 847 q 514 917 610 917 l 189 917 l 197 928 l 197 43 l 189 56 l 514 56 m 313 -162 q 285 -137 285 -162 q 313 -111 285 -111 l 590 -111 q 618 -137 618 -111 q 590 -162 618 -162 l 313 -162 z "},"ǲ":{"ha":1661,"x_min":139,"x_max":1592,"o":"m 528 972 q 708 933 632 972 q 834 824 785 893 q 907 668 883 756 q 931 486 931 581 q 888 242 931 353 q 757 66 846 132 q 528 0 668 0 l 167 0 q 147 8 156 0 q 139 28 139 17 l 139 944 q 147 964 139 956 q 167 972 156 972 l 528 972 m 514 56 q 720 113 642 56 q 835 269 799 171 q 872 486 872 367 q 852 649 872 571 q 789 787 832 726 q 678 882 746 847 q 514 917 610 917 l 189 917 l 197 928 l 197 43 l 189 56 l 514 56 m 1550 53 q 1569 44 1561 53 q 1578 26 1578 36 q 1569 8 1578 15 q 1550 0 1561 0 l 1097 0 q 1076 10 1083 0 q 1068 28 1068 21 q 1070 38 1068 33 q 1075 46 1072 42 l 1522 674 l 1529 663 l 1139 663 q 1119 671 1128 663 q 1111 689 1111 679 q 1119 708 1111 700 q 1139 715 1128 715 l 1564 715 q 1583 707 1575 715 q 1592 688 1590 699 q 1590 677 1592 682 q 1585 668 1588 672 l 1140 46 l 1119 53 l 1550 53 z "},"ǅ":{"ha":1663,"x_min":139,"x_max":1593,"o":"m 528 972 q 708 933 632 972 q 834 824 785 893 q 907 668 883 756 q 931 486 931 581 q 888 242 931 353 q 757 66 846 132 q 528 0 668 0 l 167 0 q 147 8 156 0 q 139 28 139 17 l 139 944 q 147 964 139 956 q 167 972 156 972 l 528 972 m 514 56 q 720 113 642 56 q 835 269 799 171 q 872 486 872 367 q 852 649 872 571 q 789 787 832 726 q 678 882 746 847 q 514 917 610 917 l 189 917 l 197 928 l 197 43 l 189 56 l 514 56 z "},"E":{"ha":788,"x_min":139,"x_max":718,"o":"m 167 972 l 690 972 q 710 964 701 972 q 718 944 718 956 q 710 924 718 932 q 690 917 701 917 l 183 917 l 197 940 l 197 510 l 181 529 l 628 529 q 647 521 639 529 q 656 501 656 513 q 647 481 656 489 q 628 474 639 474 l 183 474 l 197 489 l 197 49 l 192 56 l 690 56 q 710 47 701 56 q 718 28 718 39 q 710 8 718 15 q 690 0 701 0 l 167 0 q 147 8 156 0 q 139 28 139 17 l 139 944 q 147 964 139 956 q 167 972 156 972 z "},"É":{"ha":788,"x_min":139,"x_max":718,"o":"m 167 972 l 690 972 q 710 964 701 972 q 718 944 718 956 q 710 924 718 932 q 690 917 701 917 l 183 917 l 197 940 l 197 510 l 181 529 l 628 529 q 647 521 639 529 q 656 501 656 513 q 647 481 656 489 q 628 474 639 474 l 183 474 l 197 489 l 197 49 l 192 56 l 690 56 q 710 47 701 56 q 718 28 718 39 q 710 8 718 15 q 690 0 701 0 l 167 0 q 147 8 156 0 q 139 28 139 17 l 139 944 q 147 964 139 956 q 167 972 156 972 m 453 1039 q 440 1044 443 1039 q 436 1056 436 1050 q 440 1067 436 1063 q 449 1076 443 1072 l 574 1169 q 587 1177 579 1174 q 604 1181 594 1181 q 628 1170 621 1181 q 636 1147 636 1160 q 631 1127 636 1135 q 617 1114 626 1119 l 482 1049 q 469 1042 476 1046 q 453 1039 461 1039 z "},"Ĕ":{"ha":788,"x_min":139,"x_max":718,"o":"m 167 972 l 690 972 q 710 964 701 972 q 718 944 718 956 q 710 924 718 932 q 690 917 701 917 l 183 917 l 197 940 l 197 510 l 181 529 l 628 529 q 647 521 639 529 q 656 501 656 513 q 647 481 656 489 q 628 474 639 474 l 183 474 l 197 489 l 197 49 l 192 56 l 690 56 q 710 47 701 56 q 718 28 718 39 q 710 8 718 15 q 690 0 701 0 l 167 0 q 147 8 156 0 q 139 28 139 17 l 139 944 q 147 964 139 956 q 167 972 156 972 m 447 1083 q 331 1121 378 1083 q 267 1226 283 1158 q 269 1249 264 1240 q 288 1257 274 1257 q 306 1251 301 1257 q 315 1233 310 1246 q 367 1162 335 1186 q 447 1138 400 1138 q 578 1233 540 1138 q 588 1250 582 1244 q 606 1256 594 1256 q 626 1249 621 1256 q 628 1226 631 1242 q 564 1121 611 1158 q 447 1083 517 1083 z "},"Ě":{"ha":788,"x_min":139,"x_max":718,"o":"m 167 972 l 690 972 q 710 964 701 972 q 718 944 718 956 q 710 924 718 932 q 690 917 701 917 l 183 917 l 197 940 l 197 510 l 181 529 l 628 529 q 647 521 639 529 q 656 501 656 513 q 647 481 656 489 q 628 474 639 474 l 183 474 l 197 489 l 197 49 l 192 56 l 690 56 q 710 47 701 56 q 718 28 718 39 q 710 8 718 15 q 690 0 701 0 l 167 0 q 147 8 156 0 q 139 28 139 17 l 139 944 q 147 964 139 956 q 167 972 156 972 m 439 1104 l 564 1210 q 578 1220 571 1217 q 590 1224 585 1224 q 602 1219 597 1224 q 607 1207 607 1214 q 605 1199 607 1203 q 599 1190 603 1194 l 486 1071 q 472 1058 481 1061 q 453 1054 464 1054 l 439 1054 q 420 1058 428 1054 q 406 1071 413 1061 l 293 1189 q 287 1197 289 1193 q 285 1206 285 1201 q 290 1217 285 1213 q 301 1222 294 1222 q 328 1208 311 1222 l 454 1110 l 439 1104 z "},"Ḝ":{"ha":788,"x_min":139,"x_max":718,"o":"m 167 972 l 690 972 q 710 964 701 972 q 718 944 718 956 q 710 924 718 932 q 690 917 701 917 l 183 917 l 197 940 l 197 510 l 181 529 l 628 529 q 647 521 639 529 q 656 501 656 513 q 647 481 656 489 q 628 474 639 474 l 183 474 l 197 489 l 197 49 l 192 56 l 690 56 q 710 47 701 56 q 718 28 718 39 q 710 8 718 15 q 690 0 701 0 l 167 0 q 147 8 156 0 q 139 28 139 17 l 139 944 q 147 964 139 956 q 167 972 156 972 m 447 1083 q 331 1121 378 1083 q 267 1226 283 1158 q 269 1249 264 1240 q 288 1257 274 1257 q 306 1251 301 1257 q 315 1233 310 1246 q 367 1162 335 1186 q 447 1138 400 1138 q 578 1233 540 1138 q 588 1250 582 1244 q 606 1256 594 1256 q 626 1249 621 1256 q 628 1226 631 1242 q 564 1121 611 1158 q 447 1083 517 1083 z "},"Ê":{"ha":788,"x_min":139,"x_max":718,"o":"m 167 972 l 690 972 q 710 964 701 972 q 718 944 718 956 q 710 924 718 932 q 690 917 701 917 l 183 917 l 197 940 l 197 510 l 181 529 l 628 529 q 647 521 639 529 q 656 501 656 513 q 647 481 656 489 q 628 474 639 474 l 183 474 l 197 489 l 197 49 l 192 56 l 690 56 q 710 47 701 56 q 718 28 718 39 q 710 8 718 15 q 690 0 701 0 l 167 0 q 147 8 156 0 q 139 28 139 17 l 139 944 q 147 964 139 956 q 167 972 156 972 m 453 1186 l 328 1081 q 315 1071 321 1075 q 301 1067 308 1067 q 290 1072 294 1067 q 285 1083 285 1078 q 287 1092 285 1088 q 293 1100 289 1096 l 406 1219 q 421 1232 414 1228 q 439 1236 428 1236 l 453 1236 q 471 1232 464 1236 q 486 1219 478 1228 l 599 1101 q 605 1093 603 1097 q 607 1085 607 1089 q 602 1074 607 1079 q 590 1068 597 1068 q 578 1072 585 1068 q 564 1082 571 1076 l 438 1181 l 453 1186 z "},"Ế":{"ha":788,"x_min":139,"x_max":821,"o":"m 167 972 l 690 972 q 710 964 701 972 q 718 944 718 956 q 710 924 718 932 q 690 917 701 917 l 183 917 l 197 940 l 197 510 l 181 529 l 628 529 q 647 521 639 529 q 656 501 656 513 q 647 481 656 489 q 628 474 639 474 l 183 474 l 197 489 l 197 49 l 192 56 l 690 56 q 710 47 701 56 q 718 28 718 39 q 710 8 718 15 q 690 0 701 0 l 167 0 q 147 8 156 0 q 139 28 139 17 l 139 944 q 147 964 139 956 q 167 972 156 972 m 453 1186 l 328 1081 q 315 1071 321 1075 q 301 1067 308 1067 q 290 1072 294 1067 q 285 1083 285 1078 q 287 1092 285 1088 q 293 1100 289 1096 l 406 1219 q 421 1232 414 1228 q 439 1236 428 1236 l 453 1236 q 471 1232 464 1236 q 486 1219 478 1228 l 599 1101 q 605 1093 603 1097 q 607 1085 607 1089 q 602 1074 607 1079 q 590 1068 597 1068 q 578 1072 585 1068 q 564 1082 571 1076 l 438 1181 l 453 1186 m 638 1140 q 624 1146 628 1140 q 621 1157 621 1151 q 624 1169 621 1164 q 633 1178 628 1174 l 758 1271 q 772 1278 764 1275 q 789 1282 779 1282 q 813 1272 806 1282 q 821 1249 821 1261 q 816 1228 821 1236 q 801 1215 811 1221 l 667 1150 q 653 1144 661 1147 q 638 1140 646 1140 z "},"Ệ":{"ha":788,"x_min":139,"x_max":718,"o":"m 167 972 l 690 972 q 710 964 701 972 q 718 944 718 956 q 710 924 718 932 q 690 917 701 917 l 183 917 l 197 940 l 197 510 l 181 529 l 628 529 q 647 521 639 529 q 656 501 656 513 q 647 481 656 489 q 628 474 639 474 l 183 474 l 197 489 l 197 49 l 192 56 l 690 56 q 710 47 701 56 q 718 28 718 39 q 710 8 718 15 q 690 0 701 0 l 167 0 q 147 8 156 0 q 139 28 139 17 l 139 944 q 147 964 139 956 q 167 972 156 972 m 444 -190 q 409 -176 422 -190 q 396 -140 396 -162 l 396 -129 q 410 -93 396 -107 q 446 -79 424 -79 q 478 -93 465 -79 q 492 -129 492 -107 l 492 -140 q 478 -176 492 -162 q 444 -190 465 -190 m 453 1186 l 328 1081 q 315 1071 321 1075 q 301 1067 308 1067 q 290 1072 294 1067 q 285 1083 285 1078 q 287 1092 285 1088 q 293 1100 289 1096 l 406 1219 q 421 1232 414 1228 q 439 1236 428 1236 l 453 1236 q 471 1232 464 1236 q 486 1219 478 1228 l 599 1101 q 605 1093 603 1097 q 607 1085 607 1089 q 602 1074 607 1079 q 590 1068 597 1068 q 578 1072 585 1068 q 564 1082 571 1076 l 438 1181 l 453 1186 z "},"Ề":{"ha":788,"x_min":139,"x_max":718,"o":"m 167 972 l 690 972 q 710 964 701 972 q 718 944 718 956 q 710 924 718 932 q 690 917 701 917 l 183 917 l 197 940 l 197 510 l 181 529 l 628 529 q 647 521 639 529 q 656 501 656 513 q 647 481 656 489 q 628 474 639 474 l 183 474 l 197 489 l 197 49 l 192 56 l 690 56 q 710 47 701 56 q 718 28 718 39 q 710 8 718 15 q 690 0 701 0 l 167 0 q 147 8 156 0 q 139 28 139 17 l 139 944 q 147 964 139 956 q 167 972 156 972 m 453 1186 l 328 1081 q 315 1071 321 1075 q 301 1067 308 1067 q 290 1072 294 1067 q 285 1083 285 1078 q 287 1092 285 1088 q 293 1100 289 1096 l 406 1219 q 421 1232 414 1228 q 439 1236 428 1236 l 453 1236 q 471 1232 464 1236 q 486 1219 478 1228 l 599 1101 q 605 1093 603 1097 q 607 1085 607 1089 q 602 1074 607 1079 q 590 1068 597 1068 q 578 1072 585 1068 q 564 1082 571 1076 l 438 1181 l 453 1186 m 606 1229 q 590 1233 597 1229 q 576 1239 583 1236 l 442 1304 q 422 1338 422 1315 q 430 1360 422 1350 q 454 1371 438 1371 q 472 1367 464 1371 q 485 1360 479 1364 l 610 1267 q 619 1258 615 1263 q 622 1246 622 1253 q 619 1235 622 1240 q 606 1229 615 1229 z "},"Ể":{"ha":788,"x_min":139,"x_max":718,"o":"m 167 972 l 690 972 q 710 964 701 972 q 718 944 718 956 q 710 924 718 932 q 690 917 701 917 l 183 917 l 197 940 l 197 510 l 181 529 l 628 529 q 647 521 639 529 q 656 501 656 513 q 647 481 656 489 q 628 474 639 474 l 183 474 l 197 489 l 197 49 l 192 56 l 690 56 q 710 47 701 56 q 718 28 718 39 q 710 8 718 15 q 690 0 701 0 l 167 0 q 147 8 156 0 q 139 28 139 17 l 139 944 q 147 964 139 956 q 167 972 156 972 m 453 1186 l 328 1081 q 315 1071 321 1075 q 301 1067 308 1067 q 290 1072 294 1067 q 285 1083 285 1078 q 287 1092 285 1088 q 293 1100 289 1096 l 406 1219 q 421 1232 414 1228 q 439 1236 428 1236 l 453 1236 q 471 1232 464 1236 q 486 1219 478 1228 l 599 1101 q 605 1093 603 1097 q 607 1085 607 1089 q 602 1074 607 1079 q 590 1068 597 1068 q 578 1072 585 1068 q 564 1082 571 1076 l 438 1181 l 453 1186 m 350 1506 q 396 1538 369 1525 q 451 1550 422 1550 q 513 1534 490 1550 q 544 1496 535 1518 q 554 1454 554 1474 q 540 1410 554 1429 q 501 1367 525 1390 q 493 1354 496 1361 q 489 1335 490 1347 q 481 1320 488 1325 q 465 1315 475 1315 q 449 1322 454 1315 q 443 1338 443 1329 q 446 1364 443 1349 q 463 1393 449 1379 q 494 1425 482 1413 q 506 1456 506 1438 q 490 1488 506 1475 q 454 1500 475 1500 q 418 1492 435 1500 q 389 1474 401 1483 q 366 1463 378 1464 q 346 1471 354 1461 q 340 1487 340 1478 q 350 1506 340 1496 z "},"Ễ":{"ha":788,"x_min":139,"x_max":718,"o":"m 167 972 l 690 972 q 710 964 701 972 q 718 944 718 956 q 710 924 718 932 q 690 917 701 917 l 183 917 l 197 940 l 197 510 l 181 529 l 628 529 q 647 521 639 529 q 656 501 656 513 q 647 481 656 489 q 628 474 639 474 l 183 474 l 197 489 l 197 49 l 192 56 l 690 56 q 710 47 701 56 q 718 28 718 39 q 710 8 718 15 q 690 0 701 0 l 167 0 q 147 8 156 0 q 139 28 139 17 l 139 944 q 147 964 139 956 q 167 972 156 972 m 453 1186 l 328 1081 q 315 1071 321 1075 q 301 1067 308 1067 q 290 1072 294 1067 q 285 1083 285 1078 q 287 1092 285 1088 q 293 1100 289 1096 l 406 1219 q 421 1232 414 1228 q 439 1236 428 1236 l 453 1236 q 471 1232 464 1236 q 486 1219 478 1228 l 599 1101 q 605 1093 603 1097 q 607 1085 607 1089 q 602 1074 607 1079 q 590 1068 597 1068 q 578 1072 585 1068 q 564 1082 571 1076 l 438 1181 l 453 1186 m 271 1246 q 253 1258 257 1246 q 254 1294 249 1271 q 299 1360 267 1340 q 364 1379 331 1379 q 426 1359 393 1379 q 492 1319 460 1339 q 547 1300 524 1300 q 581 1317 568 1300 q 599 1363 594 1335 q 606 1381 600 1374 q 624 1388 613 1388 q 644 1374 640 1388 q 643 1340 647 1361 q 620 1287 636 1307 q 583 1258 604 1267 q 536 1250 561 1250 q 477 1269 510 1250 q 413 1308 444 1289 q 358 1326 382 1326 q 322 1312 338 1326 q 296 1265 306 1297 q 285 1251 293 1256 q 271 1246 278 1246 z "},"Ȅ":{"ha":788,"x_min":139,"x_max":718,"o":"m 167 972 l 690 972 q 710 964 701 972 q 718 944 718 956 q 710 924 718 932 q 690 917 701 917 l 183 917 l 197 940 l 197 510 l 181 529 l 628 529 q 647 521 639 529 q 656 501 656 513 q 647 481 656 489 q 628 474 639 474 l 183 474 l 197 489 l 197 49 l 192 56 l 690 56 q 710 47 701 56 q 718 28 718 39 q 710 8 718 15 q 690 0 701 0 l 167 0 q 147 8 156 0 q 139 28 139 17 l 139 944 q 147 964 139 956 q 167 972 156 972 m 403 1050 q 388 1053 394 1050 q 374 1060 381 1057 l 239 1125 q 219 1158 219 1136 q 227 1181 219 1171 q 251 1192 235 1192 q 269 1188 261 1192 q 282 1181 276 1185 l 407 1088 q 416 1078 413 1083 q 419 1067 419 1074 q 416 1056 419 1061 q 403 1050 413 1050 m 618 1044 q 603 1048 610 1044 q 589 1054 596 1051 l 454 1119 q 435 1153 435 1131 q 442 1176 435 1165 q 467 1186 450 1186 q 484 1183 476 1186 q 497 1175 492 1179 l 622 1082 q 631 1073 628 1078 q 635 1061 635 1068 q 631 1050 635 1056 q 618 1044 628 1044 z "},"Ë":{"ha":788,"x_min":139,"x_max":718,"o":"m 167 972 l 690 972 q 710 964 701 972 q 718 944 718 956 q 710 924 718 932 q 690 917 701 917 l 183 917 l 197 940 l 197 510 l 181 529 l 628 529 q 647 521 639 529 q 656 501 656 513 q 647 481 656 489 q 628 474 639 474 l 183 474 l 197 489 l 197 49 l 192 56 l 690 56 q 710 47 701 56 q 718 28 718 39 q 710 8 718 15 q 690 0 701 0 l 167 0 q 147 8 156 0 q 139 28 139 17 l 139 944 q 147 964 139 956 q 167 972 156 972 m 561 1083 q 526 1097 539 1083 q 513 1133 513 1111 l 513 1144 q 526 1181 513 1167 q 563 1194 540 1194 q 595 1181 582 1194 q 608 1144 608 1167 l 608 1133 q 595 1097 608 1111 q 561 1083 582 1083 m 335 1083 q 299 1097 313 1083 q 286 1133 286 1111 l 286 1144 q 300 1181 286 1167 q 336 1194 314 1194 q 369 1181 356 1194 q 382 1144 382 1167 l 382 1133 q 369 1097 382 1111 q 335 1083 356 1083 z "},"Ė":{"ha":788,"x_min":139,"x_max":718,"o":"m 167 972 l 690 972 q 710 964 701 972 q 718 944 718 956 q 710 924 718 932 q 690 917 701 917 l 183 917 l 197 940 l 197 510 l 181 529 l 628 529 q 647 521 639 529 q 656 501 656 513 q 647 481 656 489 q 628 474 639 474 l 183 474 l 197 489 l 197 49 l 192 56 l 690 56 q 710 47 701 56 q 718 28 718 39 q 710 8 718 15 q 690 0 701 0 l 167 0 q 147 8 156 0 q 139 28 139 17 l 139 944 q 147 964 139 956 q 167 972 156 972 m 447 1083 q 412 1097 425 1083 q 399 1133 399 1111 l 399 1144 q 413 1181 399 1167 q 449 1194 426 1194 q 481 1181 468 1194 q 494 1144 494 1167 l 494 1133 q 481 1097 494 1111 q 447 1083 468 1083 z "},"Ẹ":{"ha":788,"x_min":139,"x_max":718,"o":"m 167 972 l 690 972 q 710 964 701 972 q 718 944 718 956 q 710 924 718 932 q 690 917 701 917 l 183 917 l 197 940 l 197 510 l 181 529 l 628 529 q 647 521 639 529 q 656 501 656 513 q 647 481 656 489 q 628 474 639 474 l 183 474 l 197 489 l 197 49 l 192 56 l 690 56 q 710 47 701 56 q 718 28 718 39 q 710 8 718 15 q 690 0 701 0 l 167 0 q 147 8 156 0 q 139 28 139 17 l 139 944 q 147 964 139 956 q 167 972 156 972 m 444 -190 q 409 -176 422 -190 q 396 -140 396 -162 l 396 -129 q 410 -93 396 -107 q 446 -79 424 -79 q 478 -93 465 -79 q 492 -129 492 -107 l 492 -140 q 478 -176 492 -162 q 444 -190 465 -190 z "},"È":{"ha":788,"x_min":139,"x_max":718,"o":"m 167 972 l 690 972 q 710 964 701 972 q 718 944 718 956 q 710 924 718 932 q 690 917 701 917 l 183 917 l 197 940 l 197 510 l 181 529 l 628 529 q 647 521 639 529 q 656 501 656 513 q 647 481 656 489 q 628 474 639 474 l 183 474 l 197 489 l 197 49 l 192 56 l 690 56 q 710 47 701 56 q 718 28 718 39 q 710 8 718 15 q 690 0 701 0 l 167 0 q 147 8 156 0 q 139 28 139 17 l 139 944 q 147 964 139 956 q 167 972 156 972 m 447 1039 q 432 1042 439 1039 q 418 1049 425 1046 l 283 1114 q 264 1147 264 1125 q 272 1170 264 1160 q 296 1181 279 1181 q 313 1177 306 1181 q 326 1169 321 1174 l 451 1076 q 460 1067 457 1072 q 464 1056 464 1063 q 460 1044 464 1050 q 447 1039 457 1039 z "},"Ẻ":{"ha":788,"x_min":139,"x_max":718,"o":"m 167 972 l 690 972 q 710 964 701 972 q 718 944 718 956 q 710 924 718 932 q 690 917 701 917 l 183 917 l 197 940 l 197 510 l 181 529 l 628 529 q 647 521 639 529 q 656 501 656 513 q 647 481 656 489 q 628 474 639 474 l 183 474 l 197 489 l 197 49 l 192 56 l 690 56 q 710 47 701 56 q 718 28 718 39 q 710 8 718 15 q 690 0 701 0 l 167 0 q 147 8 156 0 q 139 28 139 17 l 139 944 q 147 964 139 956 q 167 972 156 972 m 350 1242 q 396 1274 369 1261 q 451 1286 422 1286 q 513 1270 490 1286 q 544 1232 535 1254 q 554 1190 554 1210 q 540 1146 554 1165 q 501 1103 525 1126 q 493 1090 496 1097 q 489 1071 490 1083 q 481 1056 488 1061 q 465 1051 475 1051 q 449 1058 454 1051 q 443 1074 443 1065 q 446 1100 443 1085 q 463 1129 449 1115 q 494 1161 482 1149 q 506 1192 506 1174 q 490 1224 506 1211 q 454 1236 475 1236 q 418 1228 435 1236 q 389 1210 401 1219 q 366 1199 378 1200 q 346 1207 354 1197 q 340 1223 340 1214 q 350 1242 340 1232 z "},"Ȇ":{"ha":788,"x_min":139,"x_max":718,"o":"m 167 972 l 690 972 q 710 964 701 972 q 718 944 718 956 q 710 924 718 932 q 690 917 701 917 l 183 917 l 197 940 l 197 510 l 181 529 l 628 529 q 647 521 639 529 q 656 501 656 513 q 647 481 656 489 q 628 474 639 474 l 183 474 l 197 489 l 197 49 l 192 56 l 690 56 q 710 47 701 56 q 718 28 718 39 q 710 8 718 15 q 690 0 701 0 l 167 0 q 147 8 156 0 q 139 28 139 17 l 139 944 q 147 964 139 956 q 167 972 156 972 m 444 1172 q 529 1153 492 1172 q 590 1101 567 1133 q 613 1033 613 1069 q 605 1016 613 1024 q 586 1008 597 1008 q 566 1016 572 1008 q 557 1036 560 1024 q 518 1098 550 1076 q 444 1119 486 1119 q 371 1098 403 1119 q 332 1036 339 1076 q 324 1016 331 1024 q 303 1008 317 1008 q 284 1016 292 1008 q 276 1033 276 1024 q 299 1101 276 1069 q 360 1153 322 1133 q 444 1172 399 1172 z "},"Ē":{"ha":788,"x_min":139,"x_max":718,"o":"m 167 972 l 690 972 q 710 964 701 972 q 718 944 718 956 q 710 924 718 932 q 690 917 701 917 l 183 917 l 197 940 l 197 510 l 181 529 l 628 529 q 647 521 639 529 q 656 501 656 513 q 647 481 656 489 q 628 474 639 474 l 183 474 l 197 489 l 197 49 l 192 56 l 690 56 q 710 47 701 56 q 718 28 718 39 q 710 8 718 15 q 690 0 701 0 l 167 0 q 147 8 156 0 q 139 28 139 17 l 139 944 q 147 964 139 956 q 167 972 156 972 m 272 1111 q 242 1136 242 1111 q 272 1164 242 1164 l 633 1164 q 664 1136 664 1164 q 633 1111 664 1111 l 272 1111 z "},"Ḗ":{"ha":788,"x_min":139,"x_max":718,"o":"m 167 972 l 690 972 q 710 964 701 972 q 718 944 718 956 q 710 924 718 932 q 690 917 701 917 l 183 917 l 197 940 l 197 510 l 181 529 l 628 529 q 647 521 639 529 q 656 501 656 513 q 647 481 656 489 q 628 474 639 474 l 183 474 l 197 489 l 197 49 l 192 56 l 690 56 q 710 47 701 56 q 718 28 718 39 q 710 8 718 15 q 690 0 701 0 l 167 0 q 147 8 156 0 q 139 28 139 17 l 139 944 q 147 964 139 956 q 167 972 156 972 m 272 1111 q 242 1136 242 1111 q 272 1164 242 1164 l 633 1164 q 664 1136 664 1164 q 633 1111 664 1111 l 272 1111 m 453 1246 q 440 1251 443 1246 q 436 1263 436 1257 q 440 1274 436 1269 q 449 1283 443 1279 l 574 1376 q 587 1384 579 1381 q 604 1388 594 1388 q 628 1377 621 1388 q 636 1354 636 1367 q 631 1334 636 1342 q 617 1321 626 1326 l 482 1256 q 469 1249 476 1253 q 453 1246 461 1246 z "},"Ḕ":{"ha":788,"x_min":139,"x_max":718,"o":"m 167 972 l 690 972 q 710 964 701 972 q 718 944 718 956 q 710 924 718 932 q 690 917 701 917 l 183 917 l 197 940 l 197 510 l 181 529 l 628 529 q 647 521 639 529 q 656 501 656 513 q 647 481 656 489 q 628 474 639 474 l 183 474 l 197 489 l 197 49 l 192 56 l 690 56 q 710 47 701 56 q 718 28 718 39 q 710 8 718 15 q 690 0 701 0 l 167 0 q 147 8 156 0 q 139 28 139 17 l 139 944 q 147 964 139 956 q 167 972 156 972 m 272 1111 q 242 1136 242 1111 q 272 1164 242 1164 l 633 1164 q 664 1136 664 1164 q 633 1111 664 1111 l 272 1111 m 447 1246 q 432 1249 439 1246 q 418 1256 425 1253 l 283 1321 q 264 1354 264 1332 q 272 1377 264 1367 q 296 1388 279 1388 q 313 1384 306 1388 q 326 1376 321 1381 l 451 1283 q 460 1274 457 1279 q 464 1263 464 1269 q 460 1251 464 1257 q 447 1246 457 1246 z "},"Ę":{"ha":807,"x_min":139,"x_max":738,"o":"m 638 -257 q 553 -222 592 -257 q 515 -129 515 -187 q 526 -72 515 -97 q 553 -28 536 -46 q 592 3 571 -10 q 635 24 613 17 l 646 0 l 167 0 q 147 8 156 0 q 139 28 139 17 l 139 944 q 147 964 139 956 q 167 972 156 972 l 690 972 q 710 964 701 972 q 718 944 718 956 q 710 924 718 932 q 690 917 701 917 l 183 917 l 197 940 l 197 510 l 181 529 l 628 529 q 647 521 639 529 q 656 501 656 513 q 647 481 656 489 q 628 474 639 474 l 183 474 l 197 489 l 197 49 l 192 56 l 690 56 q 710 47 701 56 q 718 28 718 39 q 709 8 718 15 q 683 -1 700 0 q 632 -19 658 -3 q 587 -60 606 -35 q 568 -118 568 -86 q 592 -183 568 -160 q 644 -206 615 -206 q 689 -190 682 -206 q 701 -175 694 -181 q 718 -169 708 -169 q 733 -176 728 -169 q 738 -189 738 -182 q 724 -223 738 -207 q 689 -248 711 -239 q 638 -257 667 -257 z "},"Ẽ":{"ha":788,"x_min":139,"x_max":718,"o":"m 167 972 l 690 972 q 710 964 701 972 q 718 944 718 956 q 710 924 718 932 q 690 917 701 917 l 183 917 l 197 940 l 197 510 l 181 529 l 628 529 q 647 521 639 529 q 656 501 656 513 q 647 481 656 489 q 628 474 639 474 l 183 474 l 197 489 l 197 49 l 192 56 l 690 56 q 710 47 701 56 q 718 28 718 39 q 710 8 718 15 q 690 0 701 0 l 167 0 q 147 8 156 0 q 139 28 139 17 l 139 944 q 147 964 139 956 q 167 972 156 972 m 271 1086 q 253 1099 257 1086 q 254 1135 249 1111 q 299 1200 267 1181 q 364 1219 331 1219 q 426 1199 393 1219 q 492 1160 460 1179 q 547 1140 524 1140 q 581 1158 568 1140 q 599 1203 594 1175 q 606 1221 600 1214 q 624 1228 613 1228 q 644 1215 640 1228 q 643 1181 647 1201 q 620 1127 636 1147 q 583 1099 604 1107 q 536 1090 561 1090 q 477 1110 510 1090 q 413 1148 444 1129 q 358 1167 382 1167 q 322 1152 338 1167 q 296 1106 306 1138 q 285 1091 293 1096 q 271 1086 278 1086 z "},"F":{"ha":788,"x_min":139,"x_max":718,"o":"m 167 0 q 147 8 154 0 q 139 28 139 17 l 139 944 q 147 964 139 956 q 167 972 156 972 l 690 972 q 710 964 701 972 q 718 944 718 956 q 710 924 718 932 q 690 917 701 917 l 190 917 l 194 922 l 194 522 l 189 533 l 628 533 q 647 525 639 533 q 656 506 656 517 q 647 485 656 493 q 628 478 639 478 l 186 478 l 194 489 l 194 28 q 187 8 194 17 q 167 0 179 0 z "},"G":{"ha":964,"x_min":69,"x_max":874,"o":"m 568 -14 q 369 23 460 -14 q 210 127 278 60 q 106 286 143 194 q 69 486 69 378 q 106 686 69 594 q 210 845 143 778 q 369 949 278 913 q 568 986 460 986 q 715 967 644 986 q 842 911 786 949 q 851 901 849 907 q 854 888 854 894 q 844 867 854 874 q 828 860 835 860 q 818 862 822 860 q 810 865 814 864 q 697 913 758 894 q 568 931 636 931 q 340 873 439 931 q 184 715 240 815 q 128 486 128 615 q 184 256 128 357 q 340 99 240 156 q 568 42 439 42 q 705 63 638 42 q 824 119 772 85 l 818 94 l 818 442 l 838 424 l 568 424 q 549 432 557 424 q 540 451 540 440 q 549 472 540 464 q 568 479 557 479 l 846 479 q 866 471 858 479 q 874 451 874 463 l 874 103 q 871 90 874 97 q 861 78 868 83 q 724 11 800 36 q 568 -14 649 -14 z "},"Ğ":{"ha":964,"x_min":69,"x_max":874,"o":"m 568 -14 q 369 23 460 -14 q 210 127 278 60 q 106 286 143 194 q 69 486 69 378 q 106 686 69 594 q 210 845 143 778 q 369 949 278 913 q 568 986 460 986 q 715 967 644 986 q 842 911 786 949 q 851 901 849 907 q 854 888 854 894 q 844 867 854 874 q 828 860 835 860 q 818 862 822 860 q 810 865 814 864 q 697 913 758 894 q 568 931 636 931 q 340 873 439 931 q 184 715 240 815 q 128 486 128 615 q 184 256 128 357 q 340 99 240 156 q 568 42 439 42 q 705 63 638 42 q 824 119 772 85 l 818 94 l 818 442 l 838 424 l 568 424 q 549 432 557 424 q 540 451 540 440 q 549 472 540 464 q 568 479 557 479 l 846 479 q 866 471 858 479 q 874 451 874 463 l 874 103 q 871 90 874 97 q 861 78 868 83 q 724 11 800 36 q 568 -14 649 -14 m 524 1083 q 407 1121 454 1083 q 343 1226 360 1158 q 345 1249 340 1240 q 364 1257 350 1257 q 382 1251 378 1257 q 392 1233 386 1246 q 444 1162 411 1186 q 524 1138 476 1138 q 654 1233 617 1138 q 665 1250 658 1244 q 682 1256 671 1256 q 702 1249 697 1256 q 704 1226 707 1242 q 640 1121 688 1158 q 524 1083 593 1083 z "},"Ǧ":{"ha":964,"x_min":69,"x_max":874,"o":"m 568 -14 q 369 23 460 -14 q 210 127 278 60 q 106 286 143 194 q 69 486 69 378 q 106 686 69 594 q 210 845 143 778 q 369 949 278 913 q 568 986 460 986 q 715 967 644 986 q 842 911 786 949 q 851 901 849 907 q 854 888 854 894 q 844 867 854 874 q 828 860 835 860 q 818 862 822 860 q 810 865 814 864 q 697 913 758 894 q 568 931 636 931 q 340 873 439 931 q 184 715 240 815 q 128 486 128 615 q 184 256 128 357 q 340 99 240 156 q 568 42 439 42 q 705 63 638 42 q 824 119 772 85 l 818 94 l 818 442 l 838 424 l 568 424 q 549 432 557 424 q 540 451 540 440 q 549 472 540 464 q 568 479 557 479 l 846 479 q 866 471 858 479 q 874 451 874 463 l 874 103 q 871 90 874 97 q 861 78 868 83 q 724 11 800 36 q 568 -14 649 -14 m 515 1104 l 640 1210 q 654 1220 647 1217 q 667 1224 661 1224 q 678 1219 674 1224 q 683 1207 683 1214 q 681 1199 683 1203 q 675 1190 679 1194 l 563 1071 q 549 1058 557 1061 q 529 1054 540 1054 l 515 1054 q 497 1058 504 1054 q 482 1071 489 1061 l 369 1189 q 363 1197 365 1193 q 361 1206 361 1201 q 366 1217 361 1213 q 378 1222 371 1222 q 404 1208 388 1222 l 531 1110 l 515 1104 z "},"Ĝ":{"ha":964,"x_min":69,"x_max":874,"o":"m 568 -14 q 369 23 460 -14 q 210 127 278 60 q 106 286 143 194 q 69 486 69 378 q 106 686 69 594 q 210 845 143 778 q 369 949 278 913 q 568 986 460 986 q 715 967 644 986 q 842 911 786 949 q 851 901 849 907 q 854 888 854 894 q 844 867 854 874 q 828 860 835 860 q 818 862 822 860 q 810 865 814 864 q 697 913 758 894 q 568 931 636 931 q 340 873 439 931 q 184 715 240 815 q 128 486 128 615 q 184 256 128 357 q 340 99 240 156 q 568 42 439 42 q 705 63 638 42 q 824 119 772 85 l 818 94 l 818 442 l 838 424 l 568 424 q 549 432 557 424 q 540 451 540 440 q 549 472 540 464 q 568 479 557 479 l 846 479 q 866 471 858 479 q 874 451 874 463 l 874 103 q 871 90 874 97 q 861 78 868 83 q 724 11 800 36 q 568 -14 649 -14 m 529 1186 l 404 1081 q 391 1071 397 1075 q 378 1067 385 1067 q 366 1072 371 1067 q 361 1083 361 1078 q 363 1092 361 1088 q 369 1100 365 1096 l 482 1219 q 497 1232 490 1228 q 515 1236 504 1236 l 529 1236 q 547 1232 540 1236 q 563 1219 554 1228 l 675 1101 q 681 1093 679 1097 q 683 1085 683 1089 q 678 1074 683 1079 q 667 1068 674 1068 q 654 1072 661 1068 q 640 1082 647 1076 l 514 1181 l 529 1186 z "},"Ģ":{"ha":964,"x_min":69,"x_max":874,"o":"m 568 -14 q 369 23 460 -14 q 210 127 278 60 q 106 286 143 194 q 69 486 69 378 q 106 686 69 594 q 210 845 143 778 q 369 949 278 913 q 568 986 460 986 q 715 967 644 986 q 842 911 786 949 q 851 901 849 907 q 854 888 854 894 q 844 867 854 874 q 828 860 835 860 q 818 862 822 860 q 810 865 814 864 q 697 913 758 894 q 568 931 636 931 q 340 873 439 931 q 184 715 240 815 q 128 486 128 615 q 184 256 128 357 q 340 99 240 156 q 568 42 439 42 q 705 63 638 42 q 824 119 772 85 l 818 94 l 818 442 l 838 424 l 568 424 q 549 432 557 424 q 540 451 540 440 q 549 472 540 464 q 568 479 557 479 l 846 479 q 866 471 858 479 q 874 451 874 463 l 874 103 q 871 90 874 97 q 861 78 868 83 q 724 11 800 36 q 568 -14 649 -14 m 610 -150 q 596 -200 610 -178 q 560 -235 582 -222 q 514 -247 539 -247 q 482 -242 492 -247 q 472 -225 472 -236 q 477 -208 472 -215 q 490 -201 482 -201 q 505 -204 497 -201 q 531 -204 513 -207 q 548 -190 542 -201 q 554 -158 554 -179 q 540 -142 554 -142 q 527 -147 532 -142 q 511 -153 522 -153 q 488 -142 496 -154 q 479 -121 479 -131 q 497 -87 479 -101 q 544 -74 514 -74 q 591 -92 572 -74 q 610 -150 610 -111 z "},"Ġ":{"ha":964,"x_min":69,"x_max":874,"o":"m 568 -14 q 369 23 460 -14 q 210 127 278 60 q 106 286 143 194 q 69 486 69 378 q 106 686 69 594 q 210 845 143 778 q 369 949 278 913 q 568 986 460 986 q 715 967 644 986 q 842 911 786 949 q 851 901 849 907 q 854 888 854 894 q 844 867 854 874 q 828 860 835 860 q 818 862 822 860 q 810 865 814 864 q 697 913 758 894 q 568 931 636 931 q 340 873 439 931 q 184 715 240 815 q 128 486 128 615 q 184 256 128 357 q 340 99 240 156 q 568 42 439 42 q 705 63 638 42 q 824 119 772 85 l 818 94 l 818 442 l 838 424 l 568 424 q 549 432 557 424 q 540 451 540 440 q 549 472 540 464 q 568 479 557 479 l 846 479 q 866 471 858 479 q 874 451 874 463 l 874 103 q 871 90 874 97 q 861 78 868 83 q 724 11 800 36 q 568 -14 649 -14 m 524 1083 q 488 1097 501 1083 q 475 1133 475 1111 l 475 1144 q 489 1181 475 1167 q 525 1194 503 1194 q 558 1181 544 1194 q 571 1144 571 1167 l 571 1133 q 558 1097 571 1111 q 524 1083 544 1083 z "},"Ḡ":{"ha":964,"x_min":69,"x_max":874,"o":"m 568 -14 q 369 23 460 -14 q 210 127 278 60 q 106 286 143 194 q 69 486 69 378 q 106 686 69 594 q 210 845 143 778 q 369 949 278 913 q 568 986 460 986 q 715 967 644 986 q 842 911 786 949 q 851 901 849 907 q 854 888 854 894 q 844 867 854 874 q 828 860 835 860 q 818 862 822 860 q 810 865 814 864 q 697 913 758 894 q 568 931 636 931 q 340 873 439 931 q 184 715 240 815 q 128 486 128 615 q 184 256 128 357 q 340 99 240 156 q 568 42 439 42 q 705 63 638 42 q 824 119 772 85 l 818 94 l 818 442 l 838 424 l 568 424 q 549 432 557 424 q 540 451 540 440 q 549 472 540 464 q 568 479 557 479 l 846 479 q 866 471 858 479 q 874 451 874 463 l 874 103 q 871 90 874 97 q 861 78 868 83 q 724 11 800 36 q 568 -14 649 -14 m 349 1111 q 318 1136 318 1111 q 349 1164 318 1164 l 710 1164 q 740 1136 740 1164 q 710 1111 740 1111 l 349 1111 z "},"H":{"ha":1000,"x_min":139,"x_max":861,"o":"m 168 972 q 189 964 181 972 q 197 943 197 956 l 197 29 q 188 8 196 17 q 168 0 179 0 q 147 8 154 0 q 139 29 139 17 l 139 943 q 147 964 139 956 q 168 972 156 972 m 832 972 q 853 964 844 972 q 861 943 861 956 l 861 29 q 851 8 860 17 q 832 0 843 0 q 810 8 818 0 q 803 29 803 17 l 803 943 q 811 964 803 956 q 832 972 819 972 m 161 528 l 835 528 l 832 472 l 153 472 l 161 528 z "},"Ħ":{"ha":1168,"x_min":139,"x_max":1029,"o":"m 167 679 q 147 688 156 679 q 139 707 139 696 q 147 727 139 719 q 167 735 156 735 l 1001 735 q 1021 726 1013 735 q 1029 707 1029 718 q 1021 687 1029 694 q 1001 679 1013 679 l 167 679 m 251 972 q 272 964 264 972 q 281 943 281 956 l 281 29 q 271 8 279 17 q 251 0 263 0 q 230 8 238 0 q 222 29 222 17 l 222 943 q 231 964 222 956 q 251 972 239 972 m 915 972 q 936 964 928 972 q 944 943 944 956 l 944 29 q 935 8 943 17 q 915 0 926 0 q 894 8 901 0 q 886 29 886 17 l 886 943 q 894 964 886 956 q 915 972 903 972 m 244 528 l 918 528 l 915 472 l 236 472 l 244 528 z "},"Ḫ":{"ha":1000,"x_min":139,"x_max":861,"o":"m 168 972 q 189 964 181 972 q 197 943 197 956 l 197 29 q 188 8 196 17 q 168 0 179 0 q 147 8 154 0 q 139 29 139 17 l 139 943 q 147 964 139 956 q 168 972 156 972 m 832 972 q 853 964 844 972 q 861 943 861 956 l 861 29 q 851 8 860 17 q 832 0 843 0 q 810 8 818 0 q 803 29 803 17 l 803 943 q 811 964 803 956 q 832 972 819 972 m 161 528 l 835 528 l 832 472 l 153 472 l 161 528 m 501 -193 q 417 -167 456 -193 q 356 -100 379 -142 q 333 -12 333 -58 q 341 5 333 -3 q 360 13 349 13 q 381 5 374 13 q 389 -15 388 -3 q 428 -108 396 -75 q 501 -140 460 -140 q 575 -107 543 -140 q 614 -15 607 -74 q 623 5 617 -3 q 643 13 629 13 q 662 5 654 13 q 669 -12 669 -3 q 647 -100 669 -58 q 586 -167 624 -142 q 501 -193 549 -193 z "},"Ĥ":{"ha":1000,"x_min":139,"x_max":861,"o":"m 168 972 q 189 964 181 972 q 197 943 197 956 l 197 29 q 188 8 196 17 q 168 0 179 0 q 147 8 154 0 q 139 29 139 17 l 139 943 q 147 964 139 956 q 168 972 156 972 m 832 972 q 853 964 844 972 q 861 943 861 956 l 861 29 q 851 8 860 17 q 832 0 843 0 q 810 8 818 0 q 803 29 803 17 l 803 943 q 811 964 803 956 q 832 972 819 972 m 161 528 l 835 528 l 832 472 l 153 472 l 161 528 m 506 1186 l 381 1081 q 367 1071 374 1075 q 354 1067 361 1067 q 342 1072 347 1067 q 338 1083 338 1078 q 340 1092 338 1088 q 346 1100 342 1096 l 458 1219 q 474 1232 467 1228 q 492 1236 481 1236 l 506 1236 q 524 1232 517 1236 q 539 1219 531 1228 l 651 1101 q 658 1093 656 1097 q 660 1085 660 1089 q 655 1074 660 1079 q 643 1068 650 1068 q 631 1072 638 1068 q 617 1082 624 1076 l 490 1181 l 506 1186 z "},"Ḥ":{"ha":1000,"x_min":139,"x_max":861,"o":"m 168 972 q 189 964 181 972 q 197 943 197 956 l 197 29 q 188 8 196 17 q 168 0 179 0 q 147 8 154 0 q 139 29 139 17 l 139 943 q 147 964 139 956 q 168 972 156 972 m 832 972 q 853 964 844 972 q 861 943 861 956 l 861 29 q 851 8 860 17 q 832 0 843 0 q 810 8 818 0 q 803 29 803 17 l 803 943 q 811 964 803 956 q 832 972 819 972 m 161 528 l 835 528 l 832 472 l 153 472 l 161 528 m 500 -190 q 465 -176 478 -190 q 451 -140 451 -162 l 451 -129 q 465 -93 451 -107 q 501 -79 479 -79 q 534 -93 521 -79 q 547 -129 547 -107 l 547 -140 q 534 -176 547 -162 q 500 -190 521 -190 z "},"I":{"ha":336,"x_min":139,"x_max":197,"o":"m 197 29 q 188 8 196 17 q 168 0 179 0 q 147 8 154 0 q 139 29 139 17 l 139 943 q 147 964 139 956 q 168 972 156 972 q 189 964 181 972 q 197 943 197 956 l 197 29 z "},"Ĳ":{"ha":838,"x_min":139,"x_max":699,"o":"m 219 349 q 210 328 218 336 q 190 319 201 319 q 169 328 176 319 q 161 349 161 336 l 161 943 q 169 964 161 956 q 190 972 178 972 q 211 964 203 972 q 219 943 219 956 l 219 349 m 406 -14 q 246 40 315 -14 q 142 179 176 94 q 139 193 139 188 q 148 212 139 206 q 167 218 157 218 q 183 213 178 218 q 193 200 189 208 q 276 86 219 131 q 406 42 333 42 q 530 71 478 42 q 611 153 582 100 q 640 276 640 206 l 640 944 q 649 964 640 956 q 671 972 657 972 q 691 964 683 972 q 699 944 699 956 l 699 276 q 662 124 699 190 q 559 22 625 58 q 406 -14 493 -14 z "},"Í":{"ha":336,"x_min":139,"x_max":357,"o":"m 197 29 q 188 8 196 17 q 168 0 179 0 q 147 8 154 0 q 139 29 139 17 l 139 943 q 147 964 139 956 q 168 972 156 972 q 189 964 181 972 q 197 943 197 956 l 197 29 m 174 1039 q 160 1044 164 1039 q 157 1056 157 1050 q 160 1067 157 1063 q 169 1076 164 1072 l 294 1169 q 308 1177 300 1174 q 325 1181 315 1181 q 349 1170 342 1181 q 357 1147 357 1160 q 352 1127 357 1135 q 338 1114 347 1119 l 203 1049 q 190 1042 197 1046 q 174 1039 182 1039 z "},"Ĭ":{"ha":336,"x_min":-15,"x_max":351,"o":"m 197 29 q 188 8 196 17 q 168 0 179 0 q 147 8 154 0 q 139 29 139 17 l 139 943 q 147 964 139 956 q 168 972 156 972 q 189 964 181 972 q 197 943 197 956 l 197 29 m 168 1083 q 51 1121 99 1083 q -12 1226 4 1158 q -10 1249 -15 1240 q 8 1257 -6 1257 q 26 1251 22 1257 q 36 1233 31 1246 q 88 1162 56 1186 q 168 1138 121 1138 q 299 1233 261 1138 q 309 1250 303 1244 q 326 1256 315 1256 q 347 1249 342 1256 q 349 1226 351 1242 q 285 1121 332 1158 q 168 1083 238 1083 z "},"Ǐ":{"ha":336,"x_min":6,"x_max":328,"o":"m 197 29 q 188 8 196 17 q 168 0 179 0 q 147 8 154 0 q 139 29 139 17 l 139 943 q 147 964 139 956 q 168 972 156 972 q 189 964 181 972 q 197 943 197 956 l 197 29 m 160 1104 l 285 1210 q 299 1220 292 1217 q 311 1224 306 1224 q 323 1219 318 1224 q 328 1207 328 1214 q 326 1199 328 1203 q 319 1190 324 1194 l 207 1071 q 193 1058 201 1061 q 174 1054 185 1054 l 160 1054 q 141 1058 149 1054 q 126 1071 133 1061 l 14 1189 q 8 1197 10 1193 q 6 1206 6 1201 q 10 1217 6 1213 q 22 1222 15 1222 q 49 1208 32 1222 l 175 1110 l 160 1104 z "},"Î":{"ha":336,"x_min":6,"x_max":328,"o":"m 197 29 q 188 8 196 17 q 168 0 179 0 q 147 8 154 0 q 139 29 139 17 l 139 943 q 147 964 139 956 q 168 972 156 972 q 189 964 181 972 q 197 943 197 956 l 197 29 m 174 1186 l 49 1081 q 35 1071 42 1075 q 22 1067 29 1067 q 10 1072 15 1067 q 6 1083 6 1078 q 8 1092 6 1088 q 14 1100 10 1096 l 126 1219 q 142 1232 135 1228 q 160 1236 149 1236 l 174 1236 q 192 1232 185 1236 q 207 1219 199 1228 l 319 1101 q 326 1093 324 1097 q 328 1085 328 1089 q 323 1074 328 1079 q 311 1068 318 1068 q 299 1072 306 1068 q 285 1082 292 1076 l 158 1181 l 174 1186 z "},"Ȉ":{"ha":336,"x_min":-60,"x_max":356,"o":"m 197 29 q 188 8 196 17 q 168 0 179 0 q 147 8 154 0 q 139 29 139 17 l 139 943 q 147 964 139 956 q 168 972 156 972 q 189 964 181 972 q 197 943 197 956 l 197 29 m 124 1050 q 108 1053 115 1050 q 94 1060 101 1057 l -40 1125 q -60 1158 -60 1136 q -52 1181 -60 1171 q -28 1192 -44 1192 q -10 1188 -18 1192 q 3 1181 -3 1185 l 128 1088 q 137 1078 133 1083 q 140 1067 140 1074 q 137 1056 140 1061 q 124 1050 133 1050 m 339 1044 q 324 1048 331 1044 q 310 1054 317 1051 l 175 1119 q 156 1153 156 1131 q 163 1176 156 1165 q 188 1186 171 1186 q 205 1183 197 1186 q 218 1175 213 1179 l 343 1082 q 352 1073 349 1078 q 356 1061 356 1068 q 352 1050 356 1056 q 339 1044 349 1044 z "},"Ï":{"ha":336,"x_min":7,"x_max":329,"o":"m 197 29 q 188 8 196 17 q 168 0 179 0 q 147 8 154 0 q 139 29 139 17 l 139 943 q 147 964 139 956 q 168 972 156 972 q 189 964 181 972 q 197 943 197 956 l 197 29 m 282 1083 q 247 1097 260 1083 q 233 1133 233 1111 l 233 1144 q 247 1181 233 1167 q 283 1194 261 1194 q 316 1181 303 1194 q 329 1144 329 1167 l 329 1133 q 316 1097 329 1111 q 282 1083 303 1083 m 56 1083 q 20 1097 33 1083 q 7 1133 7 1111 l 7 1144 q 21 1181 7 1167 q 57 1194 35 1194 q 90 1181 76 1194 q 103 1144 103 1167 l 103 1133 q 90 1097 103 1111 q 56 1083 76 1083 z "},"Ḯ":{"ha":336,"x_min":7,"x_max":357,"o":"m 197 29 q 188 8 196 17 q 168 0 179 0 q 147 8 154 0 q 139 29 139 17 l 139 943 q 147 964 139 956 q 168 972 156 972 q 189 964 181 972 q 197 943 197 956 l 197 29 m 282 1083 q 247 1097 260 1083 q 233 1133 233 1111 l 233 1144 q 247 1181 233 1167 q 283 1194 261 1194 q 316 1181 303 1194 q 329 1144 329 1167 l 329 1133 q 316 1097 329 1111 q 282 1083 303 1083 m 56 1083 q 20 1097 33 1083 q 7 1133 7 1111 l 7 1144 q 21 1181 7 1167 q 57 1194 35 1194 q 90 1181 76 1194 q 103 1144 103 1167 l 103 1133 q 90 1097 103 1111 q 56 1083 76 1083 m 174 1261 q 160 1267 164 1261 q 157 1278 157 1272 q 160 1290 157 1285 q 169 1299 164 1294 l 294 1392 q 308 1399 300 1396 q 325 1403 315 1403 q 349 1392 342 1403 q 357 1369 357 1382 q 352 1349 357 1357 q 338 1336 347 1342 l 203 1271 q 190 1265 197 1268 q 174 1261 182 1261 z "},"İ":{"ha":336,"x_min":119,"x_max":215,"o":"m 197 29 q 188 8 196 17 q 168 0 179 0 q 147 8 154 0 q 139 29 139 17 l 139 943 q 147 964 139 956 q 168 972 156 972 q 189 964 181 972 q 197 943 197 956 l 197 29 m 168 1083 q 133 1097 146 1083 q 119 1133 119 1111 l 119 1144 q 133 1181 119 1167 q 169 1194 147 1194 q 202 1181 189 1194 q 215 1144 215 1167 l 215 1133 q 202 1097 215 1111 q 168 1083 189 1083 z "},"Ị":{"ha":336,"x_min":119,"x_max":215,"o":"m 197 29 q 188 8 196 17 q 168 0 179 0 q 147 8 154 0 q 139 29 139 17 l 139 943 q 147 964 139 956 q 168 972 156 972 q 189 964 181 972 q 197 943 197 956 l 197 29 m 168 -190 q 133 -176 146 -190 q 119 -140 119 -162 l 119 -129 q 133 -93 119 -107 q 169 -79 147 -79 q 202 -93 189 -79 q 215 -129 215 -107 l 215 -140 q 202 -176 215 -162 q 168 -190 189 -190 z "},"Ì":{"ha":336,"x_min":-15,"x_max":197,"o":"m 197 29 q 188 8 196 17 q 168 0 179 0 q 147 8 154 0 q 139 29 139 17 l 139 943 q 147 964 139 956 q 168 972 156 972 q 189 964 181 972 q 197 943 197 956 l 197 29 m 168 1039 q 153 1042 160 1039 q 139 1049 146 1046 l 4 1114 q -15 1147 -15 1125 q -8 1170 -15 1160 q 17 1181 0 1181 q 34 1177 26 1181 q 47 1169 42 1174 l 172 1076 q 181 1067 178 1072 q 185 1056 185 1063 q 181 1044 185 1050 q 168 1039 178 1039 z "},"Ỉ":{"ha":336,"x_min":61,"x_max":275,"o":"m 197 29 q 188 8 196 17 q 168 0 179 0 q 147 8 154 0 q 139 29 139 17 l 139 943 q 147 964 139 956 q 168 972 156 972 q 189 964 181 972 q 197 943 197 956 l 197 29 m 71 1242 q 117 1274 90 1261 q 172 1286 143 1286 q 233 1270 211 1286 q 265 1232 256 1254 q 275 1190 275 1210 q 260 1146 275 1165 q 222 1103 246 1126 q 214 1090 217 1097 q 210 1071 211 1083 q 202 1056 208 1061 q 186 1051 196 1051 q 169 1058 175 1051 q 164 1074 164 1065 q 167 1100 164 1085 q 183 1129 169 1115 q 215 1161 203 1149 q 226 1192 226 1174 q 211 1224 226 1211 q 175 1236 196 1236 q 139 1228 156 1236 q 110 1210 122 1219 q 87 1199 99 1200 q 67 1207 75 1197 q 61 1223 61 1214 q 71 1242 61 1232 z "},"Ȋ":{"ha":336,"x_min":-3,"x_max":333,"o":"m 197 29 q 188 8 196 17 q 168 0 179 0 q 147 8 154 0 q 139 29 139 17 l 139 943 q 147 964 139 956 q 168 972 156 972 q 189 964 181 972 q 197 943 197 956 l 197 29 m 165 1172 q 250 1153 213 1172 q 310 1101 288 1133 q 333 1033 333 1069 q 326 1016 333 1024 q 307 1008 318 1008 q 287 1016 293 1008 q 278 1036 281 1024 q 239 1098 271 1076 q 165 1119 207 1119 q 92 1098 124 1119 q 53 1036 60 1076 q 44 1016 51 1024 q 24 1008 38 1008 q 5 1016 13 1008 q -3 1033 -3 1024 q 20 1101 -3 1069 q 81 1153 43 1133 q 165 1172 119 1172 z "},"Ī":{"ha":336,"x_min":-37,"x_max":385,"o":"m 197 29 q 188 8 196 17 q 168 0 179 0 q 147 8 154 0 q 139 29 139 17 l 139 943 q 147 964 139 956 q 168 972 156 972 q 189 964 181 972 q 197 943 197 956 l 197 29 m -7 1111 q -37 1136 -37 1111 q -7 1164 -37 1164 l 354 1164 q 385 1136 385 1164 q 354 1111 385 1111 l -7 1111 z "},"Į":{"ha":306,"x_min":21,"x_max":243,"o":"m 143 -257 q 59 -222 97 -257 q 21 -129 21 -187 q 31 -71 21 -97 q 57 -24 40 -44 q 94 11 74 -3 q 138 32 115 25 l 144 26 l 136 29 l 136 943 q 144 964 136 956 q 165 972 153 972 q 186 964 178 972 q 194 943 194 956 l 194 42 q 188 22 194 28 q 167 8 182 15 q 105 -37 136 -4 q 74 -118 74 -69 q 97 -183 74 -160 q 150 -206 121 -206 q 188 -197 176 -206 q 206 -178 199 -187 q 224 -169 213 -169 q 238 -176 233 -169 q 243 -189 243 -182 q 230 -223 243 -207 q 194 -248 217 -239 q 143 -257 172 -257 z "},"Ĩ":{"ha":336,"x_min":-31,"x_max":368,"o":"m 197 29 q 188 8 196 17 q 168 0 179 0 q 147 8 154 0 q 139 29 139 17 l 139 943 q 147 964 139 956 q 168 972 156 972 q 189 964 181 972 q 197 943 197 956 l 197 29 m -8 1086 q -26 1099 -22 1086 q -25 1135 -31 1111 q 19 1200 -12 1181 q 85 1219 51 1219 q 147 1199 114 1219 q 213 1160 181 1179 q 268 1140 244 1140 q 302 1158 289 1140 q 319 1203 315 1175 q 327 1221 321 1214 q 344 1228 333 1228 q 365 1215 361 1228 q 364 1181 368 1201 q 341 1127 357 1147 q 303 1099 325 1107 q 257 1090 282 1090 q 198 1110 231 1090 q 134 1148 165 1129 q 79 1167 103 1167 q 42 1152 58 1167 q 17 1106 26 1138 q 6 1091 14 1096 q -8 1086 -1 1086 z "},"J":{"ha":803,"x_min":104,"x_max":664,"o":"m 371 -14 q 211 40 281 -14 q 107 179 142 94 q 104 193 104 188 q 113 212 104 206 q 132 218 122 218 q 149 213 143 218 q 158 200 154 208 q 242 86 185 131 q 371 42 299 42 q 495 71 443 42 q 576 153 547 100 q 606 276 606 206 l 606 944 q 614 964 606 956 q 636 972 622 972 q 656 964 649 972 q 664 944 664 956 l 664 276 q 627 124 664 190 q 524 22 590 58 q 371 -14 458 -14 z "},"Ĵ":{"ha":803,"x_min":104,"x_max":796,"o":"m 371 -14 q 211 40 281 -14 q 107 179 142 94 q 104 193 104 188 q 113 212 104 206 q 132 218 122 218 q 149 213 143 218 q 158 200 154 208 q 242 86 185 131 q 371 42 299 42 q 495 71 443 42 q 576 153 547 100 q 606 276 606 206 l 606 944 q 614 964 606 956 q 636 972 622 972 q 656 964 649 972 q 664 944 664 956 l 664 276 q 627 124 664 190 q 524 22 590 58 q 371 -14 458 -14 m 642 1186 l 517 1081 q 503 1071 510 1075 q 490 1067 497 1067 q 478 1072 483 1067 q 474 1083 474 1078 q 476 1092 474 1088 q 482 1100 478 1096 l 594 1219 q 610 1232 603 1228 q 628 1236 617 1236 l 642 1236 q 660 1232 653 1236 q 675 1219 667 1228 l 788 1101 q 794 1093 792 1097 q 796 1085 796 1089 q 791 1074 796 1079 q 779 1068 786 1068 q 767 1072 774 1068 q 753 1082 760 1076 l 626 1181 l 642 1186 z "},"K":{"ha":947,"x_min":139,"x_max":874,"o":"m 842 -7 q 822 3 831 -7 l 403 522 l 447 567 l 867 42 q 874 22 874 32 q 862 -1 874 6 q 842 -7 850 -7 m 817 967 q 836 958 828 967 q 844 939 844 950 q 836 919 844 928 l 189 317 l 176 376 l 797 958 q 817 967 806 967 m 168 0 q 147 8 154 0 q 139 29 139 17 l 139 943 q 147 964 139 956 q 168 972 156 972 q 189 964 181 972 q 197 943 197 956 l 197 29 q 188 8 196 17 q 168 0 179 0 z "},"Ķ":{"ha":947,"x_min":139,"x_max":874,"o":"m 842 -7 q 822 3 831 -7 l 403 522 l 447 567 l 867 42 q 874 22 874 32 q 862 -1 874 6 q 842 -7 850 -7 m 817 967 q 836 958 828 967 q 844 939 844 950 q 836 919 844 928 l 189 317 l 176 376 l 797 958 q 817 967 806 967 m 168 0 q 147 8 154 0 q 139 29 139 17 l 139 943 q 147 964 139 956 q 168 972 156 972 q 189 964 181 972 q 197 943 197 956 l 197 29 q 188 8 196 17 q 168 0 179 0 m 488 -150 q 474 -200 488 -178 q 438 -235 460 -222 q 392 -247 417 -247 q 360 -242 369 -247 q 350 -225 350 -236 q 355 -208 350 -215 q 368 -201 360 -201 q 383 -204 375 -201 q 408 -204 390 -207 q 426 -190 419 -201 q 432 -158 432 -179 q 418 -142 432 -142 q 405 -147 410 -142 q 389 -153 400 -153 q 365 -142 374 -154 q 357 -121 357 -131 q 374 -87 357 -101 q 422 -74 392 -74 q 469 -92 450 -74 q 488 -150 488 -111 z "},"L":{"ha":725,"x_min":139,"x_max":704,"o":"m 676 56 q 696 47 688 56 q 704 28 704 39 q 696 8 704 15 q 676 0 688 0 l 167 0 q 147 8 154 0 q 139 28 139 17 l 139 944 q 147 964 139 956 q 168 972 156 972 q 189 964 181 972 q 197 944 197 956 l 197 31 l 172 56 l 676 56 z "},"Ǉ":{"ha":1528,"x_min":139,"x_max":1389,"o":"m 676 56 q 696 47 688 56 q 704 28 704 39 q 696 8 704 15 q 676 0 688 0 l 167 0 q 147 8 154 0 q 139 28 139 17 l 139 944 q 147 964 139 956 q 168 972 156 972 q 189 964 181 972 q 197 944 197 956 l 197 31 l 172 56 l 676 56 m 1096 -14 q 936 40 1006 -14 q 832 179 867 94 q 829 193 829 188 q 838 212 829 206 q 857 218 847 218 q 874 213 868 218 q 883 200 879 208 q 967 86 910 131 q 1096 42 1024 42 q 1220 71 1168 42 q 1301 153 1272 100 q 1331 276 1331 206 l 1331 944 q 1339 964 1331 956 q 1361 972 1347 972 q 1381 964 1374 972 q 1389 944 1389 956 l 1389 276 q 1352 124 1389 190 q 1249 22 1315 58 q 1096 -14 1183 -14 z "},"Ĺ":{"ha":725,"x_min":139,"x_max":704,"o":"m 676 56 q 696 47 688 56 q 704 28 704 39 q 696 8 704 15 q 676 0 688 0 l 167 0 q 147 8 154 0 q 139 28 139 17 l 139 944 q 147 964 139 956 q 168 972 156 972 q 189 964 181 972 q 197 944 197 956 l 197 31 l 172 56 l 676 56 m 160 1039 q 147 1044 150 1039 q 143 1056 143 1050 q 147 1067 143 1063 q 156 1076 150 1072 l 281 1169 q 294 1177 286 1174 q 311 1181 301 1181 q 335 1170 328 1181 q 343 1147 343 1160 q 338 1127 343 1135 q 324 1114 333 1119 l 189 1049 q 176 1042 183 1046 q 160 1039 168 1039 z "},"Ľ":{"ha":726,"x_min":139,"x_max":706,"o":"m 676 56 q 696 47 688 56 q 704 28 704 39 q 696 8 704 15 q 676 0 688 0 l 167 0 q 147 8 154 0 q 139 28 139 17 l 139 944 q 147 964 139 956 q 167 972 156 972 q 187 964 179 972 q 194 944 194 956 l 194 63 q 201 56 194 56 l 676 56 m 706 911 q 694 849 706 878 q 665 799 683 821 q 626 765 646 776 q 586 753 606 753 q 569 758 576 753 q 561 775 561 764 q 576 797 561 794 q 610 808 590 799 q 640 840 629 819 q 650 882 650 861 q 644 906 650 897 q 626 915 638 915 q 607 912 617 915 q 590 903 597 908 q 581 918 585 910 q 579 935 578 926 q 590 956 581 946 q 613 971 599 965 q 640 976 626 976 q 687 959 668 976 q 706 911 706 942 z "},"Ļ":{"ha":725,"x_min":139,"x_max":704,"o":"m 676 56 q 696 47 688 56 q 704 28 704 39 q 696 8 704 15 q 676 0 688 0 l 167 0 q 147 8 154 0 q 139 28 139 17 l 139 944 q 147 964 139 956 q 168 972 156 972 q 189 964 181 972 q 197 944 197 956 l 197 31 l 172 56 l 676 56 m 468 -150 q 454 -200 468 -178 q 419 -235 440 -222 q 372 -247 397 -247 q 340 -242 350 -247 q 331 -225 331 -236 q 335 -208 331 -215 q 349 -201 340 -201 q 363 -204 356 -201 q 389 -204 371 -207 q 406 -190 400 -201 q 413 -158 413 -179 q 399 -142 413 -142 q 385 -147 390 -142 q 369 -153 381 -153 q 346 -142 354 -154 q 338 -121 338 -131 q 355 -87 338 -101 q 403 -74 372 -74 q 449 -92 431 -74 q 468 -150 468 -111 z "},"Ŀ":{"ha":746,"x_min":139,"x_max":704,"o":"m 676 56 q 696 47 688 56 q 704 28 704 39 q 696 8 704 15 q 676 0 688 0 l 167 0 q 147 8 154 0 q 139 28 139 17 l 139 944 q 147 964 139 956 q 168 972 156 972 q 189 964 181 972 q 197 944 197 956 l 197 31 l 172 56 l 676 56 m 654 354 q 624 367 636 354 q 611 397 611 379 l 611 429 q 624 460 611 449 q 654 472 636 472 l 660 472 q 691 460 679 472 q 703 429 703 449 l 703 397 q 691 367 703 379 q 660 354 679 354 l 654 354 z "},"Ḷ":{"ha":725,"x_min":139,"x_max":704,"o":"m 676 56 q 696 47 688 56 q 704 28 704 39 q 696 8 704 15 q 676 0 688 0 l 167 0 q 147 8 154 0 q 139 28 139 17 l 139 944 q 147 964 139 956 q 168 972 156 972 q 189 964 181 972 q 197 944 197 956 l 197 31 l 172 56 l 676 56 m 397 -190 q 362 -176 375 -190 q 349 -140 349 -162 l 349 -129 q 363 -93 349 -107 q 399 -79 376 -79 q 431 -93 418 -79 q 444 -129 444 -107 l 444 -140 q 431 -176 444 -162 q 397 -190 418 -190 z "},"ǈ":{"ha":1097,"x_min":139,"x_max":933,"o":"m 676 56 q 696 47 688 56 q 704 28 704 39 q 696 8 704 15 q 676 0 688 0 l 167 0 q 147 8 154 0 q 139 28 139 17 l 139 944 q 147 964 139 956 q 168 972 156 972 q 189 964 181 972 q 197 944 197 956 l 197 31 l 172 56 l 676 56 z "},"Ḻ":{"ha":725,"x_min":139,"x_max":704,"o":"m 676 56 q 696 47 688 56 q 704 28 704 39 q 696 8 704 15 q 676 0 688 0 l 167 0 q 147 8 154 0 q 139 28 139 17 l 139 944 q 147 964 139 956 q 168 972 156 972 q 189 964 181 972 q 197 944 197 956 l 197 31 l 172 56 l 676 56 m 265 -162 q 238 -137 238 -162 q 265 -111 238 -111 l 543 -111 q 571 -137 571 -111 q 543 -162 571 -162 l 265 -162 z "},"Ł":{"ha":779,"x_min":69,"x_max":758,"o":"m 94 483 q 76 491 82 483 q 69 510 69 499 q 86 536 69 528 l 364 658 q 379 663 372 663 q 399 652 394 663 q 404 635 404 642 q 386 608 404 617 l 108 486 q 101 484 106 485 q 94 483 97 483 m 249 44 l 239 56 l 731 56 q 750 47 742 56 q 758 28 758 39 q 750 8 758 15 q 731 0 742 0 l 221 0 q 201 8 208 0 q 193 28 193 17 l 193 944 q 201 964 193 956 q 221 972 210 972 q 241 964 233 972 q 249 944 249 956 l 249 44 z "},"M":{"ha":1151,"x_min":139,"x_max":1013,"o":"m 165 972 q 179 969 172 972 q 192 960 186 967 l 590 367 l 563 367 l 961 960 q 988 972 972 975 q 1006 963 999 971 q 1013 944 1013 956 l 1013 28 q 1003 8 1013 17 q 983 0 994 0 q 963 8 971 0 q 954 28 954 17 l 954 882 l 969 882 l 596 317 q 588 308 593 311 q 576 306 583 306 q 563 308 569 306 q 554 317 557 311 l 172 893 l 194 893 l 194 28 q 186 8 194 17 q 167 0 178 0 q 147 8 154 0 q 139 28 139 17 l 139 944 q 146 963 139 954 q 165 972 153 972 z "},"Ṃ":{"ha":1151,"x_min":139,"x_max":1013,"o":"m 165 972 q 179 969 172 972 q 192 960 186 967 l 590 367 l 563 367 l 961 960 q 988 972 972 975 q 1006 963 999 971 q 1013 944 1013 956 l 1013 28 q 1003 8 1013 17 q 983 0 994 0 q 963 8 971 0 q 954 28 954 17 l 954 882 l 969 882 l 596 317 q 588 308 593 311 q 576 306 583 306 q 563 308 569 306 q 554 317 557 311 l 172 893 l 194 893 l 194 28 q 186 8 194 17 q 167 0 178 0 q 147 8 154 0 q 139 28 139 17 l 139 944 q 146 963 139 954 q 165 972 153 972 m 576 -190 q 541 -176 554 -190 q 528 -140 528 -162 l 528 -129 q 542 -93 528 -107 q 578 -79 556 -79 q 610 -93 597 -79 q 624 -129 624 -107 l 624 -140 q 610 -176 624 -162 q 576 -190 597 -190 z "},"N":{"ha":1007,"x_min":139,"x_max":868,"o":"m 842 972 q 861 965 854 972 q 868 946 868 957 l 868 31 q 859 8 868 15 q 839 0 850 0 q 827 3 833 0 q 817 11 821 6 l 172 892 l 192 901 l 192 24 q 184 7 192 14 q 165 0 176 0 q 146 7 153 0 q 139 24 139 14 l 139 944 q 147 966 139 960 q 164 972 156 972 q 175 970 169 972 q 185 963 181 968 l 826 88 l 815 60 l 815 946 q 824 965 815 957 q 842 972 832 972 z "},"Ǌ":{"ha":1810,"x_min":139,"x_max":1671,"o":"m 842 972 q 861 965 854 972 q 868 946 868 957 l 868 31 q 859 8 868 15 q 839 0 850 0 q 827 3 833 0 q 817 11 821 6 l 172 892 l 192 901 l 192 24 q 184 7 192 14 q 165 0 176 0 q 146 7 153 0 q 139 24 139 14 l 139 944 q 147 966 139 960 q 164 972 156 972 q 175 970 169 972 q 185 963 181 968 l 826 88 l 815 60 l 815 946 q 824 965 815 957 q 842 972 832 972 m 1378 -14 q 1218 40 1288 -14 q 1114 179 1149 94 q 1111 193 1111 188 q 1120 212 1111 206 q 1139 218 1129 218 q 1156 213 1150 218 q 1165 200 1161 208 q 1249 86 1192 131 q 1378 42 1306 42 q 1502 71 1450 42 q 1583 153 1554 100 q 1613 276 1613 206 l 1613 944 q 1621 964 1613 956 q 1643 972 1629 972 q 1663 964 1656 972 q 1671 944 1671 956 l 1671 276 q 1634 124 1671 190 q 1531 22 1597 58 q 1378 -14 1465 -14 z "},"Ń":{"ha":1007,"x_min":139,"x_max":868,"o":"m 842 972 q 861 965 854 972 q 868 946 868 957 l 868 31 q 859 8 868 15 q 839 0 850 0 q 827 3 833 0 q 817 11 821 6 l 172 892 l 192 901 l 192 24 q 184 7 192 14 q 165 0 176 0 q 146 7 153 0 q 139 24 139 14 l 139 944 q 147 966 139 960 q 164 972 156 972 q 175 970 169 972 q 185 963 181 968 l 826 88 l 815 60 l 815 946 q 824 965 815 957 q 842 972 832 972 m 510 1039 q 497 1044 500 1039 q 493 1056 493 1050 q 497 1067 493 1063 q 506 1076 500 1072 l 631 1169 q 644 1177 636 1174 q 661 1181 651 1181 q 685 1170 678 1181 q 693 1147 693 1160 q 688 1127 693 1135 q 674 1114 683 1119 l 539 1049 q 526 1042 533 1046 q 510 1039 518 1039 z "},"Ň":{"ha":1007,"x_min":139,"x_max":868,"o":"m 842 972 q 861 965 854 972 q 868 946 868 957 l 868 31 q 859 8 868 15 q 839 0 850 0 q 827 3 833 0 q 817 11 821 6 l 172 892 l 192 901 l 192 24 q 184 7 192 14 q 165 0 176 0 q 146 7 153 0 q 139 24 139 14 l 139 944 q 147 966 139 960 q 164 972 156 972 q 175 970 169 972 q 185 963 181 968 l 826 88 l 815 60 l 815 946 q 824 965 815 957 q 842 972 832 972 m 496 1104 l 621 1210 q 635 1220 628 1217 q 647 1224 642 1224 q 659 1219 654 1224 q 664 1207 664 1214 q 662 1199 664 1203 q 656 1190 660 1194 l 543 1071 q 529 1058 538 1061 q 510 1054 521 1054 l 496 1054 q 477 1058 485 1054 q 463 1071 469 1061 l 350 1189 q 344 1197 346 1193 q 342 1206 342 1201 q 347 1217 342 1213 q 358 1222 351 1222 q 385 1208 368 1222 l 511 1110 l 496 1104 z "},"Ņ":{"ha":1007,"x_min":139,"x_max":868,"o":"m 842 972 q 861 965 854 972 q 868 946 868 957 l 868 31 q 859 8 868 15 q 839 0 850 0 q 827 3 833 0 q 817 11 821 6 l 172 892 l 192 901 l 192 24 q 184 7 192 14 q 165 0 176 0 q 146 7 153 0 q 139 24 139 14 l 139 944 q 147 966 139 960 q 164 972 156 972 q 175 970 169 972 q 185 963 181 968 l 826 88 l 815 60 l 815 946 q 824 965 815 957 q 842 972 832 972 m 575 -150 q 561 -200 575 -178 q 526 -235 547 -222 q 479 -247 504 -247 q 447 -242 457 -247 q 438 -225 438 -236 q 442 -208 438 -215 q 456 -201 447 -201 q 470 -204 463 -201 q 496 -204 478 -207 q 513 -190 507 -201 q 519 -158 519 -179 q 506 -142 519 -142 q 492 -147 497 -142 q 476 -153 488 -153 q 453 -142 461 -154 q 444 -121 444 -131 q 462 -87 444 -101 q 510 -74 479 -74 q 556 -92 538 -74 q 575 -150 575 -111 z "},"Ṅ":{"ha":1007,"x_min":139,"x_max":868,"o":"m 842 972 q 861 965 854 972 q 868 946 868 957 l 868 31 q 859 8 868 15 q 839 0 850 0 q 827 3 833 0 q 817 11 821 6 l 172 892 l 192 901 l 192 24 q 184 7 192 14 q 165 0 176 0 q 146 7 153 0 q 139 24 139 14 l 139 944 q 147 966 139 960 q 164 972 156 972 q 175 970 169 972 q 185 963 181 968 l 826 88 l 815 60 l 815 946 q 824 965 815 957 q 842 972 832 972 m 504 1083 q 469 1097 482 1083 q 456 1133 456 1111 l 456 1144 q 469 1181 456 1167 q 506 1194 483 1194 q 538 1181 525 1194 q 551 1144 551 1167 l 551 1133 q 538 1097 551 1111 q 504 1083 525 1083 z "},"Ṇ":{"ha":1007,"x_min":139,"x_max":868,"o":"m 842 972 q 861 965 854 972 q 868 946 868 957 l 868 31 q 859 8 868 15 q 839 0 850 0 q 827 3 833 0 q 817 11 821 6 l 172 892 l 192 901 l 192 24 q 184 7 192 14 q 165 0 176 0 q 146 7 153 0 q 139 24 139 14 l 139 944 q 147 966 139 960 q 164 972 156 972 q 175 970 169 972 q 185 963 181 968 l 826 88 l 815 60 l 815 946 q 824 965 815 957 q 842 972 832 972 m 504 -190 q 469 -176 482 -190 q 456 -140 456 -162 l 456 -129 q 469 -93 456 -107 q 506 -79 483 -79 q 538 -93 525 -79 q 551 -129 551 -107 l 551 -140 q 538 -176 551 -162 q 504 -190 525 -190 z "},"Ŋ":{"ha":1035,"x_min":139,"x_max":896,"o":"m 653 -278 q 631 -270 639 -278 q 622 -250 622 -262 q 631 -230 622 -237 q 651 -222 639 -222 q 772 -201 732 -222 q 826 -144 813 -181 q 840 -61 840 -107 l 842 51 l 850 6 l 193 865 l 194 869 l 194 28 q 186 8 194 17 q 167 0 178 0 q 147 8 154 0 q 139 28 139 17 l 139 944 q 148 965 139 958 q 168 972 157 972 q 182 967 175 972 q 190 960 189 963 l 849 99 l 840 88 l 840 939 q 849 958 840 950 q 868 967 857 967 q 888 958 881 967 q 896 939 896 950 l 896 58 l 896 -61 q 876 -165 896 -115 q 803 -247 856 -215 q 653 -278 751 -278 z "},"Ɲ":{"ha":1007,"x_min":-25,"x_max":868,"o":"m 6 -275 q -17 -269 -8 -276 q -25 -250 -25 -261 q -17 -229 -25 -236 q 0 -221 -10 -222 q 63 -200 31 -215 q 117 -156 94 -185 q 139 -81 139 -126 l 139 944 q 147 966 139 960 q 164 972 156 972 q 175 970 169 972 q 185 963 181 968 l 826 88 l 815 60 l 815 946 q 824 965 815 957 q 842 972 832 972 q 861 965 854 972 q 868 946 868 957 l 868 31 q 859 8 868 15 q 839 0 850 0 q 827 3 833 0 q 817 11 821 6 l 172 892 l 192 901 l 192 -81 q 181 -146 192 -117 q 151 -197 169 -175 q 109 -235 133 -219 q 58 -261 85 -251 q 6 -275 32 -271 z "},"ǋ":{"ha":1379,"x_min":139,"x_max":1215,"o":"m 842 972 q 861 965 854 972 q 868 946 868 957 l 868 31 q 859 8 868 15 q 839 0 850 0 q 827 3 833 0 q 817 11 821 6 l 172 892 l 192 901 l 192 24 q 184 7 192 14 q 165 0 176 0 q 146 7 153 0 q 139 24 139 14 l 139 944 q 147 966 139 960 q 164 972 156 972 q 175 970 169 972 q 185 963 181 968 l 826 88 l 815 60 l 815 946 q 824 965 815 957 q 842 972 832 972 z "},"Ṉ":{"ha":1007,"x_min":139,"x_max":868,"o":"m 842 972 q 861 965 854 972 q 868 946 868 957 l 868 31 q 859 8 868 15 q 839 0 850 0 q 827 3 833 0 q 817 11 821 6 l 172 892 l 192 901 l 192 24 q 184 7 192 14 q 165 0 176 0 q 146 7 153 0 q 139 24 139 14 l 139 944 q 147 966 139 960 q 164 972 156 972 q 175 970 169 972 q 185 963 181 968 l 826 88 l 815 60 l 815 946 q 824 965 815 957 q 842 972 832 972 m 372 -162 q 344 -137 344 -162 q 372 -111 344 -111 l 650 -111 q 678 -137 678 -111 q 650 -162 678 -162 l 372 -162 z "},"Ñ":{"ha":1007,"x_min":139,"x_max":868,"o":"m 842 972 q 861 965 854 972 q 868 946 868 957 l 868 31 q 859 8 868 15 q 839 0 850 0 q 827 3 833 0 q 817 11 821 6 l 172 892 l 192 901 l 192 24 q 184 7 192 14 q 165 0 176 0 q 146 7 153 0 q 139 24 139 14 l 139 944 q 147 966 139 960 q 164 972 156 972 q 175 970 169 972 q 185 963 181 968 l 826 88 l 815 60 l 815 946 q 824 965 815 957 q 842 972 832 972 m 328 1086 q 310 1099 314 1086 q 311 1135 306 1111 q 356 1200 324 1181 q 421 1219 388 1219 q 483 1199 450 1219 q 549 1160 517 1179 q 604 1140 581 1140 q 638 1158 625 1140 q 656 1203 651 1175 q 663 1221 657 1214 q 681 1228 669 1228 q 701 1215 697 1228 q 700 1181 704 1201 q 677 1127 693 1147 q 640 1099 661 1107 q 593 1090 618 1090 q 534 1110 567 1090 q 470 1148 501 1129 q 415 1167 439 1167 q 378 1152 394 1167 q 353 1106 363 1138 q 342 1091 350 1096 q 328 1086 335 1086 z "},"O":{"ha":1067,"x_min":69,"x_max":997,"o":"m 997 486 q 963 283 997 375 q 867 125 929 192 q 719 22 804 58 q 533 -14 635 -14 q 347 22 432 -14 q 200 125 263 58 q 103 283 138 192 q 69 486 69 375 q 103 689 69 597 q 200 847 138 781 q 347 950 263 914 q 533 986 432 986 q 719 950 635 986 q 867 847 804 914 q 963 689 929 781 q 997 486 997 597 m 939 486 q 887 719 939 619 q 744 875 835 819 q 533 931 653 931 q 324 875 415 931 q 180 719 232 819 q 128 486 128 619 q 180 253 128 353 q 324 97 232 153 q 533 42 415 42 q 744 97 653 42 q 887 253 835 153 q 939 486 939 353 z "},"Ó":{"ha":1067,"x_min":69,"x_max":997,"o":"m 997 486 q 963 283 997 375 q 867 125 929 192 q 719 22 804 58 q 533 -14 635 -14 q 347 22 432 -14 q 200 125 263 58 q 103 283 138 192 q 69 486 69 375 q 103 689 69 597 q 200 847 138 781 q 347 950 263 914 q 533 986 432 986 q 719 950 635 986 q 867 847 804 914 q 963 689 929 781 q 997 486 997 597 m 939 486 q 887 719 939 619 q 744 875 835 819 q 533 931 653 931 q 324 875 415 931 q 180 719 232 819 q 128 486 128 619 q 180 253 128 353 q 324 97 232 153 q 533 42 415 42 q 744 97 653 42 q 887 253 835 153 q 939 486 939 353 m 539 1039 q 526 1044 529 1039 q 522 1056 522 1050 q 526 1067 522 1063 q 535 1076 529 1072 l 660 1169 q 673 1177 665 1174 q 690 1181 681 1181 q 715 1170 707 1181 q 722 1147 722 1160 q 717 1127 722 1135 q 703 1114 713 1119 l 568 1049 q 555 1042 563 1046 q 539 1039 547 1039 z "},"Ŏ":{"ha":1067,"x_min":69,"x_max":997,"o":"m 997 486 q 963 283 997 375 q 867 125 929 192 q 719 22 804 58 q 533 -14 635 -14 q 347 22 432 -14 q 200 125 263 58 q 103 283 138 192 q 69 486 69 375 q 103 689 69 597 q 200 847 138 781 q 347 950 263 914 q 533 986 432 986 q 719 950 635 986 q 867 847 804 914 q 963 689 929 781 q 997 486 997 597 m 939 486 q 887 719 939 619 q 744 875 835 819 q 533 931 653 931 q 324 875 415 931 q 180 719 232 819 q 128 486 128 619 q 180 253 128 353 q 324 97 232 153 q 533 42 415 42 q 744 97 653 42 q 887 253 835 153 q 939 486 939 353 m 533 1083 q 417 1121 464 1083 q 353 1226 369 1158 q 355 1249 350 1240 q 374 1257 360 1257 q 392 1251 388 1257 q 401 1233 396 1246 q 453 1162 421 1186 q 533 1138 486 1138 q 664 1233 626 1138 q 674 1250 668 1244 q 692 1256 681 1256 q 712 1249 707 1256 q 714 1226 717 1242 q 650 1121 697 1158 q 533 1083 603 1083 z "},"Ǒ":{"ha":1067,"x_min":69,"x_max":997,"o":"m 997 486 q 963 283 997 375 q 867 125 929 192 q 719 22 804 58 q 533 -14 635 -14 q 347 22 432 -14 q 200 125 263 58 q 103 283 138 192 q 69 486 69 375 q 103 689 69 597 q 200 847 138 781 q 347 950 263 914 q 533 986 432 986 q 719 950 635 986 q 867 847 804 914 q 963 689 929 781 q 997 486 997 597 m 939 486 q 887 719 939 619 q 744 875 835 819 q 533 931 653 931 q 324 875 415 931 q 180 719 232 819 q 128 486 128 619 q 180 253 128 353 q 324 97 232 153 q 533 42 415 42 q 744 97 653 42 q 887 253 835 153 q 939 486 939 353 m 525 1104 l 650 1210 q 664 1220 657 1217 q 676 1224 671 1224 q 688 1219 683 1224 q 693 1207 693 1214 q 691 1199 693 1203 q 685 1190 689 1194 l 572 1071 q 558 1058 567 1061 q 539 1054 550 1054 l 525 1054 q 506 1058 514 1054 q 492 1071 499 1061 l 379 1189 q 373 1197 375 1193 q 371 1206 371 1201 q 376 1217 371 1213 q 388 1222 381 1222 q 414 1208 397 1222 l 540 1110 l 525 1104 z "},"Ô":{"ha":1067,"x_min":69,"x_max":997,"o":"m 997 486 q 963 283 997 375 q 867 125 929 192 q 719 22 804 58 q 533 -14 635 -14 q 347 22 432 -14 q 200 125 263 58 q 103 283 138 192 q 69 486 69 375 q 103 689 69 597 q 200 847 138 781 q 347 950 263 914 q 533 986 432 986 q 719 950 635 986 q 867 847 804 914 q 963 689 929 781 q 997 486 997 597 m 939 486 q 887 719 939 619 q 744 875 835 819 q 533 931 653 931 q 324 875 415 931 q 180 719 232 819 q 128 486 128 619 q 180 253 128 353 q 324 97 232 153 q 533 42 415 42 q 744 97 653 42 q 887 253 835 153 q 939 486 939 353 m 539 1186 l 414 1081 q 401 1071 407 1075 q 388 1067 394 1067 q 376 1072 381 1067 q 371 1083 371 1078 q 373 1092 371 1088 q 379 1100 375 1096 l 492 1219 q 507 1232 500 1228 q 525 1236 514 1236 l 539 1236 q 557 1232 550 1236 q 572 1219 564 1228 l 685 1101 q 691 1093 689 1097 q 693 1085 693 1089 q 688 1074 693 1079 q 676 1068 683 1068 q 664 1072 671 1068 q 650 1082 657 1076 l 524 1181 l 539 1186 z "},"Ố":{"ha":1067,"x_min":69,"x_max":997,"o":"m 997 486 q 963 283 997 375 q 867 125 929 192 q 719 22 804 58 q 533 -14 635 -14 q 347 22 432 -14 q 200 125 263 58 q 103 283 138 192 q 69 486 69 375 q 103 689 69 597 q 200 847 138 781 q 347 950 263 914 q 533 986 432 986 q 719 950 635 986 q 867 847 804 914 q 963 689 929 781 q 997 486 997 597 m 939 486 q 887 719 939 619 q 744 875 835 819 q 533 931 653 931 q 324 875 415 931 q 180 719 232 819 q 128 486 128 619 q 180 253 128 353 q 324 97 232 153 q 533 42 415 42 q 744 97 653 42 q 887 253 835 153 q 939 486 939 353 m 539 1186 l 414 1081 q 401 1071 407 1075 q 388 1067 394 1067 q 376 1072 381 1067 q 371 1083 371 1078 q 373 1092 371 1088 q 379 1100 375 1096 l 492 1219 q 507 1232 500 1228 q 525 1236 514 1236 l 539 1236 q 557 1232 550 1236 q 572 1219 564 1228 l 685 1101 q 691 1093 689 1097 q 693 1085 693 1089 q 688 1074 693 1079 q 676 1068 683 1068 q 664 1072 671 1068 q 650 1082 657 1076 l 524 1181 l 539 1186 m 711 1146 q 698 1151 701 1146 q 694 1163 694 1157 q 698 1174 694 1169 q 707 1183 701 1179 l 832 1276 q 845 1284 838 1281 q 863 1288 853 1288 q 887 1277 879 1288 q 894 1254 894 1267 q 890 1234 894 1242 q 875 1221 885 1226 l 740 1156 q 727 1149 735 1153 q 711 1146 719 1146 z "},"Ộ":{"ha":1067,"x_min":69,"x_max":997,"o":"m 997 486 q 963 283 997 375 q 867 125 929 192 q 719 22 804 58 q 533 -14 635 -14 q 347 22 432 -14 q 200 125 263 58 q 103 283 138 192 q 69 486 69 375 q 103 689 69 597 q 200 847 138 781 q 347 950 263 914 q 533 986 432 986 q 719 950 635 986 q 867 847 804 914 q 963 689 929 781 q 997 486 997 597 m 939 486 q 887 719 939 619 q 744 875 835 819 q 533 931 653 931 q 324 875 415 931 q 180 719 232 819 q 128 486 128 619 q 180 253 128 353 q 324 97 232 153 q 533 42 415 42 q 744 97 653 42 q 887 253 835 153 q 939 486 939 353 m 533 -190 q 498 -176 511 -190 q 485 -140 485 -162 l 485 -129 q 499 -93 485 -107 q 535 -79 513 -79 q 567 -93 554 -79 q 581 -129 581 -107 l 581 -140 q 567 -176 581 -162 q 533 -190 554 -190 m 539 1186 l 414 1081 q 401 1071 407 1075 q 388 1067 394 1067 q 376 1072 381 1067 q 371 1083 371 1078 q 373 1092 371 1088 q 379 1100 375 1096 l 492 1219 q 507 1232 500 1228 q 525 1236 514 1236 l 539 1236 q 557 1232 550 1236 q 572 1219 564 1228 l 685 1101 q 691 1093 689 1097 q 693 1085 693 1089 q 688 1074 693 1079 q 676 1068 683 1068 q 664 1072 671 1068 q 650 1082 657 1076 l 524 1181 l 539 1186 z "},"Ồ":{"ha":1067,"x_min":69,"x_max":997,"o":"m 997 486 q 963 283 997 375 q 867 125 929 192 q 719 22 804 58 q 533 -14 635 -14 q 347 22 432 -14 q 200 125 263 58 q 103 283 138 192 q 69 486 69 375 q 103 689 69 597 q 200 847 138 781 q 347 950 263 914 q 533 986 432 986 q 719 950 635 986 q 867 847 804 914 q 963 689 929 781 q 997 486 997 597 m 939 486 q 887 719 939 619 q 744 875 835 819 q 533 931 653 931 q 324 875 415 931 q 180 719 232 819 q 128 486 128 619 q 180 253 128 353 q 324 97 232 153 q 533 42 415 42 q 744 97 653 42 q 887 253 835 153 q 939 486 939 353 m 539 1186 l 414 1081 q 401 1071 407 1075 q 388 1067 394 1067 q 376 1072 381 1067 q 371 1083 371 1078 q 373 1092 371 1088 q 379 1100 375 1096 l 492 1219 q 507 1232 500 1228 q 525 1236 514 1236 l 539 1236 q 557 1232 550 1236 q 572 1219 564 1228 l 685 1101 q 691 1093 689 1097 q 693 1085 693 1089 q 688 1074 693 1079 q 676 1068 683 1068 q 664 1072 671 1068 q 650 1082 657 1076 l 524 1181 l 539 1186 m 690 1224 q 675 1227 682 1224 q 661 1233 668 1231 l 526 1299 q 507 1332 507 1310 q 515 1355 507 1344 q 539 1365 522 1365 q 556 1362 549 1365 q 569 1354 564 1358 l 694 1261 q 703 1252 700 1257 q 707 1240 707 1247 q 703 1229 707 1235 q 690 1224 700 1224 z "},"Ổ":{"ha":1067,"x_min":69,"x_max":997,"o":"m 997 486 q 963 283 997 375 q 867 125 929 192 q 719 22 804 58 q 533 -14 635 -14 q 347 22 432 -14 q 200 125 263 58 q 103 283 138 192 q 69 486 69 375 q 103 689 69 597 q 200 847 138 781 q 347 950 263 914 q 533 986 432 986 q 719 950 635 986 q 867 847 804 914 q 963 689 929 781 q 997 486 997 597 m 939 486 q 887 719 939 619 q 744 875 835 819 q 533 931 653 931 q 324 875 415 931 q 180 719 232 819 q 128 486 128 619 q 180 253 128 353 q 324 97 232 153 q 533 42 415 42 q 744 97 653 42 q 887 253 835 153 q 939 486 939 353 z "},"Ỗ":{"ha":1067,"x_min":69,"x_max":997,"o":"m 997 486 q 963 283 997 375 q 867 125 929 192 q 719 22 804 58 q 533 -14 635 -14 q 347 22 432 -14 q 200 125 263 58 q 103 283 138 192 q 69 486 69 375 q 103 689 69 597 q 200 847 138 781 q 347 950 263 914 q 533 986 432 986 q 719 950 635 986 q 867 847 804 914 q 963 689 929 781 q 997 486 997 597 m 939 486 q 887 719 939 619 q 744 875 835 819 q 533 931 653 931 q 324 875 415 931 q 180 719 232 819 q 128 486 128 619 q 180 253 128 353 q 324 97 232 153 q 533 42 415 42 q 744 97 653 42 q 887 253 835 153 q 939 486 939 353 m 539 1186 l 414 1081 q 401 1071 407 1075 q 388 1067 394 1067 q 376 1072 381 1067 q 371 1083 371 1078 q 373 1092 371 1088 q 379 1100 375 1096 l 492 1219 q 507 1232 500 1228 q 525 1236 514 1236 l 539 1236 q 557 1232 550 1236 q 572 1219 564 1228 l 685 1101 q 691 1093 689 1097 q 693 1085 693 1089 q 688 1074 693 1079 q 676 1068 683 1068 q 664 1072 671 1068 q 650 1082 657 1076 l 524 1181 l 539 1186 m 357 1247 q 339 1260 343 1247 q 340 1296 335 1272 q 385 1361 353 1342 q 450 1381 417 1381 q 513 1360 479 1381 q 578 1321 546 1340 q 633 1301 610 1301 q 667 1319 654 1301 q 685 1364 681 1336 q 692 1382 686 1375 q 710 1389 699 1389 q 730 1376 726 1389 q 729 1342 733 1363 q 706 1288 722 1308 q 669 1260 690 1268 q 622 1251 647 1251 q 563 1271 596 1251 q 499 1309 531 1290 q 444 1328 468 1328 q 408 1313 424 1328 q 382 1267 392 1299 q 372 1252 379 1257 q 357 1247 364 1247 z "},"Ȍ":{"ha":1067,"x_min":69,"x_max":997,"o":"m 997 486 q 963 283 997 375 q 867 125 929 192 q 719 22 804 58 q 533 -14 635 -14 q 347 22 432 -14 q 200 125 263 58 q 103 283 138 192 q 69 486 69 375 q 103 689 69 597 q 200 847 138 781 q 347 950 263 914 q 533 986 432 986 q 719 950 635 986 q 867 847 804 914 q 963 689 929 781 q 997 486 997 597 m 939 486 q 887 719 939 619 q 744 875 835 819 q 533 931 653 931 q 324 875 415 931 q 180 719 232 819 q 128 486 128 619 q 180 253 128 353 q 324 97 232 153 q 533 42 415 42 q 744 97 653 42 q 887 253 835 153 q 939 486 939 353 m 489 1050 q 474 1053 481 1050 q 460 1060 467 1057 l 325 1125 q 306 1158 306 1136 q 313 1181 306 1171 q 338 1192 321 1192 q 355 1188 347 1192 q 368 1181 363 1185 l 493 1088 q 502 1078 499 1083 q 506 1067 506 1074 q 502 1056 506 1061 q 489 1050 499 1050 m 704 1044 q 689 1048 696 1044 q 675 1054 682 1051 l 540 1119 q 521 1153 521 1131 q 528 1176 521 1165 q 553 1186 536 1186 q 570 1183 563 1186 q 583 1175 578 1179 l 708 1082 q 717 1073 714 1078 q 721 1061 721 1068 q 717 1050 721 1056 q 704 1044 714 1044 z "},"Ö":{"ha":1067,"x_min":69,"x_max":997,"o":"m 997 486 q 963 283 997 375 q 867 125 929 192 q 719 22 804 58 q 533 -14 635 -14 q 347 22 432 -14 q 200 125 263 58 q 103 283 138 192 q 69 486 69 375 q 103 689 69 597 q 200 847 138 781 q 347 950 263 914 q 533 986 432 986 q 719 950 635 986 q 867 847 804 914 q 963 689 929 781 q 997 486 997 597 m 939 486 q 887 719 939 619 q 744 875 835 819 q 533 931 653 931 q 324 875 415 931 q 180 719 232 819 q 128 486 128 619 q 180 253 128 353 q 324 97 232 153 q 533 42 415 42 q 744 97 653 42 q 887 253 835 153 q 939 486 939 353 m 647 1083 q 612 1097 625 1083 q 599 1133 599 1111 l 599 1144 q 613 1181 599 1167 q 649 1194 626 1194 q 681 1181 668 1194 q 694 1144 694 1167 l 694 1133 q 681 1097 694 1111 q 647 1083 668 1083 m 421 1083 q 385 1097 399 1083 q 372 1133 372 1111 l 372 1144 q 386 1181 372 1167 q 422 1194 400 1194 q 455 1181 442 1194 q 468 1144 468 1167 l 468 1133 q 455 1097 468 1111 q 421 1083 442 1083 z "},"Ȫ":{"ha":1067,"x_min":69,"x_max":997,"o":"m 997 486 q 963 283 997 375 q 867 125 929 192 q 719 22 804 58 q 533 -14 635 -14 q 347 22 432 -14 q 200 125 263 58 q 103 283 138 192 q 69 486 69 375 q 103 689 69 597 q 200 847 138 781 q 347 950 263 914 q 533 986 432 986 q 719 950 635 986 q 867 847 804 914 q 963 689 929 781 q 997 486 997 597 m 939 486 q 887 719 939 619 q 744 875 835 819 q 533 931 653 931 q 324 875 415 931 q 180 719 232 819 q 128 486 128 619 q 180 253 128 353 q 324 97 232 153 q 533 42 415 42 q 744 97 653 42 q 887 253 835 153 q 939 486 939 353 m 647 1083 q 612 1097 625 1083 q 599 1133 599 1111 l 599 1144 q 613 1181 599 1167 q 649 1194 626 1194 q 681 1181 668 1194 q 694 1144 694 1167 l 694 1133 q 681 1097 694 1111 q 647 1083 668 1083 m 421 1083 q 385 1097 399 1083 q 372 1133 372 1111 l 372 1144 q 386 1181 372 1167 q 422 1194 400 1194 q 455 1181 442 1194 q 468 1144 468 1167 l 468 1133 q 455 1097 468 1111 q 421 1083 442 1083 m 358 1333 q 328 1358 328 1333 q 358 1386 328 1386 l 719 1386 q 750 1358 750 1386 q 719 1333 750 1333 l 358 1333 z "},"Ȱ":{"ha":1067,"x_min":69,"x_max":997,"o":"m 997 486 q 963 283 997 375 q 867 125 929 192 q 719 22 804 58 q 533 -14 635 -14 q 347 22 432 -14 q 200 125 263 58 q 103 283 138 192 q 69 486 69 375 q 103 689 69 597 q 200 847 138 781 q 347 950 263 914 q 533 986 432 986 q 719 950 635 986 q 867 847 804 914 q 963 689 929 781 q 997 486 997 597 m 939 486 q 887 719 939 619 q 744 875 835 819 q 533 931 653 931 q 324 875 415 931 q 180 719 232 819 q 128 486 128 619 q 180 253 128 353 q 324 97 232 153 q 533 42 415 42 q 744 97 653 42 q 887 253 835 153 q 939 486 939 353 m 533 1083 q 498 1097 511 1083 q 485 1133 485 1111 l 485 1144 q 499 1181 485 1167 q 535 1194 513 1194 q 567 1181 554 1194 q 581 1144 581 1167 l 581 1133 q 567 1097 581 1111 q 533 1083 554 1083 m 358 1333 q 328 1358 328 1333 q 358 1386 328 1386 l 719 1386 q 750 1358 750 1386 q 719 1333 750 1333 l 358 1333 z "},"Ọ":{"ha":1067,"x_min":69,"x_max":997,"o":"m 997 486 q 963 283 997 375 q 867 125 929 192 q 719 22 804 58 q 533 -14 635 -14 q 347 22 432 -14 q 200 125 263 58 q 103 283 138 192 q 69 486 69 375 q 103 689 69 597 q 200 847 138 781 q 347 950 263 914 q 533 986 432 986 q 719 950 635 986 q 867 847 804 914 q 963 689 929 781 q 997 486 997 597 m 939 486 q 887 719 939 619 q 744 875 835 819 q 533 931 653 931 q 324 875 415 931 q 180 719 232 819 q 128 486 128 619 q 180 253 128 353 q 324 97 232 153 q 533 42 415 42 q 744 97 653 42 q 887 253 835 153 q 939 486 939 353 m 533 -190 q 498 -176 511 -190 q 485 -140 485 -162 l 485 -129 q 499 -93 485 -107 q 535 -79 513 -79 q 567 -93 554 -79 q 581 -129 581 -107 l 581 -140 q 567 -176 581 -162 q 533 -190 554 -190 z "},"Ò":{"ha":1067,"x_min":69,"x_max":997,"o":"m 997 486 q 963 283 997 375 q 867 125 929 192 q 719 22 804 58 q 533 -14 635 -14 q 347 22 432 -14 q 200 125 263 58 q 103 283 138 192 q 69 486 69 375 q 103 689 69 597 q 200 847 138 781 q 347 950 263 914 q 533 986 432 986 q 719 950 635 986 q 867 847 804 914 q 963 689 929 781 q 997 486 997 597 m 939 486 q 887 719 939 619 q 744 875 835 819 q 533 931 653 931 q 324 875 415 931 q 180 719 232 819 q 128 486 128 619 q 180 253 128 353 q 324 97 232 153 q 533 42 415 42 q 744 97 653 42 q 887 253 835 153 q 939 486 939 353 m 533 1039 q 518 1042 525 1039 q 504 1049 511 1046 l 369 1114 q 350 1147 350 1125 q 358 1170 350 1160 q 382 1181 365 1181 q 399 1177 392 1181 q 413 1169 407 1174 l 538 1076 q 547 1067 543 1072 q 550 1056 550 1063 q 547 1044 550 1050 q 533 1039 543 1039 z "},"Ỏ":{"ha":1067,"x_min":69,"x_max":997,"o":"m 997 486 q 963 283 997 375 q 867 125 929 192 q 719 22 804 58 q 533 -14 635 -14 q 347 22 432 -14 q 200 125 263 58 q 103 283 138 192 q 69 486 69 375 q 103 689 69 597 q 200 847 138 781 q 347 950 263 914 q 533 986 432 986 q 719 950 635 986 q 867 847 804 914 q 963 689 929 781 q 997 486 997 597 m 939 486 q 887 719 939 619 q 744 875 835 819 q 533 931 653 931 q 324 875 415 931 q 180 719 232 819 q 128 486 128 619 q 180 253 128 353 q 324 97 232 153 q 533 42 415 42 q 744 97 653 42 q 887 253 835 153 q 939 486 939 353 m 436 1242 q 482 1274 456 1261 q 538 1286 508 1286 q 599 1270 576 1286 q 631 1232 621 1254 q 640 1190 640 1210 q 626 1146 640 1165 q 588 1103 611 1126 q 579 1090 582 1097 q 575 1071 576 1083 q 567 1056 574 1061 q 551 1051 561 1051 q 535 1058 540 1051 q 529 1074 529 1065 q 532 1100 529 1085 q 549 1129 535 1115 q 580 1161 568 1149 q 592 1192 592 1174 q 576 1224 592 1211 q 540 1236 561 1236 q 504 1228 521 1236 q 475 1210 488 1219 q 452 1199 464 1200 q 432 1207 440 1197 q 426 1223 426 1214 q 436 1242 426 1232 z "},"Ơ":{"ha":1067,"x_min":69,"x_max":997,"o":"m 997 486 q 963 283 997 375 q 867 125 929 192 q 719 22 804 58 q 533 -14 635 -14 q 347 22 432 -14 q 200 125 263 58 q 103 283 138 192 q 69 486 69 375 q 103 689 69 597 q 200 847 138 781 q 347 950 263 914 q 533 986 432 986 q 719 950 635 986 q 867 847 804 914 q 963 689 929 781 q 997 486 997 597 m 939 486 q 887 719 939 619 q 744 875 835 819 q 533 931 653 931 q 324 875 415 931 q 180 719 232 819 q 128 486 128 619 q 180 253 128 353 q 324 97 232 153 q 533 42 415 42 q 744 97 653 42 q 887 253 835 153 q 939 486 939 353 m 646 919 l 646 972 q 748 998 715 972 q 781 1086 781 1024 q 786 1115 781 1103 q 806 1128 792 1128 q 826 1114 822 1128 q 831 1086 831 1100 q 807 996 831 1033 q 742 939 783 958 q 646 919 701 919 z "},"Ớ":{"ha":1067,"x_min":69,"x_max":997,"o":"m 997 486 q 963 283 997 375 q 867 125 929 192 q 719 22 804 58 q 533 -14 635 -14 q 347 22 432 -14 q 200 125 263 58 q 103 283 138 192 q 69 486 69 375 q 103 689 69 597 q 200 847 138 781 q 347 950 263 914 q 533 986 432 986 q 719 950 635 986 q 867 847 804 914 q 963 689 929 781 q 997 486 997 597 m 939 486 q 887 719 939 619 q 744 875 835 819 q 533 931 653 931 q 324 875 415 931 q 180 719 232 819 q 128 486 128 619 q 180 253 128 353 q 324 97 232 153 q 533 42 415 42 q 744 97 653 42 q 887 253 835 153 q 939 486 939 353 m 646 919 l 646 972 q 748 998 715 972 q 781 1086 781 1024 q 786 1115 781 1103 q 806 1128 792 1128 q 826 1114 822 1128 q 831 1086 831 1100 q 807 996 831 1033 q 742 939 783 958 q 646 919 701 919 m 539 1039 q 526 1044 529 1039 q 522 1056 522 1050 q 526 1067 522 1063 q 535 1076 529 1072 l 660 1169 q 673 1177 665 1174 q 690 1181 681 1181 q 715 1170 707 1181 q 722 1147 722 1160 q 717 1127 722 1135 q 703 1114 713 1119 l 568 1049 q 555 1042 563 1046 q 539 1039 547 1039 z "},"Ợ":{"ha":1067,"x_min":69,"x_max":997,"o":"m 997 486 q 963 283 997 375 q 867 125 929 192 q 719 22 804 58 q 533 -14 635 -14 q 347 22 432 -14 q 200 125 263 58 q 103 283 138 192 q 69 486 69 375 q 103 689 69 597 q 200 847 138 781 q 347 950 263 914 q 533 986 432 986 q 719 950 635 986 q 867 847 804 914 q 963 689 929 781 q 997 486 997 597 m 939 486 q 887 719 939 619 q 744 875 835 819 q 533 931 653 931 q 324 875 415 931 q 180 719 232 819 q 128 486 128 619 q 180 253 128 353 q 324 97 232 153 q 533 42 415 42 q 744 97 653 42 q 887 253 835 153 q 939 486 939 353 m 646 919 l 646 972 q 748 998 715 972 q 781 1086 781 1024 q 786 1115 781 1103 q 806 1128 792 1128 q 826 1114 822 1128 q 831 1086 831 1100 q 807 996 831 1033 q 742 939 783 958 q 646 919 701 919 m 533 -190 q 498 -176 511 -190 q 485 -140 485 -162 l 485 -129 q 499 -93 485 -107 q 535 -79 513 -79 q 567 -93 554 -79 q 581 -129 581 -107 l 581 -140 q 567 -176 581 -162 q 533 -190 554 -190 z "},"Ờ":{"ha":1067,"x_min":69,"x_max":997,"o":"m 997 486 q 963 283 997 375 q 867 125 929 192 q 719 22 804 58 q 533 -14 635 -14 q 347 22 432 -14 q 200 125 263 58 q 103 283 138 192 q 69 486 69 375 q 103 689 69 597 q 200 847 138 781 q 347 950 263 914 q 533 986 432 986 q 719 950 635 986 q 867 847 804 914 q 963 689 929 781 q 997 486 997 597 m 939 486 q 887 719 939 619 q 744 875 835 819 q 533 931 653 931 q 324 875 415 931 q 180 719 232 819 q 128 486 128 619 q 180 253 128 353 q 324 97 232 153 q 533 42 415 42 q 744 97 653 42 q 887 253 835 153 q 939 486 939 353 m 646 919 l 646 972 q 748 998 715 972 q 781 1086 781 1024 q 786 1115 781 1103 q 806 1128 792 1128 q 826 1114 822 1128 q 831 1086 831 1100 q 807 996 831 1033 q 742 939 783 958 q 646 919 701 919 m 533 1039 q 518 1042 525 1039 q 504 1049 511 1046 l 369 1114 q 350 1147 350 1125 q 358 1170 350 1160 q 382 1181 365 1181 q 399 1177 392 1181 q 413 1169 407 1174 l 538 1076 q 547 1067 543 1072 q 550 1056 550 1063 q 547 1044 550 1050 q 533 1039 543 1039 z "},"Ở":{"ha":1067,"x_min":69,"x_max":997,"o":"m 997 486 q 963 283 997 375 q 867 125 929 192 q 719 22 804 58 q 533 -14 635 -14 q 347 22 432 -14 q 200 125 263 58 q 103 283 138 192 q 69 486 69 375 q 103 689 69 597 q 200 847 138 781 q 347 950 263 914 q 533 986 432 986 q 719 950 635 986 q 867 847 804 914 q 963 689 929 781 q 997 486 997 597 m 939 486 q 887 719 939 619 q 744 875 835 819 q 533 931 653 931 q 324 875 415 931 q 180 719 232 819 q 128 486 128 619 q 180 253 128 353 q 324 97 232 153 q 533 42 415 42 q 744 97 653 42 q 887 253 835 153 q 939 486 939 353 m 646 919 l 646 972 q 748 998 715 972 q 781 1086 781 1024 q 786 1115 781 1103 q 806 1128 792 1128 q 826 1114 822 1128 q 831 1086 831 1100 q 807 996 831 1033 q 742 939 783 958 q 646 919 701 919 m 436 1242 q 482 1274 456 1261 q 538 1286 508 1286 q 599 1270 576 1286 q 631 1232 621 1254 q 640 1190 640 1210 q 626 1146 640 1165 q 588 1103 611 1126 q 579 1090 582 1097 q 575 1071 576 1083 q 567 1056 574 1061 q 551 1051 561 1051 q 535 1058 540 1051 q 529 1074 529 1065 q 532 1100 529 1085 q 549 1129 535 1115 q 580 1161 568 1149 q 592 1192 592 1174 q 576 1224 592 1211 q 540 1236 561 1236 q 504 1228 521 1236 q 475 1210 488 1219 q 452 1199 464 1200 q 432 1207 440 1197 q 426 1223 426 1214 q 436 1242 426 1232 z "},"Ỡ":{"ha":1067,"x_min":69,"x_max":997,"o":"m 997 486 q 963 283 997 375 q 867 125 929 192 q 719 22 804 58 q 533 -14 635 -14 q 347 22 432 -14 q 200 125 263 58 q 103 283 138 192 q 69 486 69 375 q 103 689 69 597 q 200 847 138 781 q 347 950 263 914 q 533 986 432 986 q 719 950 635 986 q 867 847 804 914 q 963 689 929 781 q 997 486 997 597 m 939 486 q 887 719 939 619 q 744 875 835 819 q 533 931 653 931 q 324 875 415 931 q 180 719 232 819 q 128 486 128 619 q 180 253 128 353 q 324 97 232 153 q 533 42 415 42 q 744 97 653 42 q 887 253 835 153 q 939 486 939 353 m 646 919 l 646 972 q 748 998 715 972 q 781 1086 781 1024 q 786 1115 781 1103 q 806 1128 792 1128 q 826 1114 822 1128 q 831 1086 831 1100 q 807 996 831 1033 q 742 939 783 958 q 646 919 701 919 m 357 1086 q 339 1099 343 1086 q 340 1135 335 1111 q 385 1200 353 1181 q 450 1219 417 1219 q 513 1199 479 1219 q 578 1160 546 1179 q 633 1140 610 1140 q 667 1158 654 1140 q 685 1203 681 1175 q 692 1221 686 1214 q 710 1228 699 1228 q 730 1215 726 1228 q 729 1181 733 1201 q 706 1127 722 1147 q 669 1099 690 1107 q 622 1090 647 1090 q 563 1110 596 1090 q 499 1148 531 1129 q 444 1167 468 1167 q 408 1152 424 1167 q 382 1106 392 1138 q 372 1091 379 1096 q 357 1086 364 1086 z "},"Ő":{"ha":1067,"x_min":69,"x_max":997,"o":"m 997 486 q 963 283 997 375 q 867 125 929 192 q 719 22 804 58 q 533 -14 635 -14 q 347 22 432 -14 q 200 125 263 58 q 103 283 138 192 q 69 486 69 375 q 103 689 69 597 q 200 847 138 781 q 347 950 263 914 q 533 986 432 986 q 719 950 635 986 q 867 847 804 914 q 963 689 929 781 q 997 486 997 597 m 939 486 q 887 719 939 619 q 744 875 835 819 q 533 931 653 931 q 324 875 415 931 q 180 719 232 819 q 128 486 128 619 q 180 253 128 353 q 324 97 232 153 q 533 42 415 42 q 744 97 653 42 q 887 253 835 153 q 939 486 939 353 z "},"Ȏ":{"ha":1067,"x_min":69,"x_max":997,"o":"m 997 486 q 963 283 997 375 q 867 125 929 192 q 719 22 804 58 q 533 -14 635 -14 q 347 22 432 -14 q 200 125 263 58 q 103 283 138 192 q 69 486 69 375 q 103 689 69 597 q 200 847 138 781 q 347 950 263 914 q 533 986 432 986 q 719 950 635 986 q 867 847 804 914 q 963 689 929 781 q 997 486 997 597 m 939 486 q 887 719 939 619 q 744 875 835 819 q 533 931 653 931 q 324 875 415 931 q 180 719 232 819 q 128 486 128 619 q 180 253 128 353 q 324 97 232 153 q 533 42 415 42 q 744 97 653 42 q 887 253 835 153 q 939 486 939 353 m 531 1172 q 615 1153 578 1172 q 676 1101 653 1133 q 699 1033 699 1069 q 691 1016 699 1024 q 672 1008 683 1008 q 652 1016 658 1008 q 643 1036 646 1024 q 604 1098 636 1076 q 531 1119 572 1119 q 457 1098 489 1119 q 418 1036 425 1076 q 410 1016 417 1024 q 389 1008 403 1008 q 370 1016 378 1008 q 363 1033 363 1024 q 385 1101 363 1069 q 447 1153 408 1133 q 531 1172 485 1172 z "},"Ō":{"ha":1067,"x_min":69,"x_max":997,"o":"m 997 486 q 963 283 997 375 q 867 125 929 192 q 719 22 804 58 q 533 -14 635 -14 q 347 22 432 -14 q 200 125 263 58 q 103 283 138 192 q 69 486 69 375 q 103 689 69 597 q 200 847 138 781 q 347 950 263 914 q 533 986 432 986 q 719 950 635 986 q 867 847 804 914 q 963 689 929 781 q 997 486 997 597 m 939 486 q 887 719 939 619 q 744 875 835 819 q 533 931 653 931 q 324 875 415 931 q 180 719 232 819 q 128 486 128 619 q 180 253 128 353 q 324 97 232 153 q 533 42 415 42 q 744 97 653 42 q 887 253 835 153 q 939 486 939 353 m 358 1111 q 328 1136 328 1111 q 358 1164 328 1164 l 719 1164 q 750 1136 750 1164 q 719 1111 750 1111 l 358 1111 z "},"Ṓ":{"ha":1067,"x_min":69,"x_max":997,"o":"m 997 486 q 963 283 997 375 q 867 125 929 192 q 719 22 804 58 q 533 -14 635 -14 q 347 22 432 -14 q 200 125 263 58 q 103 283 138 192 q 69 486 69 375 q 103 689 69 597 q 200 847 138 781 q 347 950 263 914 q 533 986 432 986 q 719 950 635 986 q 867 847 804 914 q 963 689 929 781 q 997 486 997 597 m 939 486 q 887 719 939 619 q 744 875 835 819 q 533 931 653 931 q 324 875 415 931 q 180 719 232 819 q 128 486 128 619 q 180 253 128 353 q 324 97 232 153 q 533 42 415 42 q 744 97 653 42 q 887 253 835 153 q 939 486 939 353 m 358 1111 q 328 1136 328 1111 q 358 1164 328 1164 l 719 1164 q 750 1136 750 1164 q 719 1111 750 1111 l 358 1111 m 539 1246 q 526 1251 529 1246 q 522 1263 522 1257 q 526 1274 522 1269 q 535 1283 529 1279 l 660 1376 q 673 1384 665 1381 q 690 1388 681 1388 q 715 1377 707 1388 q 722 1354 722 1367 q 717 1334 722 1342 q 703 1321 713 1326 l 568 1256 q 555 1249 563 1253 q 539 1246 547 1246 z "},"Ṑ":{"ha":1067,"x_min":69,"x_max":997,"o":"m 997 486 q 963 283 997 375 q 867 125 929 192 q 719 22 804 58 q 533 -14 635 -14 q 347 22 432 -14 q 200 125 263 58 q 103 283 138 192 q 69 486 69 375 q 103 689 69 597 q 200 847 138 781 q 347 950 263 914 q 533 986 432 986 q 719 950 635 986 q 867 847 804 914 q 963 689 929 781 q 997 486 997 597 m 939 486 q 887 719 939 619 q 744 875 835 819 q 533 931 653 931 q 324 875 415 931 q 180 719 232 819 q 128 486 128 619 q 180 253 128 353 q 324 97 232 153 q 533 42 415 42 q 744 97 653 42 q 887 253 835 153 q 939 486 939 353 m 358 1111 q 328 1136 328 1111 q 358 1164 328 1164 l 719 1164 q 750 1136 750 1164 q 719 1111 750 1111 l 358 1111 m 533 1246 q 518 1249 525 1246 q 504 1256 511 1253 l 369 1321 q 350 1354 350 1332 q 358 1377 350 1367 q 382 1388 365 1388 q 399 1384 392 1388 q 413 1376 407 1381 l 538 1283 q 547 1274 543 1279 q 550 1263 550 1269 q 547 1251 550 1257 q 533 1246 543 1246 z "},"Ǫ":{"ha":1067,"x_min":69,"x_max":997,"o":"m 596 -257 q 512 -222 550 -257 q 474 -129 474 -187 q 484 -72 474 -97 q 512 -28 494 -46 q 550 3 529 -10 q 593 24 571 17 l 654 1 q 597 -14 626 3 q 547 -58 567 -31 q 526 -118 526 -86 q 550 -183 526 -160 q 603 -206 574 -206 q 626 -204 617 -206 q 640 -196 635 -203 q 657 -177 649 -185 q 676 -169 665 -169 q 691 -176 686 -169 q 696 -189 696 -182 q 683 -223 696 -207 q 647 -248 669 -239 q 596 -257 625 -257 m 997 486 q 963 283 997 375 q 867 125 929 192 q 719 22 804 58 q 533 -14 635 -14 q 347 22 432 -14 q 200 125 263 58 q 103 283 138 192 q 69 486 69 375 q 103 689 69 597 q 200 847 138 781 q 347 950 263 914 q 533 986 432 986 q 719 950 635 986 q 867 847 804 914 q 963 689 929 781 q 997 486 997 597 m 939 486 q 887 719 939 619 q 744 875 835 819 q 533 931 653 931 q 324 875 415 931 q 180 719 232 819 q 128 486 128 619 q 180 253 128 353 q 324 97 232 153 q 533 42 415 42 q 744 97 653 42 q 887 253 835 153 q 939 486 939 353 z "},"Ø":{"ha":1001,"x_min":68,"x_max":997,"o":"m 92 -28 q 75 -21 82 -28 q 68 -4 68 -14 q 75 14 68 4 l 881 982 q 895 995 889 993 q 911 997 901 997 q 927 992 919 997 q 935 975 935 986 q 926 954 935 964 l 126 -6 q 113 -21 121 -14 q 92 -28 106 -28 m 997 486 q 963 283 997 375 q 867 125 929 192 q 719 22 804 58 q 533 -14 635 -14 q 347 22 432 -14 q 200 125 263 58 q 103 283 138 192 q 69 486 69 375 q 103 689 69 597 q 200 847 138 781 q 347 950 263 914 q 533 986 432 986 q 719 950 635 986 q 867 847 804 914 q 963 689 929 781 q 997 486 997 597 m 939 486 q 887 719 939 619 q 744 875 835 819 q 533 931 653 931 q 324 875 415 931 q 180 719 232 819 q 128 486 128 619 q 180 253 128 353 q 324 97 232 153 q 533 42 415 42 q 744 97 653 42 q 887 253 835 153 q 939 486 939 353 z "},"Ǿ":{"ha":1001,"x_min":68,"x_max":997,"o":"m 92 -28 q 75 -21 82 -28 q 68 -4 68 -14 q 75 14 68 4 l 881 982 q 895 995 889 993 q 911 997 901 997 q 927 992 919 997 q 935 975 935 986 q 926 954 935 964 l 126 -6 q 113 -21 121 -14 q 92 -28 106 -28 m 997 486 q 963 283 997 375 q 867 125 929 192 q 719 22 804 58 q 533 -14 635 -14 q 347 22 432 -14 q 200 125 263 58 q 103 283 138 192 q 69 486 69 375 q 103 689 69 597 q 200 847 138 781 q 347 950 263 914 q 533 986 432 986 q 719 950 635 986 q 867 847 804 914 q 963 689 929 781 q 997 486 997 597 m 939 486 q 887 719 939 619 q 744 875 835 819 q 533 931 653 931 q 324 875 415 931 q 180 719 232 819 q 128 486 128 619 q 180 253 128 353 q 324 97 232 153 q 533 42 415 42 q 744 97 653 42 q 887 253 835 153 q 939 486 939 353 m 507 1039 q 494 1044 497 1039 q 490 1056 490 1050 q 494 1067 490 1063 q 503 1076 497 1072 l 628 1169 q 641 1177 633 1174 q 658 1181 649 1181 q 683 1170 675 1181 q 690 1147 690 1160 q 685 1127 690 1135 q 671 1114 681 1119 l 536 1049 q 523 1042 531 1046 q 507 1039 515 1039 z "},"Õ":{"ha":1067,"x_min":69,"x_max":997,"o":"m 997 486 q 963 283 997 375 q 867 125 929 192 q 719 22 804 58 q 533 -14 635 -14 q 347 22 432 -14 q 200 125 263 58 q 103 283 138 192 q 69 486 69 375 q 103 689 69 597 q 200 847 138 781 q 347 950 263 914 q 533 986 432 986 q 719 950 635 986 q 867 847 804 914 q 963 689 929 781 q 997 486 997 597 m 939 486 q 887 719 939 619 q 744 875 835 819 q 533 931 653 931 q 324 875 415 931 q 180 719 232 819 q 128 486 128 619 q 180 253 128 353 q 324 97 232 153 q 533 42 415 42 q 744 97 653 42 q 887 253 835 153 q 939 486 939 353 m 357 1086 q 339 1099 343 1086 q 340 1135 335 1111 q 385 1200 353 1181 q 450 1219 417 1219 q 513 1199 479 1219 q 578 1160 546 1179 q 633 1140 610 1140 q 667 1158 654 1140 q 685 1203 681 1175 q 692 1221 686 1214 q 710 1228 699 1228 q 730 1215 726 1228 q 729 1181 733 1201 q 706 1127 722 1147 q 669 1099 690 1107 q 622 1090 647 1090 q 563 1110 596 1090 q 499 1148 531 1129 q 444 1167 468 1167 q 408 1152 424 1167 q 382 1106 392 1138 q 372 1091 379 1096 q 357 1086 364 1086 z "},"Ṍ":{"ha":1067,"x_min":69,"x_max":997,"o":"m 997 486 q 963 283 997 375 q 867 125 929 192 q 719 22 804 58 q 533 -14 635 -14 q 347 22 432 -14 q 200 125 263 58 q 103 283 138 192 q 69 486 69 375 q 103 689 69 597 q 200 847 138 781 q 347 950 263 914 q 533 986 432 986 q 719 950 635 986 q 867 847 804 914 q 963 689 929 781 q 997 486 997 597 m 939 486 q 887 719 939 619 q 744 875 835 819 q 533 931 653 931 q 324 875 415 931 q 180 719 232 819 q 128 486 128 619 q 180 253 128 353 q 324 97 232 153 q 533 42 415 42 q 744 97 653 42 q 887 253 835 153 q 939 486 939 353 m 357 1086 q 339 1099 343 1086 q 340 1135 335 1111 q 385 1200 353 1181 q 450 1219 417 1219 q 513 1199 479 1219 q 578 1160 546 1179 q 633 1140 610 1140 q 667 1158 654 1140 q 685 1203 681 1175 q 692 1221 686 1214 q 710 1228 699 1228 q 730 1215 726 1228 q 729 1181 733 1201 q 706 1127 722 1147 q 669 1099 690 1107 q 622 1090 647 1090 q 563 1110 596 1090 q 499 1148 531 1129 q 444 1167 468 1167 q 408 1152 424 1167 q 382 1106 392 1138 q 372 1091 379 1096 q 357 1086 364 1086 m 539 1294 q 526 1300 529 1294 q 522 1311 522 1306 q 526 1323 522 1318 q 535 1332 529 1328 l 660 1425 q 673 1433 665 1429 q 690 1436 681 1436 q 715 1426 707 1436 q 722 1403 722 1415 q 717 1383 722 1390 q 703 1369 713 1375 l 568 1304 q 555 1298 563 1301 q 539 1294 547 1294 z "},"Ṏ":{"ha":1067,"x_min":69,"x_max":997,"o":"m 997 486 q 963 283 997 375 q 867 125 929 192 q 719 22 804 58 q 533 -14 635 -14 q 347 22 432 -14 q 200 125 263 58 q 103 283 138 192 q 69 486 69 375 q 103 689 69 597 q 200 847 138 781 q 347 950 263 914 q 533 986 432 986 q 719 950 635 986 q 867 847 804 914 q 963 689 929 781 q 997 486 997 597 m 939 486 q 887 719 939 619 q 744 875 835 819 q 533 931 653 931 q 324 875 415 931 q 180 719 232 819 q 128 486 128 619 q 180 253 128 353 q 324 97 232 153 q 533 42 415 42 q 744 97 653 42 q 887 253 835 153 q 939 486 939 353 m 357 1086 q 339 1099 343 1086 q 340 1135 335 1111 q 385 1200 353 1181 q 450 1219 417 1219 q 513 1199 479 1219 q 578 1160 546 1179 q 633 1140 610 1140 q 667 1158 654 1140 q 685 1203 681 1175 q 692 1221 686 1214 q 710 1228 699 1228 q 730 1215 726 1228 q 729 1181 733 1201 q 706 1127 722 1147 q 669 1099 690 1107 q 622 1090 647 1090 q 563 1110 596 1090 q 499 1148 531 1129 q 444 1167 468 1167 q 408 1152 424 1167 q 382 1106 392 1138 q 372 1091 379 1096 q 357 1086 364 1086 m 647 1339 q 612 1353 625 1339 q 599 1389 599 1367 l 599 1400 q 613 1436 599 1422 q 649 1450 626 1450 q 681 1436 668 1450 q 694 1400 694 1422 l 694 1389 q 681 1353 694 1367 q 647 1339 668 1339 m 421 1339 q 385 1353 399 1339 q 372 1389 372 1367 l 372 1400 q 386 1436 372 1422 q 422 1450 400 1450 q 455 1436 442 1450 q 468 1400 468 1422 l 468 1389 q 455 1353 468 1367 q 421 1339 442 1339 z "},"Ȭ":{"ha":1067,"x_min":69,"x_max":997,"o":"m 997 486 q 963 283 997 375 q 867 125 929 192 q 719 22 804 58 q 533 -14 635 -14 q 347 22 432 -14 q 200 125 263 58 q 103 283 138 192 q 69 486 69 375 q 103 689 69 597 q 200 847 138 781 q 347 950 263 914 q 533 986 432 986 q 719 950 635 986 q 867 847 804 914 q 963 689 929 781 q 997 486 997 597 m 939 486 q 887 719 939 619 q 744 875 835 819 q 533 931 653 931 q 324 875 415 931 q 180 719 232 819 q 128 486 128 619 q 180 253 128 353 q 324 97 232 153 q 533 42 415 42 q 744 97 653 42 q 887 253 835 153 q 939 486 939 353 m 357 1086 q 339 1099 343 1086 q 340 1135 335 1111 q 385 1200 353 1181 q 450 1219 417 1219 q 513 1199 479 1219 q 578 1160 546 1179 q 633 1140 610 1140 q 667 1158 654 1140 q 685 1203 681 1175 q 692 1221 686 1214 q 710 1228 699 1228 q 730 1215 726 1228 q 729 1181 733 1201 q 706 1127 722 1147 q 669 1099 690 1107 q 622 1090 647 1090 q 563 1110 596 1090 q 499 1148 531 1129 q 444 1167 468 1167 q 408 1152 424 1167 q 382 1106 392 1138 q 372 1091 379 1096 q 357 1086 364 1086 m 358 1367 q 328 1392 328 1367 q 358 1419 328 1419 l 719 1419 q 750 1392 750 1419 q 719 1367 750 1367 l 358 1367 z "},"Œ":{"ha":1386,"x_min":69,"x_max":1317,"o":"m 1289 56 q 1308 47 1300 56 q 1317 28 1317 39 q 1308 8 1317 15 q 1289 0 1300 0 l 472 0 q 244 66 333 0 q 112 242 154 132 q 69 486 69 353 q 93 668 69 581 q 166 824 117 756 q 292 933 215 893 q 472 972 368 972 l 1289 972 q 1308 964 1300 972 q 1317 944 1317 956 q 1308 924 1317 932 q 1289 917 1300 917 l 800 917 l 807 922 l 807 521 l 799 536 l 1226 536 q 1246 528 1238 536 q 1254 508 1254 519 q 1246 488 1254 496 q 1226 481 1238 481 l 799 481 l 807 489 l 807 46 l 799 56 l 1289 56 m 760 56 l 750 42 l 750 925 l 756 917 l 486 917 q 322 882 390 917 q 210 787 254 847 q 146 649 167 726 q 125 486 125 571 q 163 269 125 367 q 280 113 200 171 q 486 56 360 56 l 760 56 z "},"P":{"ha":825,"x_min":139,"x_max":763,"o":"m 500 972 q 638 939 579 972 q 730 846 697 906 q 763 707 763 786 q 730 567 763 629 q 638 468 697 504 q 500 432 579 432 l 192 432 l 197 442 l 197 28 q 188 8 197 17 q 168 0 179 0 q 147 8 154 0 q 139 28 139 17 l 139 944 q 147 964 139 956 q 167 972 156 972 l 500 972 m 500 488 q 609 516 564 488 q 679 594 654 544 q 704 707 704 644 q 679 817 704 771 q 609 890 654 864 q 500 917 564 917 l 193 917 l 197 924 l 197 483 l 192 488 l 500 488 z "},"Þ":{"ha":810,"x_min":139,"x_max":747,"o":"m 194 28 q 186 8 194 17 q 167 0 178 0 q 147 8 154 0 q 139 28 139 17 l 139 1000 q 147 1019 139 1011 q 167 1028 156 1028 q 187 1019 179 1028 q 194 1000 194 1011 l 194 28 m 176 331 l 485 331 q 594 359 549 331 q 664 438 639 388 q 689 550 689 488 q 664 660 689 614 q 594 733 639 707 q 485 760 549 760 l 178 760 l 151 815 l 485 815 q 623 782 564 815 q 715 689 682 749 q 747 550 747 629 q 715 410 747 472 q 623 311 682 347 q 485 275 564 275 l 176 275 l 176 331 z "},"Q":{"ha":1086,"x_min":69,"x_max":1107,"o":"m 1083 -90 q 1101 -97 1094 -90 q 1107 -114 1107 -103 q 1084 -155 1107 -135 q 1024 -192 1061 -175 q 944 -219 986 -210 q 863 -229 901 -229 q 724 -210 781 -229 q 623 -167 668 -192 q 531 -124 578 -143 q 418 -106 483 -106 q 373 -113 393 -106 q 338 -128 353 -121 q 311 -136 324 -136 q 292 -128 300 -136 q 283 -107 283 -119 q 299 -83 283 -90 l 522 -6 l 650 0 l 446 -67 l 444 -56 q 554 -74 506 -56 q 648 -116 603 -92 q 744 -158 693 -140 q 863 -176 796 -176 q 961 -160 922 -176 q 1022 -131 1000 -143 q 1055 -105 1042 -119 q 1083 -90 1068 -90 m 997 486 q 963 283 997 375 q 867 125 929 192 q 719 22 804 58 q 533 -14 635 -14 q 347 22 432 -14 q 200 125 263 58 q 103 283 138 192 q 69 486 69 375 q 103 689 69 597 q 200 847 138 781 q 347 950 263 914 q 533 986 432 986 q 719 950 635 986 q 867 847 804 914 q 963 689 929 781 q 997 486 997 597 m 939 486 q 887 719 939 619 q 744 875 835 819 q 533 931 653 931 q 324 875 415 931 q 180 719 232 819 q 128 486 128 619 q 180 253 128 353 q 324 97 232 153 q 533 42 415 42 q 744 97 653 42 q 887 253 835 153 q 939 486 939 353 z "},"R":{"ha":922,"x_min":139,"x_max":847,"o":"m 168 0 q 147 8 154 0 q 139 28 139 17 l 139 944 q 147 964 139 956 q 167 972 156 972 l 533 972 q 677 940 615 972 q 774 850 739 907 q 808 721 808 793 q 785 606 808 657 q 722 520 763 554 q 628 471 681 486 l 564 482 q 669 453 619 482 q 751 370 719 425 q 783 236 783 315 q 790 133 783 168 q 806 81 796 97 q 831 54 817 64 q 843 40 839 49 q 844 21 847 32 q 835 8 842 13 q 822 1 829 3 q 807 4 815 0 q 769 38 788 15 q 738 106 750 60 q 725 236 725 151 q 705 340 725 301 q 653 400 685 379 q 587 428 622 421 q 522 435 551 435 l 185 435 l 197 451 l 197 28 q 189 8 197 17 q 168 0 181 0 m 183 490 l 540 490 q 643 524 596 496 q 720 601 690 551 q 750 719 750 651 q 690 860 750 804 q 526 917 629 917 l 190 917 l 197 926 l 197 475 l 183 490 z "},"Ŕ":{"ha":922,"x_min":139,"x_max":847,"o":"m 168 0 q 147 8 154 0 q 139 28 139 17 l 139 944 q 147 964 139 956 q 167 972 156 972 l 533 972 q 677 940 615 972 q 774 850 739 907 q 808 721 808 793 q 785 606 808 657 q 722 520 763 554 q 628 471 681 486 l 564 482 q 669 453 619 482 q 751 370 719 425 q 783 236 783 315 q 790 133 783 168 q 806 81 796 97 q 831 54 817 64 q 843 40 839 49 q 844 21 847 32 q 835 8 842 13 q 822 1 829 3 q 807 4 815 0 q 769 38 788 15 q 738 106 750 60 q 725 236 725 151 q 705 340 725 301 q 653 400 685 379 q 587 428 622 421 q 522 435 551 435 l 185 435 l 197 451 l 197 28 q 189 8 197 17 q 168 0 181 0 m 183 490 l 540 490 q 643 524 596 496 q 720 601 690 551 q 750 719 750 651 q 690 860 750 804 q 526 917 629 917 l 190 917 l 197 926 l 197 475 l 183 490 m 460 1039 q 447 1044 450 1039 q 443 1056 443 1050 q 447 1067 443 1063 q 456 1076 450 1072 l 581 1169 q 594 1177 586 1174 q 611 1181 601 1181 q 635 1170 628 1181 q 643 1147 643 1160 q 638 1127 643 1135 q 624 1114 633 1119 l 489 1049 q 476 1042 483 1046 q 460 1039 468 1039 z "},"Ř":{"ha":922,"x_min":139,"x_max":847,"o":"m 168 0 q 147 8 154 0 q 139 28 139 17 l 139 944 q 147 964 139 956 q 167 972 156 972 l 533 972 q 677 940 615 972 q 774 850 739 907 q 808 721 808 793 q 785 606 808 657 q 722 520 763 554 q 628 471 681 486 l 564 482 q 669 453 619 482 q 751 370 719 425 q 783 236 783 315 q 790 133 783 168 q 806 81 796 97 q 831 54 817 64 q 843 40 839 49 q 844 21 847 32 q 835 8 842 13 q 822 1 829 3 q 807 4 815 0 q 769 38 788 15 q 738 106 750 60 q 725 236 725 151 q 705 340 725 301 q 653 400 685 379 q 587 428 622 421 q 522 435 551 435 l 185 435 l 197 451 l 197 28 q 189 8 197 17 q 168 0 181 0 m 183 490 l 540 490 q 643 524 596 496 q 720 601 690 551 q 750 719 750 651 q 690 860 750 804 q 526 917 629 917 l 190 917 l 197 926 l 197 475 l 183 490 m 446 1104 l 571 1210 q 585 1220 578 1217 q 597 1224 592 1224 q 609 1219 604 1224 q 614 1207 614 1214 q 612 1199 614 1203 q 606 1190 610 1194 l 493 1071 q 479 1058 488 1061 q 460 1054 471 1054 l 446 1054 q 427 1058 435 1054 q 413 1071 419 1061 l 300 1189 q 294 1197 296 1193 q 292 1206 292 1201 q 297 1217 292 1213 q 308 1222 301 1222 q 335 1208 318 1222 l 461 1110 l 446 1104 z "},"Ŗ":{"ha":922,"x_min":139,"x_max":847,"o":"m 168 0 q 147 8 154 0 q 139 28 139 17 l 139 944 q 147 964 139 956 q 167 972 156 972 l 533 972 q 677 940 615 972 q 774 850 739 907 q 808 721 808 793 q 785 606 808 657 q 722 520 763 554 q 628 471 681 486 l 564 482 q 669 453 619 482 q 751 370 719 425 q 783 236 783 315 q 790 133 783 168 q 806 81 796 97 q 831 54 817 64 q 843 40 839 49 q 844 21 847 32 q 835 8 842 13 q 822 1 829 3 q 807 4 815 0 q 769 38 788 15 q 738 106 750 60 q 725 236 725 151 q 705 340 725 301 q 653 400 685 379 q 587 428 622 421 q 522 435 551 435 l 185 435 l 197 451 l 197 28 q 189 8 197 17 q 168 0 181 0 m 183 490 l 540 490 q 643 524 596 496 q 720 601 690 551 q 750 719 750 651 q 690 860 750 804 q 526 917 629 917 l 190 917 l 197 926 l 197 475 l 183 490 m 525 -150 q 511 -200 525 -178 q 476 -235 497 -222 q 429 -247 454 -247 q 397 -242 407 -247 q 388 -225 388 -236 q 392 -208 388 -215 q 406 -201 397 -201 q 420 -204 413 -201 q 446 -204 428 -207 q 463 -190 457 -201 q 469 -158 469 -179 q 456 -142 469 -142 q 442 -147 447 -142 q 426 -153 438 -153 q 403 -142 411 -154 q 394 -121 394 -131 q 412 -87 394 -101 q 460 -74 429 -74 q 506 -92 488 -74 q 525 -150 525 -111 z "},"Ȑ":{"ha":922,"x_min":139,"x_max":847,"o":"m 168 0 q 147 8 154 0 q 139 28 139 17 l 139 944 q 147 964 139 956 q 167 972 156 972 l 533 972 q 677 940 615 972 q 774 850 739 907 q 808 721 808 793 q 785 606 808 657 q 722 520 763 554 q 628 471 681 486 l 564 482 q 669 453 619 482 q 751 370 719 425 q 783 236 783 315 q 790 133 783 168 q 806 81 796 97 q 831 54 817 64 q 843 40 839 49 q 844 21 847 32 q 835 8 842 13 q 822 1 829 3 q 807 4 815 0 q 769 38 788 15 q 738 106 750 60 q 725 236 725 151 q 705 340 725 301 q 653 400 685 379 q 587 428 622 421 q 522 435 551 435 l 185 435 l 197 451 l 197 28 q 189 8 197 17 q 168 0 181 0 m 183 490 l 540 490 q 643 524 596 496 q 720 601 690 551 q 750 719 750 651 q 690 860 750 804 q 526 917 629 917 l 190 917 l 197 926 l 197 475 l 183 490 m 410 1050 q 394 1053 401 1050 q 381 1060 388 1057 l 246 1125 q 226 1158 226 1136 q 234 1181 226 1171 q 258 1192 242 1192 q 276 1188 268 1192 q 289 1181 283 1185 l 414 1088 q 423 1078 419 1083 q 426 1067 426 1074 q 423 1056 426 1061 q 410 1050 419 1050 m 625 1044 q 610 1048 617 1044 q 596 1054 603 1051 l 461 1119 q 442 1153 442 1131 q 449 1176 442 1165 q 474 1186 457 1186 q 491 1183 483 1186 q 504 1175 499 1179 l 629 1082 q 638 1073 635 1078 q 642 1061 642 1068 q 638 1050 642 1056 q 625 1044 635 1044 z "},"Ṛ":{"ha":922,"x_min":139,"x_max":847,"o":"m 168 0 q 147 8 154 0 q 139 28 139 17 l 139 944 q 147 964 139 956 q 167 972 156 972 l 533 972 q 677 940 615 972 q 774 850 739 907 q 808 721 808 793 q 785 606 808 657 q 722 520 763 554 q 628 471 681 486 l 564 482 q 669 453 619 482 q 751 370 719 425 q 783 236 783 315 q 790 133 783 168 q 806 81 796 97 q 831 54 817 64 q 843 40 839 49 q 844 21 847 32 q 835 8 842 13 q 822 1 829 3 q 807 4 815 0 q 769 38 788 15 q 738 106 750 60 q 725 236 725 151 q 705 340 725 301 q 653 400 685 379 q 587 428 622 421 q 522 435 551 435 l 185 435 l 197 451 l 197 28 q 189 8 197 17 q 168 0 181 0 m 183 490 l 540 490 q 643 524 596 496 q 720 601 690 551 q 750 719 750 651 q 690 860 750 804 q 526 917 629 917 l 190 917 l 197 926 l 197 475 l 183 490 m 454 -190 q 419 -176 432 -190 q 406 -140 406 -162 l 406 -129 q 419 -93 406 -107 q 456 -79 433 -79 q 488 -93 475 -79 q 501 -129 501 -107 l 501 -140 q 488 -176 501 -162 q 454 -190 475 -190 z "},"Ȓ":{"ha":922,"x_min":139,"x_max":847,"o":"m 168 0 q 147 8 154 0 q 139 28 139 17 l 139 944 q 147 964 139 956 q 167 972 156 972 l 533 972 q 677 940 615 972 q 774 850 739 907 q 808 721 808 793 q 785 606 808 657 q 722 520 763 554 q 628 471 681 486 l 564 482 q 669 453 619 482 q 751 370 719 425 q 783 236 783 315 q 790 133 783 168 q 806 81 796 97 q 831 54 817 64 q 843 40 839 49 q 844 21 847 32 q 835 8 842 13 q 822 1 829 3 q 807 4 815 0 q 769 38 788 15 q 738 106 750 60 q 725 236 725 151 q 705 340 725 301 q 653 400 685 379 q 587 428 622 421 q 522 435 551 435 l 185 435 l 197 451 l 197 28 q 189 8 197 17 q 168 0 181 0 m 183 490 l 540 490 q 643 524 596 496 q 720 601 690 551 q 750 719 750 651 q 690 860 750 804 q 526 917 629 917 l 190 917 l 197 926 l 197 475 l 183 490 m 451 1172 q 536 1153 499 1172 q 597 1101 574 1133 q 619 1033 619 1069 q 612 1016 619 1024 q 593 1008 604 1008 q 573 1016 579 1008 q 564 1036 567 1024 q 525 1098 557 1076 q 451 1119 493 1119 q 378 1098 410 1119 q 339 1036 346 1076 q 331 1016 338 1024 q 310 1008 324 1008 q 291 1016 299 1008 q 283 1033 283 1024 q 306 1101 283 1069 q 367 1153 329 1133 q 451 1172 406 1172 z "},"Ṟ":{"ha":922,"x_min":139,"x_max":847,"o":"m 168 0 q 147 8 154 0 q 139 28 139 17 l 139 944 q 147 964 139 956 q 167 972 156 972 l 533 972 q 677 940 615 972 q 774 850 739 907 q 808 721 808 793 q 785 606 808 657 q 722 520 763 554 q 628 471 681 486 l 564 482 q 669 453 619 482 q 751 370 719 425 q 783 236 783 315 q 790 133 783 168 q 806 81 796 97 q 831 54 817 64 q 843 40 839 49 q 844 21 847 32 q 835 8 842 13 q 822 1 829 3 q 807 4 815 0 q 769 38 788 15 q 738 106 750 60 q 725 236 725 151 q 705 340 725 301 q 653 400 685 379 q 587 428 622 421 q 522 435 551 435 l 185 435 l 197 451 l 197 28 q 189 8 197 17 q 168 0 181 0 m 183 490 l 540 490 q 643 524 596 496 q 720 601 690 551 q 750 719 750 651 q 690 860 750 804 q 526 917 629 917 l 190 917 l 197 926 l 197 475 l 183 490 m 322 -162 q 294 -137 294 -162 q 322 -111 294 -111 l 600 -111 q 628 -137 628 -111 q 600 -162 628 -162 l 322 -162 z "},"S":{"ha":764,"x_min":49,"x_max":693,"o":"m 393 -14 q 207 22 285 -15 q 57 132 129 60 q 51 140 54 135 q 49 153 49 144 q 58 174 49 164 q 79 185 68 185 q 103 172 92 185 q 233 75 158 108 q 388 42 307 42 q 514 65 458 42 q 601 130 569 88 q 633 229 633 172 q 594 343 632 300 q 498 414 557 386 q 374 465 439 442 q 272 506 322 485 q 182 556 222 526 q 118 631 142 586 q 94 743 94 676 q 131 866 94 811 q 237 953 168 921 q 400 986 306 986 q 554 958 479 986 q 672 872 629 929 q 686 843 686 853 q 676 824 686 833 q 653 814 665 814 q 635 822 642 814 q 574 880 610 856 q 494 917 539 904 q 400 931 450 931 q 276 908 332 931 q 188 845 221 886 q 154 744 154 804 q 191 640 154 681 q 285 572 228 599 q 401 522 342 544 q 506 483 454 504 q 601 429 558 461 q 668 349 643 397 q 693 226 693 300 q 656 108 693 163 q 553 21 619 54 q 393 -14 486 -12 z "},"Ś":{"ha":764,"x_min":49,"x_max":693,"o":"m 393 -14 q 207 22 285 -15 q 57 132 129 60 q 51 140 54 135 q 49 153 49 144 q 58 174 49 164 q 79 185 68 185 q 103 172 92 185 q 233 75 158 108 q 388 42 307 42 q 514 65 458 42 q 601 130 569 88 q 633 229 633 172 q 594 343 632 300 q 498 414 557 386 q 374 465 439 442 q 272 506 322 485 q 182 556 222 526 q 118 631 142 586 q 94 743 94 676 q 131 866 94 811 q 237 953 168 921 q 400 986 306 986 q 554 958 479 986 q 672 872 629 929 q 686 843 686 853 q 676 824 686 833 q 653 814 665 814 q 635 822 642 814 q 574 880 610 856 q 494 917 539 904 q 400 931 450 931 q 276 908 332 931 q 188 845 221 886 q 154 744 154 804 q 191 640 154 681 q 285 572 228 599 q 401 522 342 544 q 506 483 454 504 q 601 429 558 461 q 668 349 643 397 q 693 226 693 300 q 656 108 693 163 q 553 21 619 54 q 393 -14 486 -12 m 388 1039 q 374 1044 378 1039 q 371 1056 371 1050 q 374 1067 371 1063 q 383 1076 378 1072 l 508 1169 q 522 1177 514 1174 q 539 1181 529 1181 q 563 1170 556 1181 q 571 1147 571 1160 q 566 1127 571 1135 q 551 1114 561 1119 l 417 1049 q 403 1042 411 1046 q 388 1039 396 1039 z "},"Ṥ":{"ha":764,"x_min":49,"x_max":693,"o":"m 393 -14 q 207 22 285 -15 q 57 132 129 60 q 51 140 54 135 q 49 153 49 144 q 58 174 49 164 q 79 185 68 185 q 103 172 92 185 q 233 75 158 108 q 388 42 307 42 q 514 65 458 42 q 601 130 569 88 q 633 229 633 172 q 594 343 632 300 q 498 414 557 386 q 374 465 439 442 q 272 506 322 485 q 182 556 222 526 q 118 631 142 586 q 94 743 94 676 q 131 866 94 811 q 237 953 168 921 q 400 986 306 986 q 554 958 479 986 q 672 872 629 929 q 686 843 686 853 q 676 824 686 833 q 653 814 665 814 q 635 822 642 814 q 574 880 610 856 q 494 917 539 904 q 400 931 450 931 q 276 908 332 931 q 188 845 221 886 q 154 744 154 804 q 191 640 154 681 q 285 572 228 599 q 401 522 342 544 q 506 483 454 504 q 601 429 558 461 q 668 349 643 397 q 693 226 693 300 q 656 108 693 163 q 553 21 619 54 q 393 -14 486 -12 m 388 1039 q 374 1044 378 1039 q 371 1056 371 1050 q 374 1067 371 1063 q 383 1076 378 1072 l 508 1169 q 522 1177 514 1174 q 539 1181 529 1181 q 563 1170 556 1181 q 571 1147 571 1160 q 566 1127 571 1135 q 551 1114 561 1119 l 417 1049 q 403 1042 411 1046 q 388 1039 396 1039 m 442 1286 q 406 1300 419 1286 q 393 1336 393 1314 l 393 1347 q 407 1383 393 1369 q 443 1397 421 1397 q 476 1383 463 1397 q 489 1347 489 1369 l 489 1336 q 476 1300 489 1314 q 442 1286 463 1286 z "},"Š":{"ha":764,"x_min":49,"x_max":693,"o":"m 393 -14 q 207 22 285 -15 q 57 132 129 60 q 51 140 54 135 q 49 153 49 144 q 58 174 49 164 q 79 185 68 185 q 103 172 92 185 q 233 75 158 108 q 388 42 307 42 q 514 65 458 42 q 601 130 569 88 q 633 229 633 172 q 594 343 632 300 q 498 414 557 386 q 374 465 439 442 q 272 506 322 485 q 182 556 222 526 q 118 631 142 586 q 94 743 94 676 q 131 866 94 811 q 237 953 168 921 q 400 986 306 986 q 554 958 479 986 q 672 872 629 929 q 686 843 686 853 q 676 824 686 833 q 653 814 665 814 q 635 822 642 814 q 574 880 610 856 q 494 917 539 904 q 400 931 450 931 q 276 908 332 931 q 188 845 221 886 q 154 744 154 804 q 191 640 154 681 q 285 572 228 599 q 401 522 342 544 q 506 483 454 504 q 601 429 558 461 q 668 349 643 397 q 693 226 693 300 q 656 108 693 163 q 553 21 619 54 q 393 -14 486 -12 m 374 1104 l 499 1210 q 513 1220 506 1217 q 525 1224 519 1224 q 537 1219 532 1224 q 542 1207 542 1214 q 540 1199 542 1203 q 533 1190 538 1194 l 421 1071 q 407 1058 415 1061 q 388 1054 399 1054 l 374 1054 q 355 1058 363 1054 q 340 1071 347 1061 l 228 1189 q 222 1197 224 1193 q 219 1206 219 1201 q 224 1217 219 1213 q 236 1222 229 1222 q 263 1208 246 1222 l 389 1110 l 374 1104 z "},"Ṧ":{"ha":764,"x_min":49,"x_max":693,"o":"m 393 -14 q 207 22 285 -15 q 57 132 129 60 q 51 140 54 135 q 49 153 49 144 q 58 174 49 164 q 79 185 68 185 q 103 172 92 185 q 233 75 158 108 q 388 42 307 42 q 514 65 458 42 q 601 130 569 88 q 633 229 633 172 q 594 343 632 300 q 498 414 557 386 q 374 465 439 442 q 272 506 322 485 q 182 556 222 526 q 118 631 142 586 q 94 743 94 676 q 131 866 94 811 q 237 953 168 921 q 400 986 306 986 q 554 958 479 986 q 672 872 629 929 q 686 843 686 853 q 676 824 686 833 q 653 814 665 814 q 635 822 642 814 q 574 880 610 856 q 494 917 539 904 q 400 931 450 931 q 276 908 332 931 q 188 845 221 886 q 154 744 154 804 q 191 640 154 681 q 285 572 228 599 q 401 522 342 544 q 506 483 454 504 q 601 429 558 461 q 668 349 643 397 q 693 226 693 300 q 656 108 693 163 q 553 21 619 54 q 393 -14 486 -12 m 374 1104 l 499 1210 q 513 1220 506 1217 q 525 1224 519 1224 q 537 1219 532 1224 q 542 1207 542 1214 q 540 1199 542 1203 q 533 1190 538 1194 l 421 1071 q 407 1058 415 1061 q 388 1054 399 1054 l 374 1054 q 355 1058 363 1054 q 340 1071 347 1061 l 228 1189 q 222 1197 224 1193 q 219 1206 219 1201 q 224 1217 219 1213 q 236 1222 229 1222 q 263 1208 246 1222 l 389 1110 l 374 1104 m 382 1306 q 347 1319 360 1306 q 333 1356 333 1333 l 333 1367 q 347 1403 333 1389 q 383 1417 361 1417 q 416 1403 403 1417 q 429 1367 429 1389 l 429 1356 q 416 1319 429 1333 q 382 1306 403 1306 z "},"Ş":{"ha":764,"x_min":49,"x_max":693,"o":"m 393 -14 q 207 22 285 -15 q 57 132 129 60 q 51 140 54 135 q 49 153 49 144 q 58 174 49 164 q 79 185 68 185 q 103 172 92 185 q 233 75 158 108 q 388 42 307 42 q 514 65 458 42 q 601 130 569 88 q 633 229 633 172 q 594 343 632 300 q 498 414 557 386 q 374 465 439 442 q 272 506 322 485 q 182 556 222 526 q 118 631 142 586 q 94 743 94 676 q 131 866 94 811 q 237 953 168 921 q 400 986 306 986 q 554 958 479 986 q 672 872 629 929 q 686 843 686 853 q 676 824 686 833 q 653 814 665 814 q 635 822 642 814 q 574 880 610 856 q 494 917 539 904 q 400 931 450 931 q 276 908 332 931 q 188 845 221 886 q 154 744 154 804 q 191 640 154 681 q 285 572 228 599 q 401 522 342 544 q 506 483 454 504 q 601 429 558 461 q 668 349 643 397 q 693 226 693 300 q 656 108 693 163 q 553 21 619 54 q 393 -14 486 -12 z "},"Ŝ":{"ha":764,"x_min":49,"x_max":693,"o":"m 393 -14 q 207 22 285 -15 q 57 132 129 60 q 51 140 54 135 q 49 153 49 144 q 58 174 49 164 q 79 185 68 185 q 103 172 92 185 q 233 75 158 108 q 388 42 307 42 q 514 65 458 42 q 601 130 569 88 q 633 229 633 172 q 594 343 632 300 q 498 414 557 386 q 374 465 439 442 q 272 506 322 485 q 182 556 222 526 q 118 631 142 586 q 94 743 94 676 q 131 866 94 811 q 237 953 168 921 q 400 986 306 986 q 554 958 479 986 q 672 872 629 929 q 686 843 686 853 q 676 824 686 833 q 653 814 665 814 q 635 822 642 814 q 574 880 610 856 q 494 917 539 904 q 400 931 450 931 q 276 908 332 931 q 188 845 221 886 q 154 744 154 804 q 191 640 154 681 q 285 572 228 599 q 401 522 342 544 q 506 483 454 504 q 601 429 558 461 q 668 349 643 397 q 693 226 693 300 q 656 108 693 163 q 553 21 619 54 q 393 -14 486 -12 m 388 1186 l 263 1081 q 249 1071 256 1075 q 236 1067 243 1067 q 224 1072 229 1067 q 219 1083 219 1078 q 222 1092 219 1088 q 228 1100 224 1096 l 340 1219 q 356 1232 349 1228 q 374 1236 363 1236 l 388 1236 q 406 1232 399 1236 q 421 1219 413 1228 l 533 1101 q 540 1093 538 1097 q 542 1085 542 1089 q 537 1074 542 1079 q 525 1068 532 1068 q 513 1072 519 1068 q 499 1082 506 1076 l 372 1181 l 388 1186 z "},"Ș":{"ha":764,"x_min":49,"x_max":693,"o":"m 393 -14 q 207 22 285 -15 q 57 132 129 60 q 51 140 54 135 q 49 153 49 144 q 58 174 49 164 q 79 185 68 185 q 103 172 92 185 q 233 75 158 108 q 388 42 307 42 q 514 65 458 42 q 601 130 569 88 q 633 229 633 172 q 594 343 632 300 q 498 414 557 386 q 374 465 439 442 q 272 506 322 485 q 182 556 222 526 q 118 631 142 586 q 94 743 94 676 q 131 866 94 811 q 237 953 168 921 q 400 986 306 986 q 554 958 479 986 q 672 872 629 929 q 686 843 686 853 q 676 824 686 833 q 653 814 665 814 q 635 822 642 814 q 574 880 610 856 q 494 917 539 904 q 400 931 450 931 q 276 908 332 931 q 188 845 221 886 q 154 744 154 804 q 191 640 154 681 q 285 572 228 599 q 401 522 342 544 q 506 483 454 504 q 601 429 558 461 q 668 349 643 397 q 693 226 693 300 q 656 108 693 163 q 553 21 619 54 q 393 -14 486 -12 m 453 -150 q 439 -200 453 -178 q 403 -235 425 -222 q 357 -247 382 -247 q 325 -242 335 -247 q 315 -225 315 -236 q 320 -208 315 -215 q 333 -201 325 -201 q 348 -204 340 -201 q 374 -204 356 -207 q 391 -190 385 -201 q 397 -158 397 -179 q 383 -142 397 -142 q 370 -147 375 -142 q 354 -153 365 -153 q 331 -142 339 -154 q 322 -121 322 -131 q 340 -87 322 -101 q 388 -74 357 -74 q 434 -92 415 -74 q 453 -150 453 -111 z "},"Ṡ":{"ha":764,"x_min":49,"x_max":693,"o":"m 393 -14 q 207 22 285 -15 q 57 132 129 60 q 51 140 54 135 q 49 153 49 144 q 58 174 49 164 q 79 185 68 185 q 103 172 92 185 q 233 75 158 108 q 388 42 307 42 q 514 65 458 42 q 601 130 569 88 q 633 229 633 172 q 594 343 632 300 q 498 414 557 386 q 374 465 439 442 q 272 506 322 485 q 182 556 222 526 q 118 631 142 586 q 94 743 94 676 q 131 866 94 811 q 237 953 168 921 q 400 986 306 986 q 554 958 479 986 q 672 872 629 929 q 686 843 686 853 q 676 824 686 833 q 653 814 665 814 q 635 822 642 814 q 574 880 610 856 q 494 917 539 904 q 400 931 450 931 q 276 908 332 931 q 188 845 221 886 q 154 744 154 804 q 191 640 154 681 q 285 572 228 599 q 401 522 342 544 q 506 483 454 504 q 601 429 558 461 q 668 349 643 397 q 693 226 693 300 q 656 108 693 163 q 553 21 619 54 q 393 -14 486 -12 m 382 1083 q 347 1097 360 1083 q 333 1133 333 1111 l 333 1144 q 347 1181 333 1167 q 383 1194 361 1194 q 416 1181 403 1194 q 429 1144 429 1167 l 429 1133 q 416 1097 429 1111 q 382 1083 403 1083 z "},"Ṣ":{"ha":764,"x_min":49,"x_max":693,"o":"m 393 -14 q 207 22 285 -15 q 57 132 129 60 q 51 140 54 135 q 49 153 49 144 q 58 174 49 164 q 79 185 68 185 q 103 172 92 185 q 233 75 158 108 q 388 42 307 42 q 514 65 458 42 q 601 130 569 88 q 633 229 633 172 q 594 343 632 300 q 498 414 557 386 q 374 465 439 442 q 272 506 322 485 q 182 556 222 526 q 118 631 142 586 q 94 743 94 676 q 131 866 94 811 q 237 953 168 921 q 400 986 306 986 q 554 958 479 986 q 672 872 629 929 q 686 843 686 853 q 676 824 686 833 q 653 814 665 814 q 635 822 642 814 q 574 880 610 856 q 494 917 539 904 q 400 931 450 931 q 276 908 332 931 q 188 845 221 886 q 154 744 154 804 q 191 640 154 681 q 285 572 228 599 q 401 522 342 544 q 506 483 454 504 q 601 429 558 461 q 668 349 643 397 q 693 226 693 300 q 656 108 693 163 q 553 21 619 54 q 393 -14 486 -12 m 382 -190 q 347 -176 360 -190 q 333 -140 333 -162 l 333 -129 q 347 -93 333 -107 q 383 -79 361 -79 q 416 -93 403 -79 q 429 -129 429 -107 l 429 -140 q 416 -176 429 -162 q 382 -190 403 -190 z "},"Ṩ":{"ha":764,"x_min":49,"x_max":693,"o":"m 393 -14 q 207 22 285 -15 q 57 132 129 60 q 51 140 54 135 q 49 153 49 144 q 58 174 49 164 q 79 185 68 185 q 103 172 92 185 q 233 75 158 108 q 388 42 307 42 q 514 65 458 42 q 601 130 569 88 q 633 229 633 172 q 594 343 632 300 q 498 414 557 386 q 374 465 439 442 q 272 506 322 485 q 182 556 222 526 q 118 631 142 586 q 94 743 94 676 q 131 866 94 811 q 237 953 168 921 q 400 986 306 986 q 554 958 479 986 q 672 872 629 929 q 686 843 686 853 q 676 824 686 833 q 653 814 665 814 q 635 822 642 814 q 574 880 610 856 q 494 917 539 904 q 400 931 450 931 q 276 908 332 931 q 188 845 221 886 q 154 744 154 804 q 191 640 154 681 q 285 572 228 599 q 401 522 342 544 q 506 483 454 504 q 601 429 558 461 q 668 349 643 397 q 693 226 693 300 q 656 108 693 163 q 553 21 619 54 q 393 -14 486 -12 m 382 -190 q 347 -176 360 -190 q 333 -140 333 -162 l 333 -129 q 347 -93 333 -107 q 383 -79 361 -79 q 416 -93 403 -79 q 429 -129 429 -107 l 429 -140 q 416 -176 429 -162 q 382 -190 403 -190 m 382 1083 q 347 1097 360 1083 q 333 1133 333 1111 l 333 1144 q 347 1181 333 1167 q 383 1194 361 1194 q 416 1181 403 1194 q 429 1144 429 1167 l 429 1133 q 416 1097 429 1111 q 382 1083 403 1083 z "},"ẞ":{"ha":961,"x_min":139,"x_max":890,"o":"m 632 -14 q 542 -1 582 -14 q 470 39 503 13 q 407 104 438 65 q 401 114 406 107 q 397 128 397 121 q 408 148 397 139 q 429 157 418 157 q 441 154 435 157 q 453 144 447 151 q 533 69 488 96 q 626 42 579 42 q 727 65 681 42 q 802 130 774 88 q 831 229 831 172 q 803 328 828 289 q 743 396 779 368 q 667 447 707 424 q 581 504 622 475 q 513 577 539 533 q 486 688 486 621 q 506 772 486 733 q 565 839 526 810 q 660 886 604 868 q 789 908 717 904 l 785 879 q 721 921 760 904 q 638 947 682 938 q 550 956 594 956 q 378 928 447 956 q 270 855 310 901 q 214 750 231 808 q 197 629 197 692 l 194 33 q 188 13 194 19 q 167 6 181 6 q 146 13 153 6 q 139 33 139 19 l 142 629 q 161 764 142 697 q 227 886 181 831 q 353 975 274 942 q 550 1008 432 1008 q 695 987 624 1008 q 813 931 767 965 q 836 896 836 911 q 833 882 836 888 q 823 874 829 876 q 808 869 817 871 q 663 833 721 860 q 575 770 604 807 q 546 689 546 733 q 567 606 546 639 q 622 549 588 572 q 693 503 656 525 q 763 459 728 482 q 826 406 797 436 q 873 331 856 375 q 890 226 890 288 q 859 108 890 163 q 770 21 828 54 q 632 -14 713 -12 z "},"Ə":{"ha":1046,"x_min":69,"x_max":976,"o":"m 522 -14 q 351 23 432 -14 q 207 126 269 60 q 108 278 144 192 q 69 463 72 364 l 69 486 q 78 503 69 497 q 97 510 86 510 l 938 510 l 940 454 l 126 454 q 163 294 131 369 q 251 163 196 219 q 375 74 306 106 q 522 42 444 42 q 672 75 601 42 q 798 168 743 108 q 885 308 853 228 q 917 482 917 389 q 885 658 917 576 q 798 800 853 739 q 672 896 743 861 q 522 931 601 931 q 320 888 404 931 q 171 757 236 844 q 154 747 164 749 q 135 750 144 744 q 122 769 124 757 q 128 792 119 782 q 297 937 201 888 q 522 986 392 986 q 699 947 617 986 q 843 840 781 908 q 941 681 906 771 q 976 486 976 590 q 941 292 976 382 q 843 133 906 201 q 699 25 781 64 q 522 -14 617 -14 z "},"T":{"ha":828,"x_min":49,"x_max":779,"o":"m 414 0 q 394 8 401 0 q 386 28 386 17 l 386 939 l 442 939 l 442 28 q 433 8 442 17 q 414 0 425 0 m 76 919 q 57 927 65 919 q 49 946 49 935 q 57 965 49 957 q 76 972 65 972 l 751 972 q 771 965 763 972 q 779 946 779 957 q 771 926 779 933 q 751 919 763 919 l 76 919 z "},"Ŧ":{"ha":828,"x_min":49,"x_max":779,"o":"m 304 422 q 283 428 290 422 q 276 449 276 435 q 283 468 276 461 q 304 475 290 475 l 526 475 q 547 468 540 475 q 554 447 554 461 q 547 428 554 435 q 526 422 540 422 l 304 422 m 414 0 q 394 8 401 0 q 386 28 386 17 l 386 939 l 442 939 l 442 28 q 433 8 442 17 q 414 0 425 0 m 76 919 q 57 927 65 919 q 49 946 49 935 q 57 965 49 957 q 76 972 65 972 l 751 972 q 771 965 763 972 q 779 946 779 957 q 771 926 779 933 q 751 919 763 919 l 76 919 z "},"Ť":{"ha":828,"x_min":49,"x_max":779,"o":"m 414 0 q 394 8 401 0 q 386 28 386 17 l 386 939 l 442 939 l 442 28 q 433 8 442 17 q 414 0 425 0 m 76 919 q 57 927 65 919 q 49 946 49 935 q 57 965 49 957 q 76 972 65 972 l 751 972 q 771 965 763 972 q 779 946 779 957 q 771 926 779 933 q 751 919 763 919 l 76 919 m 406 1104 l 531 1210 q 544 1220 538 1217 q 557 1224 551 1224 q 569 1219 564 1224 q 574 1207 574 1214 q 572 1199 574 1203 q 565 1190 569 1194 l 453 1071 q 439 1058 447 1061 q 419 1054 431 1054 l 406 1054 q 387 1058 394 1054 q 372 1071 379 1061 l 260 1189 q 253 1197 256 1193 q 251 1206 251 1201 q 256 1217 251 1213 q 268 1222 261 1222 q 294 1208 278 1222 l 421 1110 l 406 1104 z "},"Ţ":{"ha":828,"x_min":49,"x_max":779,"o":"m 414 0 q 394 8 401 0 q 386 28 386 17 l 386 939 l 442 939 l 442 28 q 433 8 442 17 q 414 0 425 0 m 76 919 q 57 927 65 919 q 49 946 49 935 q 57 965 49 957 q 76 972 65 972 l 751 972 q 771 965 763 972 q 779 946 779 957 q 771 926 779 933 q 751 919 763 919 l 76 919 z "},"Ț":{"ha":828,"x_min":49,"x_max":779,"o":"m 414 0 q 394 8 401 0 q 386 28 386 17 l 386 939 l 442 939 l 442 28 q 433 8 442 17 q 414 0 425 0 m 76 919 q 57 927 65 919 q 49 946 49 935 q 57 965 49 957 q 76 972 65 972 l 751 972 q 771 965 763 972 q 779 946 779 957 q 771 926 779 933 q 751 919 763 919 l 76 919 m 485 -150 q 471 -200 485 -178 q 435 -235 457 -222 q 389 -247 414 -247 q 357 -242 367 -247 q 347 -225 347 -236 q 352 -208 347 -215 q 365 -201 357 -201 q 380 -204 372 -201 q 406 -204 388 -207 q 423 -190 417 -201 q 429 -158 429 -179 q 415 -142 429 -142 q 402 -147 407 -142 q 386 -153 397 -153 q 363 -142 371 -154 q 354 -121 354 -131 q 372 -87 354 -101 q 419 -74 389 -74 q 466 -92 447 -74 q 485 -150 485 -111 z "},"Ṭ":{"ha":828,"x_min":49,"x_max":779,"o":"m 414 0 q 394 8 401 0 q 386 28 386 17 l 386 939 l 442 939 l 442 28 q 433 8 442 17 q 414 0 425 0 m 76 919 q 57 927 65 919 q 49 946 49 935 q 57 965 49 957 q 76 972 65 972 l 751 972 q 771 965 763 972 q 779 946 779 957 q 771 926 779 933 q 751 919 763 919 l 76 919 m 414 -190 q 378 -176 392 -190 q 365 -140 365 -162 l 365 -129 q 379 -93 365 -107 q 415 -79 393 -79 q 448 -93 435 -79 q 461 -129 461 -107 l 461 -140 q 448 -176 461 -162 q 414 -190 435 -190 z "},"Ṯ":{"ha":828,"x_min":49,"x_max":779,"o":"m 414 0 q 394 8 401 0 q 386 28 386 17 l 386 939 l 442 939 l 442 28 q 433 8 442 17 q 414 0 425 0 m 76 919 q 57 927 65 919 q 49 946 49 935 q 57 965 49 957 q 76 972 65 972 l 751 972 q 771 965 763 972 q 779 946 779 957 q 771 926 779 933 q 751 919 763 919 l 76 919 m 282 -162 q 254 -137 254 -162 q 282 -111 254 -111 l 560 -111 q 588 -137 588 -111 q 560 -162 588 -162 l 282 -162 z "},"U":{"ha":993,"x_min":139,"x_max":854,"o":"m 826 972 q 847 964 839 972 q 854 944 854 956 l 854 344 q 806 165 854 246 q 676 35 757 83 q 497 -14 596 -14 q 317 35 399 -14 q 188 165 236 83 q 139 344 139 246 l 139 944 q 147 964 139 956 q 168 972 154 972 q 189 964 181 972 q 197 944 197 956 l 197 344 q 238 192 197 261 q 347 83 278 124 q 497 42 415 42 q 649 83 581 42 q 758 192 717 124 q 799 344 799 261 l 799 944 q 806 964 799 956 q 826 972 814 972 z "},"Ú":{"ha":993,"x_min":139,"x_max":854,"o":"m 826 972 q 847 964 839 972 q 854 944 854 956 l 854 344 q 806 165 854 246 q 676 35 757 83 q 497 -14 596 -14 q 317 35 399 -14 q 188 165 236 83 q 139 344 139 246 l 139 944 q 147 964 139 956 q 168 972 154 972 q 189 964 181 972 q 197 944 197 956 l 197 344 q 238 192 197 261 q 347 83 278 124 q 497 42 415 42 q 649 83 581 42 q 758 192 717 124 q 799 344 799 261 l 799 944 q 806 964 799 956 q 826 972 814 972 m 503 1039 q 490 1044 493 1039 q 486 1056 486 1050 q 490 1067 486 1063 q 499 1076 493 1072 l 624 1169 q 637 1177 629 1174 q 654 1181 644 1181 q 678 1170 671 1181 q 686 1147 686 1160 q 681 1127 686 1135 q 667 1114 676 1119 l 532 1049 q 519 1042 526 1046 q 503 1039 511 1039 z "},"Ŭ":{"ha":993,"x_min":139,"x_max":854,"o":"m 826 972 q 847 964 839 972 q 854 944 854 956 l 854 344 q 806 165 854 246 q 676 35 757 83 q 497 -14 596 -14 q 317 35 399 -14 q 188 165 236 83 q 139 344 139 246 l 139 944 q 147 964 139 956 q 168 972 154 972 q 189 964 181 972 q 197 944 197 956 l 197 344 q 238 192 197 261 q 347 83 278 124 q 497 42 415 42 q 649 83 581 42 q 758 192 717 124 q 799 344 799 261 l 799 944 q 806 964 799 956 q 826 972 814 972 m 497 1083 q 381 1121 428 1083 q 317 1226 333 1158 q 319 1249 314 1240 q 338 1257 324 1257 q 356 1251 351 1257 q 365 1233 360 1246 q 417 1162 385 1186 q 497 1138 450 1138 q 628 1233 590 1138 q 638 1250 632 1244 q 656 1256 644 1256 q 676 1249 671 1256 q 678 1226 681 1242 q 614 1121 661 1158 q 497 1083 567 1083 z "},"Ǔ":{"ha":993,"x_min":139,"x_max":854,"o":"m 826 972 q 847 964 839 972 q 854 944 854 956 l 854 344 q 806 165 854 246 q 676 35 757 83 q 497 -14 596 -14 q 317 35 399 -14 q 188 165 236 83 q 139 344 139 246 l 139 944 q 147 964 139 956 q 168 972 154 972 q 189 964 181 972 q 197 944 197 956 l 197 344 q 238 192 197 261 q 347 83 278 124 q 497 42 415 42 q 649 83 581 42 q 758 192 717 124 q 799 344 799 261 l 799 944 q 806 964 799 956 q 826 972 814 972 m 489 1104 l 614 1210 q 628 1220 621 1217 q 640 1224 635 1224 q 652 1219 647 1224 q 657 1207 657 1214 q 655 1199 657 1203 q 649 1190 653 1194 l 536 1071 q 522 1058 531 1061 q 503 1054 514 1054 l 489 1054 q 470 1058 478 1054 q 456 1071 463 1061 l 343 1189 q 337 1197 339 1193 q 335 1206 335 1201 q 340 1217 335 1213 q 351 1222 344 1222 q 378 1208 361 1222 l 504 1110 l 489 1104 z "},"Û":{"ha":993,"x_min":139,"x_max":854,"o":"m 826 972 q 847 964 839 972 q 854 944 854 956 l 854 344 q 806 165 854 246 q 676 35 757 83 q 497 -14 596 -14 q 317 35 399 -14 q 188 165 236 83 q 139 344 139 246 l 139 944 q 147 964 139 956 q 168 972 154 972 q 189 964 181 972 q 197 944 197 956 l 197 344 q 238 192 197 261 q 347 83 278 124 q 497 42 415 42 q 649 83 581 42 q 758 192 717 124 q 799 344 799 261 l 799 944 q 806 964 799 956 q 826 972 814 972 m 503 1186 l 378 1081 q 365 1071 371 1075 q 351 1067 358 1067 q 340 1072 344 1067 q 335 1083 335 1078 q 337 1092 335 1088 q 343 1100 339 1096 l 456 1219 q 471 1232 464 1228 q 489 1236 478 1236 l 503 1236 q 521 1232 514 1236 q 536 1219 528 1228 l 649 1101 q 655 1093 653 1097 q 657 1085 657 1089 q 652 1074 657 1079 q 640 1068 647 1068 q 628 1072 635 1068 q 614 1082 621 1076 l 488 1181 l 503 1186 z "},"Ȕ":{"ha":993,"x_min":139,"x_max":854,"o":"m 826 972 q 847 964 839 972 q 854 944 854 956 l 854 344 q 806 165 854 246 q 676 35 757 83 q 497 -14 596 -14 q 317 35 399 -14 q 188 165 236 83 q 139 344 139 246 l 139 944 q 147 964 139 956 q 168 972 154 972 q 189 964 181 972 q 197 944 197 956 l 197 344 q 238 192 197 261 q 347 83 278 124 q 497 42 415 42 q 649 83 581 42 q 758 192 717 124 q 799 344 799 261 l 799 944 q 806 964 799 956 q 826 972 814 972 m 453 1050 q 438 1053 444 1050 q 424 1060 431 1057 l 289 1125 q 269 1158 269 1136 q 277 1181 269 1171 q 301 1192 285 1192 q 319 1188 311 1192 q 332 1181 326 1185 l 457 1088 q 466 1078 463 1083 q 469 1067 469 1074 q 466 1056 469 1061 q 453 1050 463 1050 m 668 1044 q 653 1048 660 1044 q 639 1054 646 1051 l 504 1119 q 485 1153 485 1131 q 492 1176 485 1165 q 517 1186 500 1186 q 534 1183 526 1186 q 547 1175 542 1179 l 672 1082 q 681 1073 678 1078 q 685 1061 685 1068 q 681 1050 685 1056 q 668 1044 678 1044 z "},"Ü":{"ha":993,"x_min":139,"x_max":854,"o":"m 826 972 q 847 964 839 972 q 854 944 854 956 l 854 344 q 806 165 854 246 q 676 35 757 83 q 497 -14 596 -14 q 317 35 399 -14 q 188 165 236 83 q 139 344 139 246 l 139 944 q 147 964 139 956 q 168 972 154 972 q 189 964 181 972 q 197 944 197 956 l 197 344 q 238 192 197 261 q 347 83 278 124 q 497 42 415 42 q 649 83 581 42 q 758 192 717 124 q 799 344 799 261 l 799 944 q 806 964 799 956 q 826 972 814 972 m 611 1083 q 576 1097 589 1083 q 563 1133 563 1111 l 563 1144 q 576 1181 563 1167 q 613 1194 590 1194 q 645 1181 632 1194 q 658 1144 658 1167 l 658 1133 q 645 1097 658 1111 q 611 1083 632 1083 m 385 1083 q 349 1097 363 1083 q 336 1133 336 1111 l 336 1144 q 350 1181 336 1167 q 386 1194 364 1194 q 419 1181 406 1194 q 432 1144 432 1167 l 432 1133 q 419 1097 432 1111 q 385 1083 406 1083 z "},"Ụ":{"ha":993,"x_min":139,"x_max":854,"o":"m 826 972 q 847 964 839 972 q 854 944 854 956 l 854 344 q 806 165 854 246 q 676 35 757 83 q 497 -14 596 -14 q 317 35 399 -14 q 188 165 236 83 q 139 344 139 246 l 139 944 q 147 964 139 956 q 168 972 154 972 q 189 964 181 972 q 197 944 197 956 l 197 344 q 238 192 197 261 q 347 83 278 124 q 497 42 415 42 q 649 83 581 42 q 758 192 717 124 q 799 344 799 261 l 799 944 q 806 964 799 956 q 826 972 814 972 m 497 -190 q 462 -176 475 -190 q 449 -140 449 -162 l 449 -129 q 463 -93 449 -107 q 499 -79 476 -79 q 531 -93 518 -79 q 544 -129 544 -107 l 544 -140 q 531 -176 544 -162 q 497 -190 518 -190 z "},"Ù":{"ha":993,"x_min":139,"x_max":854,"o":"m 826 972 q 847 964 839 972 q 854 944 854 956 l 854 344 q 806 165 854 246 q 676 35 757 83 q 497 -14 596 -14 q 317 35 399 -14 q 188 165 236 83 q 139 344 139 246 l 139 944 q 147 964 139 956 q 168 972 154 972 q 189 964 181 972 q 197 944 197 956 l 197 344 q 238 192 197 261 q 347 83 278 124 q 497 42 415 42 q 649 83 581 42 q 758 192 717 124 q 799 344 799 261 l 799 944 q 806 964 799 956 q 826 972 814 972 m 497 1039 q 482 1042 489 1039 q 468 1049 475 1046 l 333 1114 q 314 1147 314 1125 q 322 1170 314 1160 q 346 1181 329 1181 q 363 1177 356 1181 q 376 1169 371 1174 l 501 1076 q 510 1067 507 1072 q 514 1056 514 1063 q 510 1044 514 1050 q 497 1039 507 1039 z "},"Ủ":{"ha":993,"x_min":139,"x_max":854,"o":"m 826 972 q 847 964 839 972 q 854 944 854 956 l 854 344 q 806 165 854 246 q 676 35 757 83 q 497 -14 596 -14 q 317 35 399 -14 q 188 165 236 83 q 139 344 139 246 l 139 944 q 147 964 139 956 q 168 972 154 972 q 189 964 181 972 q 197 944 197 956 l 197 344 q 238 192 197 261 q 347 83 278 124 q 497 42 415 42 q 649 83 581 42 q 758 192 717 124 q 799 344 799 261 l 799 944 q 806 964 799 956 q 826 972 814 972 m 400 1242 q 446 1274 419 1261 q 501 1286 472 1286 q 563 1270 540 1286 q 594 1232 585 1254 q 604 1190 604 1210 q 590 1146 604 1165 q 551 1103 575 1126 q 543 1090 546 1097 q 539 1071 540 1083 q 531 1056 538 1061 q 515 1051 525 1051 q 499 1058 504 1051 q 493 1074 493 1065 q 496 1100 493 1085 q 513 1129 499 1115 q 544 1161 532 1149 q 556 1192 556 1174 q 540 1224 556 1211 q 504 1236 525 1236 q 468 1228 485 1236 q 439 1210 451 1219 q 416 1199 428 1200 q 396 1207 404 1197 q 390 1223 390 1214 q 400 1242 390 1232 z "},"Ư":{"ha":993,"x_min":139,"x_max":1011,"o":"m 826 972 q 847 964 839 972 q 854 944 854 956 l 854 344 q 806 165 854 246 q 676 35 757 83 q 497 -14 596 -14 q 317 35 399 -14 q 188 165 236 83 q 139 344 139 246 l 139 944 q 147 964 139 956 q 168 972 154 972 q 189 964 181 972 q 197 944 197 956 l 197 344 q 238 192 197 261 q 347 83 278 124 q 497 42 415 42 q 649 83 581 42 q 758 192 717 124 q 799 344 799 261 l 799 944 q 806 964 799 956 q 826 972 814 972 m 826 919 l 826 972 q 928 998 896 972 q 961 1086 961 1024 q 967 1115 961 1103 q 986 1128 972 1128 q 1007 1114 1003 1128 q 1011 1086 1011 1100 q 988 996 1011 1033 q 923 939 964 958 q 826 919 882 919 z "},"Ứ":{"ha":993,"x_min":139,"x_max":1011,"o":"m 826 972 q 847 964 839 972 q 854 944 854 956 l 854 344 q 806 165 854 246 q 676 35 757 83 q 497 -14 596 -14 q 317 35 399 -14 q 188 165 236 83 q 139 344 139 246 l 139 944 q 147 964 139 956 q 168 972 154 972 q 189 964 181 972 q 197 944 197 956 l 197 344 q 238 192 197 261 q 347 83 278 124 q 497 42 415 42 q 649 83 581 42 q 758 192 717 124 q 799 344 799 261 l 799 944 q 806 964 799 956 q 826 972 814 972 m 826 919 l 826 972 q 928 998 896 972 q 961 1086 961 1024 q 967 1115 961 1103 q 986 1128 972 1128 q 1007 1114 1003 1128 q 1011 1086 1011 1100 q 988 996 1011 1033 q 923 939 964 958 q 826 919 882 919 m 503 1039 q 490 1044 493 1039 q 486 1056 486 1050 q 490 1067 486 1063 q 499 1076 493 1072 l 624 1169 q 637 1177 629 1174 q 654 1181 644 1181 q 678 1170 671 1181 q 686 1147 686 1160 q 681 1127 686 1135 q 667 1114 676 1119 l 532 1049 q 519 1042 526 1046 q 503 1039 511 1039 z "},"Ự":{"ha":993,"x_min":139,"x_max":1011,"o":"m 826 972 q 847 964 839 972 q 854 944 854 956 l 854 344 q 806 165 854 246 q 676 35 757 83 q 497 -14 596 -14 q 317 35 399 -14 q 188 165 236 83 q 139 344 139 246 l 139 944 q 147 964 139 956 q 168 972 154 972 q 189 964 181 972 q 197 944 197 956 l 197 344 q 238 192 197 261 q 347 83 278 124 q 497 42 415 42 q 649 83 581 42 q 758 192 717 124 q 799 344 799 261 l 799 944 q 806 964 799 956 q 826 972 814 972 m 826 919 l 826 972 q 928 998 896 972 q 961 1086 961 1024 q 967 1115 961 1103 q 986 1128 972 1128 q 1007 1114 1003 1128 q 1011 1086 1011 1100 q 988 996 1011 1033 q 923 939 964 958 q 826 919 882 919 m 497 -190 q 462 -176 475 -190 q 449 -140 449 -162 l 449 -129 q 463 -93 449 -107 q 499 -79 476 -79 q 531 -93 518 -79 q 544 -129 544 -107 l 544 -140 q 531 -176 544 -162 q 497 -190 518 -190 z "},"Ừ":{"ha":993,"x_min":139,"x_max":1011,"o":"m 826 972 q 847 964 839 972 q 854 944 854 956 l 854 344 q 806 165 854 246 q 676 35 757 83 q 497 -14 596 -14 q 317 35 399 -14 q 188 165 236 83 q 139 344 139 246 l 139 944 q 147 964 139 956 q 168 972 154 972 q 189 964 181 972 q 197 944 197 956 l 197 344 q 238 192 197 261 q 347 83 278 124 q 497 42 415 42 q 649 83 581 42 q 758 192 717 124 q 799 344 799 261 l 799 944 q 806 964 799 956 q 826 972 814 972 m 826 919 l 826 972 q 928 998 896 972 q 961 1086 961 1024 q 967 1115 961 1103 q 986 1128 972 1128 q 1007 1114 1003 1128 q 1011 1086 1011 1100 q 988 996 1011 1033 q 923 939 964 958 q 826 919 882 919 m 497 1039 q 482 1042 489 1039 q 468 1049 475 1046 l 333 1114 q 314 1147 314 1125 q 322 1170 314 1160 q 346 1181 329 1181 q 363 1177 356 1181 q 376 1169 371 1174 l 501 1076 q 510 1067 507 1072 q 514 1056 514 1063 q 510 1044 514 1050 q 497 1039 507 1039 z "},"Ử":{"ha":993,"x_min":139,"x_max":1011,"o":"m 826 972 q 847 964 839 972 q 854 944 854 956 l 854 344 q 806 165 854 246 q 676 35 757 83 q 497 -14 596 -14 q 317 35 399 -14 q 188 165 236 83 q 139 344 139 246 l 139 944 q 147 964 139 956 q 168 972 154 972 q 189 964 181 972 q 197 944 197 956 l 197 344 q 238 192 197 261 q 347 83 278 124 q 497 42 415 42 q 649 83 581 42 q 758 192 717 124 q 799 344 799 261 l 799 944 q 806 964 799 956 q 826 972 814 972 m 826 919 l 826 972 q 928 998 896 972 q 961 1086 961 1024 q 967 1115 961 1103 q 986 1128 972 1128 q 1007 1114 1003 1128 q 1011 1086 1011 1100 q 988 996 1011 1033 q 923 939 964 958 q 826 919 882 919 m 400 1242 q 446 1274 419 1261 q 501 1286 472 1286 q 563 1270 540 1286 q 594 1232 585 1254 q 604 1190 604 1210 q 590 1146 604 1165 q 551 1103 575 1126 q 543 1090 546 1097 q 539 1071 540 1083 q 531 1056 538 1061 q 515 1051 525 1051 q 499 1058 504 1051 q 493 1074 493 1065 q 496 1100 493 1085 q 513 1129 499 1115 q 544 1161 532 1149 q 556 1192 556 1174 q 540 1224 556 1211 q 504 1236 525 1236 q 468 1228 485 1236 q 439 1210 451 1219 q 416 1199 428 1200 q 396 1207 404 1197 q 390 1223 390 1214 q 400 1242 390 1232 z "},"Ữ":{"ha":993,"x_min":139,"x_max":1011,"o":"m 826 972 q 847 964 839 972 q 854 944 854 956 l 854 344 q 806 165 854 246 q 676 35 757 83 q 497 -14 596 -14 q 317 35 399 -14 q 188 165 236 83 q 139 344 139 246 l 139 944 q 147 964 139 956 q 168 972 154 972 q 189 964 181 972 q 197 944 197 956 l 197 344 q 238 192 197 261 q 347 83 278 124 q 497 42 415 42 q 649 83 581 42 q 758 192 717 124 q 799 344 799 261 l 799 944 q 806 964 799 956 q 826 972 814 972 m 826 919 l 826 972 q 928 998 896 972 q 961 1086 961 1024 q 967 1115 961 1103 q 986 1128 972 1128 q 1007 1114 1003 1128 q 1011 1086 1011 1100 q 988 996 1011 1033 q 923 939 964 958 q 826 919 882 919 m 321 1086 q 303 1099 307 1086 q 304 1135 299 1111 q 349 1200 317 1181 q 414 1219 381 1219 q 476 1199 443 1219 q 542 1160 510 1179 q 597 1140 574 1140 q 631 1158 618 1140 q 649 1203 644 1175 q 656 1221 650 1214 q 674 1228 663 1228 q 694 1215 690 1228 q 693 1181 697 1201 q 670 1127 686 1147 q 633 1099 654 1107 q 586 1090 611 1090 q 527 1110 560 1090 q 463 1148 494 1129 q 408 1167 432 1167 q 372 1152 388 1167 q 346 1106 356 1138 q 335 1091 343 1096 q 321 1086 328 1086 z "},"Ű":{"ha":993,"x_min":139,"x_max":854,"o":"m 826 972 q 847 964 839 972 q 854 944 854 956 l 854 344 q 806 165 854 246 q 676 35 757 83 q 497 -14 596 -14 q 317 35 399 -14 q 188 165 236 83 q 139 344 139 246 l 139 944 q 147 964 139 956 q 168 972 154 972 q 189 964 181 972 q 197 944 197 956 l 197 344 q 238 192 197 261 q 347 83 278 124 q 497 42 415 42 q 649 83 581 42 q 758 192 717 124 q 799 344 799 261 l 799 944 q 806 964 799 956 q 826 972 814 972 z "},"Ȗ":{"ha":993,"x_min":139,"x_max":854,"o":"m 826 972 q 847 964 839 972 q 854 944 854 956 l 854 344 q 806 165 854 246 q 676 35 757 83 q 497 -14 596 -14 q 317 35 399 -14 q 188 165 236 83 q 139 344 139 246 l 139 944 q 147 964 139 956 q 168 972 154 972 q 189 964 181 972 q 197 944 197 956 l 197 344 q 238 192 197 261 q 347 83 278 124 q 497 42 415 42 q 649 83 581 42 q 758 192 717 124 q 799 344 799 261 l 799 944 q 806 964 799 956 q 826 972 814 972 m 494 1172 q 579 1153 542 1172 q 640 1101 617 1133 q 663 1033 663 1069 q 655 1016 663 1024 q 636 1008 647 1008 q 616 1016 622 1008 q 607 1036 610 1024 q 568 1098 600 1076 q 494 1119 536 1119 q 421 1098 453 1119 q 382 1036 389 1076 q 374 1016 381 1024 q 353 1008 367 1008 q 334 1016 342 1008 q 326 1033 326 1024 q 349 1101 326 1069 q 410 1153 372 1133 q 494 1172 449 1172 z "},"Ū":{"ha":993,"x_min":139,"x_max":854,"o":"m 826 972 q 847 964 839 972 q 854 944 854 956 l 854 344 q 806 165 854 246 q 676 35 757 83 q 497 -14 596 -14 q 317 35 399 -14 q 188 165 236 83 q 139 344 139 246 l 139 944 q 147 964 139 956 q 168 972 154 972 q 189 964 181 972 q 197 944 197 956 l 197 344 q 238 192 197 261 q 347 83 278 124 q 497 42 415 42 q 649 83 581 42 q 758 192 717 124 q 799 344 799 261 l 799 944 q 806 964 799 956 q 826 972 814 972 m 322 1111 q 292 1136 292 1111 q 322 1164 292 1164 l 683 1164 q 714 1136 714 1164 q 683 1111 714 1111 l 322 1111 z "},"Ṻ":{"ha":993,"x_min":139,"x_max":854,"o":"m 826 972 q 847 964 839 972 q 854 944 854 956 l 854 344 q 806 165 854 246 q 676 35 757 83 q 497 -14 596 -14 q 317 35 399 -14 q 188 165 236 83 q 139 344 139 246 l 139 944 q 147 964 139 956 q 168 972 154 972 q 189 964 181 972 q 197 944 197 956 l 197 344 q 238 192 197 261 q 347 83 278 124 q 497 42 415 42 q 649 83 581 42 q 758 192 717 124 q 799 344 799 261 l 799 944 q 806 964 799 956 q 826 972 814 972 m 322 1111 q 292 1136 292 1111 q 322 1164 292 1164 l 683 1164 q 714 1136 714 1164 q 683 1111 714 1111 l 322 1111 m 611 1290 q 576 1304 589 1290 q 563 1340 563 1318 l 563 1351 q 576 1388 563 1374 q 613 1401 590 1401 q 645 1388 632 1401 q 658 1351 658 1374 l 658 1340 q 645 1304 658 1318 q 611 1290 632 1290 m 385 1290 q 349 1304 363 1290 q 336 1340 336 1318 l 336 1351 q 350 1388 336 1374 q 386 1401 364 1401 q 419 1388 406 1401 q 432 1351 432 1374 l 432 1340 q 419 1304 432 1318 q 385 1290 406 1290 z "},"Ų":{"ha":993,"x_min":139,"x_max":854,"o":"m 596 -257 q 512 -222 550 -257 q 474 -129 474 -187 q 485 -72 474 -97 q 514 -26 496 -46 q 554 6 532 -7 q 599 26 576 19 l 550 -10 q 524 -12 538 -11 q 497 -14 511 -14 q 317 35 399 -14 q 188 165 236 83 q 139 344 139 246 l 139 944 q 147 964 139 956 q 168 972 154 972 q 189 964 181 972 q 197 944 197 956 l 197 344 q 238 192 197 261 q 347 83 278 124 q 497 42 415 42 q 651 83 583 42 q 759 192 719 124 q 799 344 799 261 l 799 944 q 806 964 799 956 q 826 972 814 972 q 847 964 839 972 q 854 944 854 956 l 854 344 q 831 215 854 276 q 766 104 808 153 q 665 29 724 56 q 610 3 643 19 q 551 -42 576 -14 q 526 -118 526 -71 q 550 -183 526 -160 q 603 -206 574 -206 q 646 -192 638 -206 q 659 -175 653 -181 q 675 -169 665 -169 q 690 -176 685 -169 q 696 -189 696 -182 q 683 -223 696 -207 q 647 -248 669 -239 q 596 -257 625 -257 z "},"Ů":{"ha":993,"x_min":139,"x_max":854,"o":"m 826 972 q 847 964 839 972 q 854 944 854 956 l 854 344 q 806 165 854 246 q 676 35 757 83 q 497 -14 596 -14 q 317 35 399 -14 q 188 165 236 83 q 139 344 139 246 l 139 944 q 147 964 139 956 q 168 972 154 972 q 189 964 181 972 q 197 944 197 956 l 197 344 q 238 192 197 261 q 347 83 278 124 q 497 42 415 42 q 649 83 581 42 q 758 192 717 124 q 799 344 799 261 l 799 944 q 806 964 799 956 q 826 972 814 972 m 497 1028 q 430 1045 461 1028 q 380 1092 399 1063 q 361 1158 361 1122 q 380 1224 361 1194 q 430 1272 399 1254 q 497 1289 461 1289 q 565 1272 533 1289 q 615 1224 596 1254 q 633 1158 633 1194 q 615 1092 633 1122 q 565 1045 596 1063 q 497 1028 533 1028 m 497 1072 q 558 1098 533 1072 q 583 1158 583 1124 q 558 1219 583 1194 q 497 1244 533 1244 q 437 1219 463 1244 q 411 1158 411 1194 q 437 1098 411 1124 q 497 1072 463 1072 z "},"Ũ":{"ha":993,"x_min":139,"x_max":854,"o":"m 826 972 q 847 964 839 972 q 854 944 854 956 l 854 344 q 806 165 854 246 q 676 35 757 83 q 497 -14 596 -14 q 317 35 399 -14 q 188 165 236 83 q 139 344 139 246 l 139 944 q 147 964 139 956 q 168 972 154 972 q 189 964 181 972 q 197 944 197 956 l 197 344 q 238 192 197 261 q 347 83 278 124 q 497 42 415 42 q 649 83 581 42 q 758 192 717 124 q 799 344 799 261 l 799 944 q 806 964 799 956 q 826 972 814 972 m 321 1086 q 303 1099 307 1086 q 304 1135 299 1111 q 349 1200 317 1181 q 414 1219 381 1219 q 476 1199 443 1219 q 542 1160 510 1179 q 597 1140 574 1140 q 631 1158 618 1140 q 649 1203 644 1175 q 656 1221 650 1214 q 674 1228 663 1228 q 694 1215 690 1228 q 693 1181 697 1201 q 670 1127 686 1147 q 633 1099 654 1107 q 586 1090 611 1090 q 527 1110 560 1090 q 463 1148 494 1129 q 408 1167 432 1167 q 372 1152 388 1167 q 346 1106 356 1138 q 335 1091 343 1096 q 321 1086 328 1086 z "},"Ṹ":{"ha":993,"x_min":139,"x_max":854,"o":"m 826 972 q 847 964 839 972 q 854 944 854 956 l 854 344 q 806 165 854 246 q 676 35 757 83 q 497 -14 596 -14 q 317 35 399 -14 q 188 165 236 83 q 139 344 139 246 l 139 944 q 147 964 139 956 q 168 972 154 972 q 189 964 181 972 q 197 944 197 956 l 197 344 q 238 192 197 261 q 347 83 278 124 q 497 42 415 42 q 649 83 581 42 q 758 192 717 124 q 799 344 799 261 l 799 944 q 806 964 799 956 q 826 972 814 972 m 321 1086 q 303 1099 307 1086 q 304 1135 299 1111 q 349 1200 317 1181 q 414 1219 381 1219 q 476 1199 443 1219 q 542 1160 510 1179 q 597 1140 574 1140 q 631 1158 618 1140 q 649 1203 644 1175 q 656 1221 650 1214 q 674 1228 663 1228 q 694 1215 690 1228 q 693 1181 697 1201 q 670 1127 686 1147 q 633 1099 654 1107 q 586 1090 611 1090 q 527 1110 560 1090 q 463 1148 494 1129 q 408 1167 432 1167 q 372 1152 388 1167 q 346 1106 356 1138 q 335 1091 343 1096 q 321 1086 328 1086 m 503 1294 q 490 1300 493 1294 q 486 1311 486 1306 q 490 1323 486 1318 q 499 1332 493 1328 l 624 1425 q 637 1433 629 1429 q 654 1436 644 1436 q 678 1426 671 1436 q 686 1403 686 1415 q 681 1383 686 1390 q 667 1369 676 1375 l 532 1304 q 519 1298 526 1301 q 503 1294 511 1294 z "},"V":{"ha":917,"x_min":50,"x_max":868,"o":"m 840 972 q 861 965 854 972 q 868 947 868 958 q 865 933 868 942 l 485 18 q 474 5 481 10 q 458 0 467 0 q 442 5 450 0 q 432 18 435 10 l 54 929 q 51 936 53 932 q 50 946 50 940 q 58 965 50 957 q 76 972 67 972 q 107 950 97 972 l 468 81 l 451 82 l 814 954 q 840 972 824 972 z "},"W":{"ha":1353,"x_min":49,"x_max":1304,"o":"m 1275 975 q 1296 969 1288 975 q 1304 949 1304 963 q 1301 935 1304 943 l 983 18 q 973 5 981 10 q 958 0 965 0 q 941 3 949 0 q 931 17 933 7 l 671 672 l 682 672 l 422 17 q 410 3 418 7 q 393 0 403 0 q 379 5 386 0 q 369 18 372 10 l 51 935 q 49 947 49 943 q 59 968 49 961 q 79 975 69 975 q 95 970 88 975 q 106 957 103 965 l 404 94 l 394 93 l 650 739 q 660 752 653 747 q 676 757 667 757 q 692 752 685 757 q 703 739 700 747 l 961 89 l 949 88 l 1247 957 q 1257 970 1250 965 q 1275 975 1264 975 z "},"Ẃ":{"ha":1353,"x_min":49,"x_max":1304,"o":"m 1275 975 q 1296 969 1288 975 q 1304 949 1304 963 q 1301 935 1304 943 l 983 18 q 973 5 981 10 q 958 0 965 0 q 941 3 949 0 q 931 17 933 7 l 671 672 l 682 672 l 422 17 q 410 3 418 7 q 393 0 403 0 q 379 5 386 0 q 369 18 372 10 l 51 935 q 49 947 49 943 q 59 968 49 961 q 79 975 69 975 q 95 970 88 975 q 106 957 103 965 l 404 94 l 394 93 l 650 739 q 660 752 653 747 q 676 757 667 757 q 692 752 685 757 q 703 739 700 747 l 961 89 l 949 88 l 1247 957 q 1257 970 1250 965 q 1275 975 1264 975 m 682 1039 q 669 1044 672 1039 q 665 1056 665 1050 q 669 1067 665 1063 q 678 1076 672 1072 l 803 1169 q 816 1177 808 1174 q 833 1181 824 1181 q 858 1170 850 1181 q 865 1147 865 1160 q 860 1127 865 1135 q 846 1114 856 1119 l 711 1049 q 698 1042 706 1046 q 682 1039 690 1039 z "},"Ŵ":{"ha":1353,"x_min":49,"x_max":1304,"o":"m 1275 975 q 1296 969 1288 975 q 1304 949 1304 963 q 1301 935 1304 943 l 983 18 q 973 5 981 10 q 958 0 965 0 q 941 3 949 0 q 931 17 933 7 l 671 672 l 682 672 l 422 17 q 410 3 418 7 q 393 0 403 0 q 379 5 386 0 q 369 18 372 10 l 51 935 q 49 947 49 943 q 59 968 49 961 q 79 975 69 975 q 95 970 88 975 q 106 957 103 965 l 404 94 l 394 93 l 650 739 q 660 752 653 747 q 676 757 667 757 q 692 752 685 757 q 703 739 700 747 l 961 89 l 949 88 l 1247 957 q 1257 970 1250 965 q 1275 975 1264 975 m 682 1186 l 557 1081 q 544 1071 550 1075 q 531 1067 538 1067 q 519 1072 524 1067 q 514 1083 514 1078 q 516 1092 514 1088 q 522 1100 518 1096 l 635 1219 q 650 1232 643 1228 q 668 1236 657 1236 l 682 1236 q 700 1232 693 1236 q 715 1219 707 1228 l 828 1101 q 834 1093 832 1097 q 836 1085 836 1089 q 831 1074 836 1079 q 819 1068 826 1068 q 807 1072 814 1068 q 793 1082 800 1076 l 667 1181 l 682 1186 z "},"Ẅ":{"ha":1353,"x_min":49,"x_max":1304,"o":"m 1275 975 q 1296 969 1288 975 q 1304 949 1304 963 q 1301 935 1304 943 l 983 18 q 973 5 981 10 q 958 0 965 0 q 941 3 949 0 q 931 17 933 7 l 671 672 l 682 672 l 422 17 q 410 3 418 7 q 393 0 403 0 q 379 5 386 0 q 369 18 372 10 l 51 935 q 49 947 49 943 q 59 968 49 961 q 79 975 69 975 q 95 970 88 975 q 106 957 103 965 l 404 94 l 394 93 l 650 739 q 660 752 653 747 q 676 757 667 757 q 692 752 685 757 q 703 739 700 747 l 961 89 l 949 88 l 1247 957 q 1257 970 1250 965 q 1275 975 1264 975 m 790 1083 q 755 1097 768 1083 q 742 1133 742 1111 l 742 1144 q 756 1181 742 1167 q 792 1194 769 1194 q 824 1181 811 1194 q 838 1144 838 1167 l 838 1133 q 824 1097 838 1111 q 790 1083 811 1083 m 564 1083 q 528 1097 542 1083 q 515 1133 515 1111 l 515 1144 q 529 1181 515 1167 q 565 1194 543 1194 q 598 1181 585 1194 q 611 1144 611 1167 l 611 1133 q 598 1097 611 1111 q 564 1083 585 1083 z "},"Ẁ":{"ha":1353,"x_min":49,"x_max":1304,"o":"m 1275 975 q 1296 969 1288 975 q 1304 949 1304 963 q 1301 935 1304 943 l 983 18 q 973 5 981 10 q 958 0 965 0 q 941 3 949 0 q 931 17 933 7 l 671 672 l 682 672 l 422 17 q 410 3 418 7 q 393 0 403 0 q 379 5 386 0 q 369 18 372 10 l 51 935 q 49 947 49 943 q 59 968 49 961 q 79 975 69 975 q 95 970 88 975 q 106 957 103 965 l 404 94 l 394 93 l 650 739 q 660 752 653 747 q 676 757 667 757 q 692 752 685 757 q 703 739 700 747 l 961 89 l 949 88 l 1247 957 q 1257 970 1250 965 q 1275 975 1264 975 m 676 1039 q 661 1042 668 1039 q 647 1049 654 1046 l 513 1114 q 493 1147 493 1125 q 501 1170 493 1160 q 525 1181 508 1181 q 542 1177 535 1181 q 556 1169 550 1174 l 681 1076 q 690 1067 686 1072 q 693 1056 693 1063 q 690 1044 693 1050 q 676 1039 686 1039 z "},"X":{"ha":818,"x_min":42,"x_max":776,"o":"m 749 978 q 768 972 760 978 q 776 956 776 967 q 769 936 776 946 l 438 479 l 407 526 l 728 967 q 749 978 736 978 m 69 976 q 93 965 86 976 l 769 40 q 776 24 776 31 q 767 3 776 11 q 747 -4 758 -4 q 725 7 732 -4 l 47 932 q 42 949 42 939 q 50 969 42 961 q 69 976 58 976 m 69 -4 q 49 4 56 -4 q 43 19 43 13 q 50 38 43 26 l 382 490 l 410 443 l 90 7 q 69 -4 83 -4 z "},"Y":{"ha":760,"x_min":28,"x_max":732,"o":"m 704 978 q 725 968 718 978 q 732 951 732 958 q 731 942 732 946 q 726 933 729 938 l 397 486 l 410 526 l 410 28 q 401 8 410 17 q 381 0 393 0 q 359 8 367 0 q 351 28 351 17 l 351 517 l 358 488 l 33 933 q 29 942 31 938 q 28 951 28 946 q 38 970 28 963 q 57 978 47 978 q 81 965 72 978 l 389 544 l 375 547 l 681 965 q 704 978 689 978 z "},"Ý":{"ha":760,"x_min":28,"x_max":732,"o":"m 704 978 q 725 968 718 978 q 732 951 732 958 q 731 942 732 946 q 726 933 729 938 l 397 486 l 410 526 l 410 28 q 401 8 410 17 q 381 0 393 0 q 359 8 367 0 q 351 28 351 17 l 351 517 l 358 488 l 33 933 q 29 942 31 938 q 28 951 28 946 q 38 970 28 963 q 57 978 47 978 q 81 965 72 978 l 389 544 l 375 547 l 681 965 q 704 978 689 978 m 386 1039 q 373 1044 376 1039 q 369 1056 369 1050 q 373 1067 369 1063 q 382 1076 376 1072 l 507 1169 q 520 1177 513 1174 q 538 1181 528 1181 q 562 1170 554 1181 q 569 1147 569 1160 q 565 1127 569 1135 q 550 1114 560 1119 l 415 1049 q 402 1042 410 1046 q 386 1039 394 1039 z "},"Ŷ":{"ha":760,"x_min":28,"x_max":732,"o":"m 704 978 q 725 968 718 978 q 732 951 732 958 q 731 942 732 946 q 726 933 729 938 l 397 486 l 410 526 l 410 28 q 401 8 410 17 q 381 0 393 0 q 359 8 367 0 q 351 28 351 17 l 351 517 l 358 488 l 33 933 q 29 942 31 938 q 28 951 28 946 q 38 970 28 963 q 57 978 47 978 q 81 965 72 978 l 389 544 l 375 547 l 681 965 q 704 978 689 978 m 386 1186 l 261 1081 q 248 1071 254 1075 q 235 1067 242 1067 q 223 1072 228 1067 q 218 1083 218 1078 q 220 1092 218 1088 q 226 1100 222 1096 l 339 1219 q 354 1232 347 1228 q 372 1236 361 1236 l 386 1236 q 404 1232 397 1236 q 419 1219 411 1228 l 532 1101 q 538 1093 536 1097 q 540 1085 540 1089 q 535 1074 540 1079 q 524 1068 531 1068 q 511 1072 518 1068 q 497 1082 504 1076 l 371 1181 l 386 1186 z "},"Ÿ":{"ha":760,"x_min":28,"x_max":732,"o":"m 704 978 q 725 968 718 978 q 732 951 732 958 q 731 942 732 946 q 726 933 729 938 l 397 486 l 410 526 l 410 28 q 401 8 410 17 q 381 0 393 0 q 359 8 367 0 q 351 28 351 17 l 351 517 l 358 488 l 33 933 q 29 942 31 938 q 28 951 28 946 q 38 970 28 963 q 57 978 47 978 q 81 965 72 978 l 389 544 l 375 547 l 681 965 q 704 978 689 978 m 494 1083 q 459 1097 472 1083 q 446 1133 446 1111 l 446 1144 q 460 1181 446 1167 q 496 1194 474 1194 q 528 1181 515 1194 q 542 1144 542 1167 l 542 1133 q 528 1097 542 1111 q 494 1083 515 1083 m 268 1083 q 233 1097 246 1083 q 219 1133 219 1111 l 219 1144 q 233 1181 219 1167 q 269 1194 247 1194 q 302 1181 289 1194 q 315 1144 315 1167 l 315 1133 q 302 1097 315 1111 q 268 1083 289 1083 z "},"Ẏ":{"ha":760,"x_min":28,"x_max":732,"o":"m 704 978 q 725 968 718 978 q 732 951 732 958 q 731 942 732 946 q 726 933 729 938 l 397 486 l 410 526 l 410 28 q 401 8 410 17 q 381 0 393 0 q 359 8 367 0 q 351 28 351 17 l 351 517 l 358 488 l 33 933 q 29 942 31 938 q 28 951 28 946 q 38 970 28 963 q 57 978 47 978 q 81 965 72 978 l 389 544 l 375 547 l 681 965 q 704 978 689 978 m 381 1083 q 345 1097 358 1083 q 332 1133 332 1111 l 332 1144 q 346 1181 332 1167 q 382 1194 360 1194 q 415 1181 401 1194 q 428 1144 428 1167 l 428 1133 q 415 1097 428 1111 q 381 1083 401 1083 z "},"Ỵ":{"ha":760,"x_min":28,"x_max":732,"o":"m 704 978 q 725 968 718 978 q 732 951 732 958 q 731 942 732 946 q 726 933 729 938 l 397 486 l 410 526 l 410 28 q 401 8 410 17 q 381 0 393 0 q 359 8 367 0 q 351 28 351 17 l 351 517 l 358 488 l 33 933 q 29 942 31 938 q 28 951 28 946 q 38 970 28 963 q 57 978 47 978 q 81 965 72 978 l 389 544 l 375 547 l 681 965 q 704 978 689 978 m 381 -190 q 345 -176 358 -190 q 332 -140 332 -162 l 332 -129 q 346 -93 332 -107 q 382 -79 360 -79 q 415 -93 401 -79 q 428 -129 428 -107 l 428 -140 q 415 -176 428 -162 q 381 -190 401 -190 z "},"Ỳ":{"ha":760,"x_min":28,"x_max":732,"o":"m 704 978 q 725 968 718 978 q 732 951 732 958 q 731 942 732 946 q 726 933 729 938 l 397 486 l 410 526 l 410 28 q 401 8 410 17 q 381 0 393 0 q 359 8 367 0 q 351 28 351 17 l 351 517 l 358 488 l 33 933 q 29 942 31 938 q 28 951 28 946 q 38 970 28 963 q 57 978 47 978 q 81 965 72 978 l 389 544 l 375 547 l 681 965 q 704 978 689 978 m 381 1039 q 365 1042 372 1039 q 351 1049 358 1046 l 217 1114 q 197 1147 197 1125 q 205 1170 197 1160 q 229 1181 213 1181 q 247 1177 239 1181 q 260 1169 254 1174 l 385 1076 q 394 1067 390 1072 q 397 1056 397 1063 q 394 1044 397 1050 q 381 1039 390 1039 z "},"Ỷ":{"ha":760,"x_min":28,"x_max":732,"o":"m 704 978 q 725 968 718 978 q 732 951 732 958 q 731 942 732 946 q 726 933 729 938 l 397 486 l 410 526 l 410 28 q 401 8 410 17 q 381 0 393 0 q 359 8 367 0 q 351 28 351 17 l 351 517 l 358 488 l 33 933 q 29 942 31 938 q 28 951 28 946 q 38 970 28 963 q 57 978 47 978 q 81 965 72 978 l 389 544 l 375 547 l 681 965 q 704 978 689 978 m 283 1242 q 329 1274 303 1261 q 385 1286 356 1286 q 446 1270 424 1286 q 478 1232 468 1254 q 488 1190 488 1210 q 473 1146 488 1165 q 435 1103 458 1126 q 426 1090 429 1097 q 422 1071 424 1083 q 415 1056 421 1061 q 399 1051 408 1051 q 382 1058 388 1051 q 376 1074 376 1065 q 379 1100 376 1085 q 396 1129 382 1115 q 427 1161 415 1149 q 439 1192 439 1174 q 424 1224 439 1211 q 388 1236 408 1236 q 351 1228 368 1236 q 322 1210 335 1219 q 299 1199 311 1200 q 279 1207 288 1197 q 274 1223 274 1214 q 283 1242 274 1232 z "},"Ȳ":{"ha":760,"x_min":28,"x_max":732,"o":"m 704 978 q 725 968 718 978 q 732 951 732 958 q 731 942 732 946 q 726 933 729 938 l 397 486 l 410 526 l 410 28 q 401 8 410 17 q 381 0 393 0 q 359 8 367 0 q 351 28 351 17 l 351 517 l 358 488 l 33 933 q 29 942 31 938 q 28 951 28 946 q 38 970 28 963 q 57 978 47 978 q 81 965 72 978 l 389 544 l 375 547 l 681 965 q 704 978 689 978 m 206 1111 q 175 1136 175 1111 q 206 1164 175 1164 l 567 1164 q 597 1136 597 1164 q 567 1111 597 1111 l 206 1111 z "},"Ỹ":{"ha":760,"x_min":28,"x_max":732,"o":"m 704 978 q 725 968 718 978 q 732 951 732 958 q 731 942 732 946 q 726 933 729 938 l 397 486 l 410 526 l 410 28 q 401 8 410 17 q 381 0 393 0 q 359 8 367 0 q 351 28 351 17 l 351 517 l 358 488 l 33 933 q 29 942 31 938 q 28 951 28 946 q 38 970 28 963 q 57 978 47 978 q 81 965 72 978 l 389 544 l 375 547 l 681 965 q 704 978 689 978 m 204 1086 q 186 1099 190 1086 q 188 1135 182 1111 q 232 1200 200 1181 q 297 1219 264 1219 q 360 1199 326 1219 q 425 1160 393 1179 q 481 1140 457 1140 q 515 1158 501 1140 q 532 1203 528 1175 q 540 1221 533 1214 q 557 1228 546 1228 q 577 1215 574 1228 q 576 1181 581 1201 q 553 1127 569 1147 q 516 1099 538 1107 q 469 1090 494 1090 q 410 1110 443 1090 q 347 1148 378 1129 q 292 1167 315 1167 q 255 1152 271 1167 q 229 1106 239 1138 q 219 1091 226 1096 q 204 1086 211 1086 z "},"Z":{"ha":893,"x_min":83,"x_max":824,"o":"m 792 972 q 817 963 810 972 q 824 944 824 954 q 818 928 824 935 l 154 39 l 156 53 l 794 53 q 814 44 806 53 q 822 26 822 36 q 814 8 822 15 q 794 0 806 0 l 111 0 q 90 10 97 0 q 83 29 83 19 q 89 46 83 39 l 749 925 l 757 919 l 139 919 q 119 928 128 919 q 111 946 111 936 q 119 965 111 957 q 139 972 128 972 l 792 972 z "},"Ź":{"ha":893,"x_min":83,"x_max":824,"o":"m 792 972 q 817 963 810 972 q 824 944 824 954 q 818 928 824 935 l 154 39 l 156 53 l 794 53 q 814 44 806 53 q 822 26 822 36 q 814 8 822 15 q 794 0 806 0 l 111 0 q 90 10 97 0 q 83 29 83 19 q 89 46 83 39 l 749 925 l 757 919 l 139 919 q 119 928 128 919 q 111 946 111 936 q 119 965 111 957 q 139 972 128 972 l 792 972 m 453 1039 q 440 1044 443 1039 q 436 1056 436 1050 q 440 1067 436 1063 q 449 1076 443 1072 l 574 1169 q 587 1177 579 1174 q 604 1181 594 1181 q 628 1170 621 1181 q 636 1147 636 1160 q 631 1127 636 1135 q 617 1114 626 1119 l 482 1049 q 469 1042 476 1046 q 453 1039 461 1039 z "},"Ž":{"ha":893,"x_min":83,"x_max":824,"o":"m 792 972 q 817 963 810 972 q 824 944 824 954 q 818 928 824 935 l 154 39 l 156 53 l 794 53 q 814 44 806 53 q 822 26 822 36 q 814 8 822 15 q 794 0 806 0 l 111 0 q 90 10 97 0 q 83 29 83 19 q 89 46 83 39 l 749 925 l 757 919 l 139 919 q 119 928 128 919 q 111 946 111 936 q 119 965 111 957 q 139 972 128 972 l 792 972 m 439 1104 l 564 1210 q 578 1220 571 1217 q 590 1224 585 1224 q 602 1219 597 1224 q 607 1207 607 1214 q 605 1199 607 1203 q 599 1190 603 1194 l 486 1071 q 472 1058 481 1061 q 453 1054 464 1054 l 439 1054 q 420 1058 428 1054 q 406 1071 413 1061 l 293 1189 q 287 1197 289 1193 q 285 1206 285 1201 q 290 1217 285 1213 q 301 1222 294 1222 q 328 1208 311 1222 l 454 1110 l 439 1104 z "},"Ż":{"ha":893,"x_min":83,"x_max":824,"o":"m 792 972 q 817 963 810 972 q 824 944 824 954 q 818 928 824 935 l 154 39 l 156 53 l 794 53 q 814 44 806 53 q 822 26 822 36 q 814 8 822 15 q 794 0 806 0 l 111 0 q 90 10 97 0 q 83 29 83 19 q 89 46 83 39 l 749 925 l 757 919 l 139 919 q 119 928 128 919 q 111 946 111 936 q 119 965 111 957 q 139 972 128 972 l 792 972 m 447 1083 q 412 1097 425 1083 q 399 1133 399 1111 l 399 1144 q 413 1181 399 1167 q 449 1194 426 1194 q 481 1181 468 1194 q 494 1144 494 1167 l 494 1133 q 481 1097 494 1111 q 447 1083 468 1083 z "},"Ẓ":{"ha":893,"x_min":83,"x_max":824,"o":"m 792 972 q 817 963 810 972 q 824 944 824 954 q 818 928 824 935 l 154 39 l 156 53 l 794 53 q 814 44 806 53 q 822 26 822 36 q 814 8 822 15 q 794 0 806 0 l 111 0 q 90 10 97 0 q 83 29 83 19 q 89 46 83 39 l 749 925 l 757 919 l 139 919 q 119 928 128 919 q 111 946 111 936 q 119 965 111 957 q 139 972 128 972 l 792 972 m 447 -190 q 412 -176 425 -190 q 399 -140 399 -162 l 399 -129 q 413 -93 399 -107 q 449 -79 426 -79 q 481 -93 468 -79 q 494 -129 494 -107 l 494 -140 q 481 -176 494 -162 q 447 -190 468 -190 z "},"a":{"ha":826,"x_min":67,"x_max":711,"o":"m 683 693 q 703 685 696 693 q 711 665 711 676 l 711 28 q 703 8 711 17 q 683 0 694 0 q 663 8 671 0 q 656 28 656 17 l 656 225 l 678 243 q 656 153 678 199 q 594 69 633 107 q 503 9 556 32 q 389 -14 450 -14 q 223 35 296 -14 q 108 167 150 83 q 67 354 67 250 q 109 541 67 460 q 224 669 151 622 q 389 715 297 715 q 501 694 449 715 q 594 633 554 672 q 656 542 633 594 q 678 429 678 490 l 656 464 l 656 665 q 663 685 656 676 q 683 693 671 693 m 392 39 q 531 80 469 39 q 626 192 592 121 q 661 354 661 264 q 626 510 661 440 q 531 622 592 581 q 392 663 469 663 q 254 623 315 663 q 158 514 193 583 q 122 354 122 444 q 157 192 122 264 q 253 80 192 121 q 392 39 314 39 z "},"á":{"ha":826,"x_min":67,"x_max":711,"o":"m 683 693 q 703 685 696 693 q 711 665 711 676 l 711 28 q 703 8 711 17 q 683 0 694 0 q 663 8 671 0 q 656 28 656 17 l 656 225 l 678 243 q 656 153 678 199 q 594 69 633 107 q 503 9 556 32 q 389 -14 450 -14 q 223 35 296 -14 q 108 167 150 83 q 67 354 67 250 q 109 541 67 460 q 224 669 151 622 q 389 715 297 715 q 501 694 449 715 q 594 633 554 672 q 656 542 633 594 q 678 429 678 490 l 656 464 l 656 665 q 663 685 656 676 q 683 693 671 693 m 392 39 q 531 80 469 39 q 626 192 592 121 q 661 354 661 264 q 626 510 661 440 q 531 622 592 581 q 392 663 469 663 q 254 623 315 663 q 158 514 193 583 q 122 354 122 444 q 157 192 122 264 q 253 80 192 121 q 392 39 314 39 z "},"ă":{"ha":826,"x_min":67,"x_max":711,"o":"m 683 693 q 703 685 696 693 q 711 665 711 676 l 711 28 q 703 8 711 17 q 683 0 694 0 q 663 8 671 0 q 656 28 656 17 l 656 225 l 678 243 q 656 153 678 199 q 594 69 633 107 q 503 9 556 32 q 389 -14 450 -14 q 223 35 296 -14 q 108 167 150 83 q 67 354 67 250 q 109 541 67 460 q 224 669 151 622 q 389 715 297 715 q 501 694 449 715 q 594 633 554 672 q 656 542 633 594 q 678 429 678 490 l 656 464 l 656 665 q 663 685 656 676 q 683 693 671 693 m 392 39 q 531 80 469 39 q 626 192 592 121 q 661 354 661 264 q 626 510 661 440 q 531 622 592 581 q 392 663 469 663 q 254 623 315 663 q 158 514 193 583 q 122 354 122 444 q 157 192 122 264 q 253 80 192 121 q 392 39 314 39 z "},"ắ":{"ha":826,"x_min":67,"x_max":711,"o":"m 683 693 q 703 685 696 693 q 711 665 711 676 l 711 28 q 703 8 711 17 q 683 0 694 0 q 663 8 671 0 q 656 28 656 17 l 656 225 l 678 243 q 656 153 678 199 q 594 69 633 107 q 503 9 556 32 q 389 -14 450 -14 q 223 35 296 -14 q 108 167 150 83 q 67 354 67 250 q 109 541 67 460 q 224 669 151 622 q 389 715 297 715 q 501 694 449 715 q 594 633 554 672 q 656 542 633 594 q 678 429 678 490 l 656 464 l 656 665 q 663 685 656 676 q 683 693 671 693 m 392 39 q 531 80 469 39 q 626 192 592 121 q 661 354 661 264 q 626 510 661 440 q 531 622 592 581 q 392 663 469 663 q 254 623 315 663 q 158 514 193 583 q 122 354 122 444 q 157 192 122 264 q 253 80 192 121 q 392 39 314 39 z "},"ặ":{"ha":826,"x_min":67,"x_max":711,"o":"m 683 693 q 703 685 696 693 q 711 665 711 676 l 711 28 q 703 8 711 17 q 683 0 694 0 q 663 8 671 0 q 656 28 656 17 l 656 225 l 678 243 q 656 153 678 199 q 594 69 633 107 q 503 9 556 32 q 389 -14 450 -14 q 223 35 296 -14 q 108 167 150 83 q 67 354 67 250 q 109 541 67 460 q 224 669 151 622 q 389 715 297 715 q 501 694 449 715 q 594 633 554 672 q 656 542 633 594 q 678 429 678 490 l 656 464 l 656 665 q 663 685 656 676 q 683 693 671 693 m 392 39 q 531 80 469 39 q 626 192 592 121 q 661 354 661 264 q 626 510 661 440 q 531 622 592 581 q 392 663 469 663 q 254 623 315 663 q 158 514 193 583 q 122 354 122 444 q 157 192 122 264 q 253 80 192 121 q 392 39 314 39 m 386 -181 q 351 -168 364 -181 q 338 -136 338 -156 l 338 -125 q 351 -93 338 -106 q 388 -81 365 -81 q 420 -93 407 -81 q 433 -125 433 -106 l 433 -136 q 420 -168 433 -156 q 386 -181 407 -181 z "},"ằ":{"ha":826,"x_min":67,"x_max":711,"o":"m 683 693 q 703 685 696 693 q 711 665 711 676 l 711 28 q 703 8 711 17 q 683 0 694 0 q 663 8 671 0 q 656 28 656 17 l 656 225 l 678 243 q 656 153 678 199 q 594 69 633 107 q 503 9 556 32 q 389 -14 450 -14 q 223 35 296 -14 q 108 167 150 83 q 67 354 67 250 q 109 541 67 460 q 224 669 151 622 q 389 715 297 715 q 501 694 449 715 q 594 633 554 672 q 656 542 633 594 q 678 429 678 490 l 656 464 l 656 665 q 663 685 656 676 q 683 693 671 693 m 392 39 q 531 80 469 39 q 626 192 592 121 q 661 354 661 264 q 626 510 661 440 q 531 622 592 581 q 392 663 469 663 q 254 623 315 663 q 158 514 193 583 q 122 354 122 444 q 157 192 122 264 q 253 80 192 121 q 392 39 314 39 z "},"ẳ":{"ha":826,"x_min":67,"x_max":711,"o":"m 683 693 q 703 685 696 693 q 711 665 711 676 l 711 28 q 703 8 711 17 q 683 0 694 0 q 663 8 671 0 q 656 28 656 17 l 656 225 l 678 243 q 656 153 678 199 q 594 69 633 107 q 503 9 556 32 q 389 -14 450 -14 q 223 35 296 -14 q 108 167 150 83 q 67 354 67 250 q 109 541 67 460 q 224 669 151 622 q 389 715 297 715 q 501 694 449 715 q 594 633 554 672 q 656 542 633 594 q 678 429 678 490 l 656 464 l 656 665 q 663 685 656 676 q 683 693 671 693 m 392 39 q 531 80 469 39 q 626 192 592 121 q 661 354 661 264 q 626 510 661 440 q 531 622 592 581 q 392 663 469 663 q 254 623 315 663 q 158 514 193 583 q 122 354 122 444 q 157 192 122 264 q 253 80 192 121 q 392 39 314 39 z "},"ẵ":{"ha":826,"x_min":67,"x_max":711,"o":"m 683 693 q 703 685 696 693 q 711 665 711 676 l 711 28 q 703 8 711 17 q 683 0 694 0 q 663 8 671 0 q 656 28 656 17 l 656 225 l 678 243 q 656 153 678 199 q 594 69 633 107 q 503 9 556 32 q 389 -14 450 -14 q 223 35 296 -14 q 108 167 150 83 q 67 354 67 250 q 109 541 67 460 q 224 669 151 622 q 389 715 297 715 q 501 694 449 715 q 594 633 554 672 q 656 542 633 594 q 678 429 678 490 l 656 464 l 656 665 q 663 685 656 676 q 683 693 671 693 m 392 39 q 531 80 469 39 q 626 192 592 121 q 661 354 661 264 q 626 510 661 440 q 531 622 592 581 q 392 663 469 663 q 254 623 315 663 q 158 514 193 583 q 122 354 122 444 q 157 192 122 264 q 253 80 192 121 q 392 39 314 39 z "}}}
